<?xml version="1.0"?>
<svg width="640" height="480" xmlns="http://www.w3.org/2000/svg" xmlns:svg="http://www.w3.org/2000/svg">
 <!-- Created with SVG-edit - http://svg-edit.googlecode.com/ -->
 <g>
  <title>Layer 1</title>
  <path fill="none" stroke="#000000" stroke-width="5" id="svg_4" d="m77,103c1.41067,0.89333 1.76465,1.51959 2.32117,2.643c0.33147,0.66913 0.6885,1.387 0.969,2.166c0.42317,1.17522 0.55036,1.99114 0.65916,2.80166c0.05499,0.40962 0.10354,1.25673 0.38401,2.556c0.2002,0.92747 0.3694,1.39453 0.70832,2.35418c0.17376,0.49195 0.56157,1.48027 0.95834,2.47916c0.39924,1.0051 0.61003,1.51288 0.97916,2.58334c0.19246,0.55809 0.41076,1.13401 0.85418,3.08332c0.1627,0.71527 0.2863,1.4714 0.41399,2.25301c0.13108,0.80239 0.25199,1.62209 0.37801,2.451c0.12665,0.8331 0.24076,1.6672 0.54132,3.296c0.14615,0.79198 0.31376,1.5638 0.49051,2.319c0.174,0.74347 0.36079,1.47342 0.5535,2.19299c0.19098,0.71311 0.38971,1.41895 0.78933,2.82134c0.19936,0.69963 0.39887,1.39593 0.5955,2.0865c0.19403,0.68144 0.56903,2.00534 0.74733,2.642c0.17234,0.61535 0.48834,1.77209 0.77317,2.81416c0.25671,0.93921 0.49672,1.7936 0.63667,2.18668c0.522,1.46622 0.89026,2.10739 1.22649,2.70816c0.44461,0.7944 0.96272,1.74586 1.02084,1.42934c0.13464,-0.73325 0.00831,-1.35753 -0.00133,-2.74817c-0.00502,-0.72272 0.08375,-1.44028 -0.16533,-2.61867c-0.17651,-0.83504 -0.61126,-1.45484 -0.78067,-2.50983c-0.12359,-0.76956 -0.21933,-1.8235 -0.40534,-2.533l-0.29466,-0.85267"/>
  <path fill="none" stroke="#000000" stroke-width="5" id="svg_5" d="m91,122c1.7715,-2.64967 2.27522,-3.19401 2.84383,-3.77766c0.6085,-0.6246 1.25649,-1.26799 1.93351,-1.917c0.68331,-0.65505 1.3592,-1.30893 2.72266,-2.472c0.62747,-0.53526 1.23842,-1.01352 1.833,-1.4385c0.56326,-0.40261 1.11901,-0.76002 1.671,-1.06951c0.53377,-0.29927 1.06171,-0.5883 2.16266,-0.99199c1.1045,-0.40499 1.68903,-0.52941 2.26934,-0.67201c1.1718,-0.28794 1.7697,-0.4043 2.36533,-0.544c1.8026,-0.42278 2.39983,-0.60063 3.00317,-0.76549c1.21598,-0.33228 1.83007,-0.49647 2.45266,-0.64201c0.62679,-0.14651 1.90683,-0.39964 3.22684,-0.5405c0.66752,-0.07122 1.34119,-0.11048 2.016,-0.14849c0.67453,-0.03799 2.01695,-0.08983 3.33334,-0.1875c0.64636,-0.04796 1.28694,-0.11479 2.57333,-0.25867c0.65598,-0.07337 1.32633,-0.15251 2.01749,-0.222c0.71552,-0.07195 2.24224,-0.19122 3.06151,-0.23117c0.85276,-0.04159 1.73393,-0.06746 2.63699,-0.0855c0.91895,-0.01835 1.848,-0.02683 2.78101,-0.0315c0.931,-0.00466 2.763,-0.0045 3.65334,-0.0045c0.87233,0 1.72865,0 2.571,0c0.83032,0 1.65066,0 2.46299,0c0.80634,0 2.409,0 3.20883,0c0.79883,0 1.59566,0 2.3895,0c0.78984,0 1.57468,0 2.3535,0c0.77184,0 2.2905,-0.00051 3.035,0.00017c0.7315,0.00066 1.44701,0.00216 2.1435,0.0105c0.67453,0.00807 1.32416,0.0211 1.94551,0.0465c0.59068,0.02414 2.15019,0.1457 3.00449,0.2955c0.74835,0.13122 1.40249,0.3429 2.62834,0.526c0.87452,0.13062 1.73085,0.01946 2.55716,0.34299c0.75131,0.29417 1.09634,1.2596 1.13867,2.12568c0.05067,1.03676 0.0045,1.986 0.0045,2.66249c0,0.7755 0.02689,1.82419 -0.01067,2.76484c-0.02711,0.67905 -0.15968,1.66357 -0.44667,2.45066c-0.3076,0.84365 -0.85025,1.63314 -1.55249,2.3265c-0.49356,0.48732 -1.08877,0.91602 -1.8235,1.78151c-0.51862,0.6109 -0.95282,1.34882 -1.42801,2.124c-0.50886,0.83013 -1.06016,1.71765 -1.384,2.16499c-0.70668,0.97617 -1.16399,1.47874 -1.68799,2.00267c-0.57904,0.57895 -1.25955,1.1862 -2.06401,1.80299c-1.89848,1.4556 -3.09575,2.1879 -4.38133,2.99068c-1.36147,0.85016 -2.79497,1.70137 -4.263,2.5605c-1.4733,0.86221 -2.93619,1.69885 -4.353,2.51549c-2.6069,1.50261 -3.74957,2.17259 -4.78132,2.79333c-0.94007,0.56559 -1.79387,1.09305 -2.57401,1.58701c-0.72374,0.45825 -1.39712,0.89629 -2.034,1.317c-1.21817,0.80473 -1.81523,1.2086 -2.41467,1.60533c-0.59622,0.39459 -1.1891,0.78377 -1.7805,1.161c-0.5833,0.37207 -1.1597,0.73402 -1.73549,1.071c-1.11118,0.65031 -1.66246,0.93258 -2.20668,1.20401c-0.54182,0.27023 -1.09522,0.52833 -1.662,0.78749c-0.5852,0.26758 -1.19892,0.53962 -1.84199,0.8325c-1.41005,0.6422 -2.18202,1.00958 -2.996,1.39867c-0.84704,0.40487 -1.71554,0.82498 -2.59951,1.248c-0.88803,0.42497 -1.77049,0.84741 -2.6445,1.248c-1.6633,0.76234 -2.44664,1.09119 -3.18933,1.39599c-0.70173,0.288 -1.36908,0.54863 -1.99949,0.79351c-0.59494,0.23109 -1.15849,0.44366 -1.68451,0.65849c-0.96537,0.39426 -1.39852,0.59955 -1.80266,0.80135c-0.38012,0.1898 -0.73021,0.37974 -1.05451,0.56099c-0.30098,0.16821 -0.57471,0.33023 -0.82949,0.471c-0.4386,0.24236 -0.6299,0.33251 -0.80534,0.4c-0.15787,0.06073 -0.30599,0.11021 -0.44849,0.129c-0.83564,0.11013 -1.62342,0.04585 -1.52084,0.04167c0.70174,-0.02861 1.47694,-0.61188 2.32134,-0.87866c0.82561,-0.26085 1.82827,-0.366 2.43133,-0.88302c0.78111,-0.66966 1.24162,-1.29415 1.934,-1.66899c0.94758,-0.51298 1.85811,-0.55238 2.475,-0.67466c1.01086,-0.20038 1.73014,-0.44966 2.47433,-0.76667c0.78182,-0.33302 1.56266,-0.73607 2.76483,-1.328c0.81987,-0.4037 1.24643,-0.61439 2.17917,-1c0.50267,-0.20781 1.03647,-0.43294 2.927,-1.00017c0.71204,-0.21364 1.46524,-0.40471 2.241,-0.6105c0.79357,-0.21053 1.59845,-0.4213 2.403,-0.6465c0.8008,-0.22415 2.35172,-0.70178 3.08383,-0.96384c0.70653,-0.2529 1.37712,-0.51912 2.0145,-0.78299c0.60625,-0.25098 1.70851,-0.729 2.20534,-0.94134l1.25917,-0.49016l0.9315,-0.2565l0.67949,-0.0945"/>
  <path fill="none" stroke="#000000" stroke-width="5" id="svg_6" d="m115,37c0.916,2.972 0.97265,3.6828 1.02533,4.45733c0.0565,0.83082 0.19195,2.1651 0.26,2.63067c0.14189,0.97066 0.32533,1.99467 0.41917,2.53083c0.09682,0.55317 0.39594,2.32412 0.49683,2.95184c0.10345,0.64362 0.20331,1.30235 0.43467,2.65066c0.11809,0.6882 0.23619,1.38405 0.53067,2.77867c0.14807,0.70126 0.31509,1.39921 0.486,2.0955c0.17043,0.69439 0.52306,2.06823 0.69467,2.74734c0.16971,0.67157 0.4905,1.9895 0.63116,2.63533c0.27308,1.25379 0.38677,1.86425 0.50067,2.45933c0.21879,1.1432 0.30778,1.69286 0.621,3.21983c0.09752,0.47544 0.30354,1.39377 0.53583,2.29334c0.11765,0.45559 0.52878,1.88325 0.68534,2.392c0.32738,1.06389 0.50466,1.60778 0.85333,2.70666c0.173,0.54523 0.35535,1.07849 0.80383,2.60784c0.27289,0.93053 0.39213,1.37982 0.61083,2.2575c0.21589,0.86639 0.51113,2.2064 0.61067,2.66799c0.20093,0.93181 0.39365,1.85746 0.6,2.74801c0.19404,0.8374 0.49726,1.9603 0.7,2.64849c0.19733,0.6698 0.51248,1.68421 0.7,2.41951c0.21433,0.84047 0.40525,1.87115 0.5,2.4775c0.10588,0.6776 0.30449,2.29003 0.39984,3.23783c0.10371,1.03085 0.19899,2.1304 0.28949,3.282c0.09328,1.18707 0.17781,2.39447 0.25351,3.606c0.07494,1.19914 0.19402,3.49785 0.23566,4.569c0.03953,1.01687 0.06703,1.98594 0.08551,2.913c0.01774,0.89095 0.02679,1.75199 0.03149,2.589c0.00461,0.81899 0.0045,2.427 0.0045,3.227c0,0.8 0,1.6 0,2.4c0,0.8 0,1.6 0,2.4c0,0.8 0,2.4 0,3.20016c0,0.80117 0,1.60434 0,2.41051c0,0.81016 0,1.62533 0,2.4465c0,0.82817 0.00049,2.5095 -0.00017,3.36399c-0.00067,0.8615 -0.00232,1.72702 -0.01049,2.59351c-0.00817,0.86452 -0.02166,1.72411 -0.0465,2.5755c-0.02453,0.84061 -0.10403,2.4769 -0.1645,3.26782c-0.05962,0.77977 -0.13578,1.55515 -0.22501,2.33402c-0.09071,0.79182 -0.19762,1.60299 -0.315,2.44198c-0.12251,0.87569 -0.40495,2.76601 -0.5595,3.79367c-0.16146,1.07367 -0.32826,2.17916 -0.4935,3.30301c-0.16577,1.12748 -0.32692,2.24494 -0.4755,3.33899c-0.14332,1.05528 -0.38154,2.99649 -0.46699,3.85817c-0.07812,0.78772 -0.13527,1.51016 -0.18151,2.17351c-0.04258,0.61102 -0.07442,1.17743 -0.10949,1.70549c-0.03303,0.49728 -0.11408,1.42706 -0.17317,1.87201c-0.05832,0.43909 -0.13053,0.87314 -0.204,1.30649c-0.07386,0.43563 -0.15209,0.87556 -0.222,1.32451c-0.07149,0.45907 -0.19096,1.42308 -0.23117,1.93249c-0.04125,0.52261 -0.06727,1.05389 -0.0855,1.58701c-0.01808,0.5289 -0.02676,1.04799 -0.0315,1.55099c-0.00453,0.48099 -0.0045,1.353 -0.0045,2.07834c0,0.858 0,1.94133 0,2.752c0,0.6465 0,1.61067 0,2.41466c0,0.822 0,2.08934 0,2.75384c0,1.02083 0,1.82083 0,2.62084c0,1.0045 0,1.85716 0,2.82133c0,0.80399 0,1.62599 0,2.65749c0,0.942 0,1.6905 0,2.56367c0,0.9975 0,1.67084 0,2.8575c0,0.79201 0.06587,1.70244 -0.00033,2.60049c-0.0573,0.77729 -0.43724,1.66582 -0.85034,2.57551c-0.29503,0.64967 -0.66189,1.24403 -1.0395,2.4615c-0.20199,0.65127 -0.38208,1.63606 -0.63066,2.38333c-0.26655,0.80128 -0.69764,1.78737 -0.95833,2.47917c-0.2551,0.67694 -0.43684,1.68401 -0.52084,2.5c-0.084,0.81599 -0.35413,2.0636 -0.54166,2.5625c-0.33176,0.8826 -0.7824,2.02181 -0.941,2.4735c-0.3382,0.96318 -0.5121,1.45924 -0.80751,2.45333c-0.39758,1.33791 -0.54049,2.068 -0.68899,2.9065l-0.1875,0.9375l-0.40801,0.75601"/>
  <path fill="none" stroke="#000000" stroke-width="5" id="svg_9" d="m207,80c0,1.85733 -0.00349,2.51884 0.00017,3.64333c0.00221,0.68001 0.00627,1.44075 0.05699,2.28c0.08533,1.41168 0.15759,1.92087 0.3,3c0.07529,0.57048 0.2535,1.77001 0.34734,2.4c0.09682,0.65001 0.29692,2.00981 0.39551,2.72017c0.10145,0.73097 0.20146,1.48414 0.29999,2.2605c0.10151,0.79997 0.20152,1.62516 0.3,2.4765c0.10156,0.87799 0.30083,2.71942 0.40018,3.68383c0.102,0.99025 0.20307,2.0028 0.31048,3.033c0.1089,1.04446 0.22202,2.09906 0.34651,3.159c0.12482,1.06273 0.40491,3.17769 0.56417,4.22217c0.15809,1.03687 0.32986,2.06458 0.50399,3.0855c0.17321,1.01541 0.35103,2.02504 0.52201,3.0315c0.17036,1.00288 0.49048,3.00386 0.63116,4.00467c0.14066,1.00055 0.26752,2.00395 0.3855,3.01049c0.11836,1.00981 0.22717,2.02515 0.3315,3.0465c0.10501,1.02798 0.30533,3.10943 0.40434,4.164c0.09966,1.06143 0.19756,2.12683 0.28949,3.19351c0.09174,1.06433 0.17778,2.12377 0.25351,3.17549c0.07491,1.04029 0.19412,3.07636 0.23583,4.06667c0.04089,0.97104 0.06945,1.92431 0.096,2.8605c0.02611,0.92015 0.04843,1.82541 0.07801,2.71651c0.02914,0.87823 0.1096,2.59978 0.16865,3.44432c0.05834,0.83415 0.1297,1.65582 0.20401,2.46451c0.07306,0.79498 0.15054,1.57454 0.222,2.3385c0.06986,0.74672 0.18993,2.18526 0.23116,2.8755c0.04001,0.66979 0.06709,1.3199 0.08551,1.95c0.01782,0.60993 0.02676,1.19998 0.03149,1.76999c0.00456,0.54999 0.0045,1.59001 0.0045,2.08101c0,0.477 0,0.946 0,1.41299c0,0.47101 0,0.952 0,1.44901c0,0.519 0,1.647 0,2.26567c0,0.65066 0,1.32533 0,2.01599c0,0.69867 0,1.39734 0,2.088c0,0.67466 0,1.944 0,2.52417c0,0.54117 0,1.04434 0,1.5105c0,0.43017 0,0.82533 0,1.1865l0,0.32816"/>
  <path fill="none" stroke="#000000" stroke-width="5" id="svg_10" d="m233,85c1.41066,-2.38533 1.8811,-2.97253 2.48933,-3.77067c0.58992,-0.77412 1.05269,-1.37498 2.01067,-2.22933c0.3522,-0.31411 1.16193,-0.90531 1.58667,-1.21067c0.87215,-0.62699 1.34518,-0.90676 2.58,-1.95599c0.40427,-0.34351 1.19199,-1.13021 1.64266,-1.55468c0.49931,-0.47029 1.07371,-0.98655 1.75351,-1.54049c0.77661,-0.63283 2.76359,-2.08172 4.00216,-2.90967c1.37412,-0.91856 2.88903,-1.87926 4.515,-2.8845c1.70719,-1.05545 3.49013,-2.12674 5.325,-3.2085c1.85843,-1.09566 5.59115,-3.24234 7.43017,-4.26983c1.80243,-1.00705 3.57755,-1.97566 5.33549,-2.883c1.71865,-0.88708 3.41626,-1.71879 5.1015,-2.469c1.64453,-0.73208 4.88638,-1.97274 6.48333,-2.463c1.55432,-0.47718 3.08579,-0.86327 4.57651,-1.188c1.4353,-0.31267 2.82126,-0.56044 4.1445,-0.774c1.25159,-0.20199 3.52362,-0.52111 4.53,-0.667c0.92563,-0.13419 1.77884,-0.26113 2.56949,-0.375c0.73636,-0.10605 1.42758,-0.20334 2.0835,-0.285c0.62811,-0.0782 1.84021,-0.19911 2.44119,-0.24034c0.60437,-0.04146 1.21725,-0.06998 1.84198,-0.096c0.64062,-0.02668 1.30139,-0.04928 1.98602,-0.078c0.71271,-0.02989 2.23819,-0.11105 3.056,-0.16866c0.84619,-0.05962 1.7081,-0.13 2.57398,-0.20401c0.85812,-0.07334 1.69601,-0.14934 2.50201,-0.222c0.76199,-0.06868 2.10584,-0.18778 2.66718,-0.23116c0.48803,-0.03772 0.91021,-0.06606 1.27349,-0.0855c0.3111,-0.01665 0.57731,-0.02659 0.80549,-0.0315c0.19714,-0.00425 0.52652,-0.0045 0.67166,-0.0045c0.13617,0 0.26434,0 0.38553,0c0.11514,0 0.22531,0 0.33148,0c0.10318,0 0.3045,-0.001 0.40451,0.00033c0.10003,0.00134 0.20053,0.00478 0.29999,0.021c0.1007,0.01643 0.20254,0.04511 0.30001,0.093c0.103,0.05062 0.30445,0.21512 0.39981,0.32867c0.10386,0.12363 0.19965,0.26904 0.28952,0.429c0.09403,0.16737 0.17865,0.3477 0.25348,0.537c0.07593,0.1921 0.19397,0.59024 0.23603,0.79116c0.04196,0.20048 0.07232,0.40445 0.10647,0.6105c0.03485,0.21029 0.13703,0.89471 0.58267,1.87467c0.25623,0.56346 0.79279,1.39449 1.09867,2.31467c0.29284,0.88103 0.28344,1.51076 0.50134,2.4c0.22406,0.9144 0.70126,1.82409 0.98132,2.508c0.30301,0.73999 0.61951,2.05524 0.68134,2.55067c0.13324,1.06782 0.15021,1.6454 0.18402,2.24533c0.07162,1.27047 0.14828,2.62963 0.20682,3.339c0.06006,0.72799 0.13336,1.47158 0.21451,2.229c0.08248,0.76992 0.17355,1.54946 0.26849,2.337c0.0957,0.7938 0.29568,2.39098 0.39551,3.1915c0.10019,0.80347 0.20068,1.61291 0.29999,2.4315c0.10073,0.83042 0.2012,1.67586 0.30001,2.5395c0.1012,0.88436 0.30124,2.72837 0.4,3.69266c0.10129,0.98904 0.20047,1.9983 0.29999,3.0225c0.10049,1.03413 0.19979,2.07336 0.30001,3.11251c0.09977,1.03418 0.29969,3.06752 0.39981,4.05816c0.09855,0.9747 0.19748,1.93716 0.28952,2.892c0.09162,0.95049 0.17844,1.90103 0.25348,2.856c0.07566,0.96238 0.19532,2.9278 0.23569,3.93734c0.04102,1.02514 0.06735,2.06261 0.08548,3.108c0.01819,1.04928 0.02686,2.09865 0.03153,3.144c0.00463,1.03733 0.00448,3.07199 0.00448,4.062c0,0.96999 0,1.92 0,2.85c0,0.90999 0,1.79999 0,2.67c0,0.84999 0.00052,2.48999 -0.00015,3.28116c-0.00067,0.77817 -0.00241,1.55035 -0.01053,2.3235c-0.00821,0.78119 -0.02231,1.57742 -0.04648,2.3955c-0.02502,0.84726 -0.10614,2.6567 -0.16434,3.62917c-0.06036,1.00888 -0.13244,2.03958 -0.2145,3.078c-0.08164,1.03293 -0.17069,2.04572 -0.2685,3.024c-0.09308,0.93105 -0.28973,2.59284 -0.39532,3.2985c-0.09372,0.62629 -0.19226,1.17967 -0.28952,1.66951c-0.08679,0.4371 -0.17517,0.82788 -0.25348,1.18348c-0.07233,0.3284 -0.19379,0.94004 -0.23618,1.24134c-0.04297,0.3054 -0.07568,0.62187 -0.117,0.9525c-0.04389,0.35107 -0.09598,0.72761 -0.17099,1.1325c-0.08188,0.44194 -0.32764,1.44905 -0.4975,2.02251c-0.18564,0.62677 -0.40631,1.30022 -0.64352,2.02499c-0.25373,0.77524 -0.52704,1.59903 -0.80548,2.47501c-0.29371,0.92396 -0.89185,2.92351 -1.18634,3.99815c-0.30436,1.11068 -0.59827,2.25168 -0.8895,3.4095c-0.29242,1.16252 -0.57489,2.32129 -0.85352,3.4635c-0.27203,1.11513 -0.7882,3.22109 -1.03582,4.19217c-0.23517,0.92223 -0.46708,1.80376 -0.69599,2.655c-0.22378,0.83209 -0.4501,1.65349 -0.67801,2.47501c-0.23074,0.83182 -0.71432,2.56491 -0.9685,3.483c-0.26187,0.94589 -0.52692,1.90802 -0.79349,2.87399c-0.26441,0.95804 -0.52344,1.89617 -0.77551,2.80201c-0.23993,0.86215 -0.67518,2.40638 -0.86701,3.06799c-0.17233,0.59434 -0.33218,1.13225 -0.48147,1.62601c-0.13978,0.46223 -0.27613,0.90397 -0.40952,1.33799c-0.13461,0.43798 -0.41913,1.37381 -0.57315,1.89267c-0.16339,0.55045 -0.33151,1.12529 -0.50403,1.71601c-0.1748,0.59861 -0.349,1.19741 -0.52197,1.78799c-0.16837,0.57477 -0.48544,1.64418 -0.63101,2.1245c-0.13446,0.44368 -0.26075,0.85279 -0.375,1.2315c-0.10569,0.3503 -0.20554,0.6745 -0.28501,0.97949c-0.20968,0.80483 -0.23929,1.74894 -0.44568,2.48851c-0.24215,0.86779 -1.25506,1.11612 -1.91598,0.48667c-0.53378,-0.50841 -1.0105,-1.32874 -1.30451,-2.01433c-0.34384,-0.80182 -0.86215,-1.98567 -1.18081,-2.58434l-0.35068,-0.59066l-0.56851,-0.8535"/>
  <path fill="none" stroke="#000000" stroke-width="5" id="svg_11" d="m238,118c0.88667,0.99867 1.85733,1 2.51883,1c1.12401,0 1.791,0 2.502,0c1.09651,0 2.15767,0 2.822,0c0.94651,0 2.15725,0.00731 2.76517,-0.00267c0.65619,-0.01077 1.41008,-0.05199 2.304,-0.168c1.09094,-0.14157 2.41896,-0.40233 3.185,-0.59316c0.85051,-0.21187 1.78383,-0.49027 2.799,-0.8535c1.12378,-0.40209 2.36178,-0.87016 5.104,-2.216c1.57053,-0.77079 3.20666,-1.6812 4.90949,-2.646c1.7467,-0.98966 3.48864,-2.01685 5.20651,-3.042c1.66839,-0.99563 3.24496,-1.96194 6.05066,-3.64533c1.16619,-0.6997 2.18069,-1.29917 3.06601,-1.80001c0.76315,-0.43171 1.42977,-0.79182 2.022,-1.08c0.5224,-0.2542 1.00094,-0.47314 1.91199,-0.78666c0.45153,-0.1554 0.91827,-0.28537 1.3905,-0.4185c0.47845,-0.13489 0.9646,-0.26588 1.45352,-0.4095c0.49475,-0.14533 0.99954,-0.28454 1.98932,-0.672c0.50446,-0.19748 0.99948,-0.43025 1.491,-0.672c0.48987,-0.24095 0.96783,-0.49372 1.43701,-0.744c0.45816,-0.24441 0.896,-0.49315 1.73865,-0.91733c0.38876,-0.1957 0.76834,-0.36895 1.14151,-0.5325c0.37219,-0.16312 0.75445,-0.32135 1.15051,-0.48751c0.4183,-0.17549 0.86865,-0.35922 1.87466,-0.81333c0.57508,-0.25959 1.18552,-0.55028 1.8255,-0.8535c0.65735,-0.31145 1.31943,-0.62756 1.97849,-0.9345c0.64132,-0.29868 1.24902,-0.59463 2.36267,-1.04533c0.46768,-0.18928 0.88614,-0.33282 1.25699,-0.4425c0.32547,-0.09626 0.6174,-0.16467 0.879,-0.2175c0.45498,-0.0919 1.25647,-0.31753 2.1,-0.58134c0.92191,-0.28832 1.71823,-0.30236 2.46668,-0.45066c1.14285,-0.22645 0.85415,-1.07484 0.23483,-1.4955l-0.62549,-0.3645"/>
  <path fill="none" stroke="#000000" stroke-width="5" id="svg_12" d="m284,76c2.16666,8.66666 2.41562,9.45959 2.68668,10.23333c0.26901,0.76796 0.55651,1.52803 0.85498,2.28751c0.30151,0.76722 0.61932,1.54193 0.945,2.33249c0.67859,1.64724 1.03391,2.51112 1.4,3.39867c0.37387,0.90646 0.75579,1.8258 1.155,2.748c0.40078,0.92584 0.80786,1.84779 1.24499,2.748c0.85638,1.76367 1.32788,2.59201 1.79868,3.4c0.46499,0.79803 0.94888,1.57712 1.43551,2.352c0.48804,0.77713 0.98935,1.55446 1.4805,2.352c1.01044,1.6408 1.5033,2.513 2.01199,3.42133c0.53479,0.95493 1.09131,1.97445 1.69501,3.06001c0.64948,1.16786 1.35437,2.42852 2.14499,3.77999c1.79315,3.06523 2.85379,4.76579 3.98132,6.56534c1.16828,1.8646 2.37159,3.74687 3.582,5.613c1.18168,1.82181 2.31986,3.55747 3.40201,5.163c1.83423,2.72133 2.57266,3.75651 3.18534,4.584c0.48526,0.65541 0.87423,1.15011 1.1835,1.503c0.22213,0.25348 0.39074,0.41385 0.50851,0.513c0.13556,0.11415 0.18613,0.16472 0.21997,0.22933c0.03504,0.06684 0.05869,0.14134 0.08402,0.216c0.02533,0.07466 0.04645,0.15054 0.08401,0.216c0.07141,0.12447 0.13419,0.16892 0.19998,0.19466c0.06626,0.02592 0.14371,0.03015 0.21601,0.00601c0.07837,-0.02617 0.15805,-0.08472 0.216,-0.17401c0.14676,-0.22609 0.16727,-0.40633 0.19998,-0.59866c0.0365,-0.21469 0.05918,-0.45195 0.08402,-0.7065c0.05374,-0.55089 0.15228,-1.44058 0.35266,-2.342c0.13751,-0.6186 0.39859,-1.57592 0.52585,-2.61683c0.08911,-0.72873 0.10766,-1.47855 0.117,-2.226c0.01791,-1.43123 0.00449,-2.10001 0.00449,-3.078c0,-0.65866 0,-1.69634 0,-2.43634c0,-0.77999 0,-1.6 0,-2.90499c0,-0.916 0,-1.848 0,-2.3125c0,-0.91101 0.01336,-2.18767 -0.00266,-2.94884c-0.02127,-1.01003 0.00394,-1.64947 -0.44,-2.65067c-0.32703,-0.73752 -0.85202,-1.374 -1.31485,-2.343l-0.20248,-0.825l-0.12668,-0.59999"/>
  <path fill="none" stroke="#000000" stroke-width="5" id="svg_13" d="m300,66c1.63599,0.64667 2.3215,1.3215 2.836,1.836c0.56851,0.5685 1.36398,1.36401 1.96399,1.964c0.40002,0.40001 1.19314,1.207 1.80002,1.7955c0.59338,0.57542 1.38333,1.26338 2,1.64734c0.78027,0.48584 1.79733,0.95716 2.35833,1.25716l0.79883,0.59983l0.46433,0.77884"/>
  <path fill="none" stroke="#000000" stroke-width="5" id="svg_14" d="m307,109c-1.3045,3.53833 -1.56198,4.22086 -2.32132,4.979c-0.46295,0.46219 -1.26248,1.03584 -1.65717,1.78533c-0.47039,0.89323 -0.61261,1.63116 -0.82019,2.35434c-0.30407,1.05925 -0.60272,2.05928 -0.83731,2.70666c-0.23993,0.66216 -0.67944,1.69938 -1.02566,2.44084c-0.37332,0.79949 -0.79947,1.65293 -1.02503,2.10583c-0.73269,1.47122 -0.996,1.99333 -1.2615,2.52433c-0.53098,1.062 -0.7905,1.58101 -1.04199,2.084c-0.67649,1.353 -1.017,2.09103 -1.48899,2.93634c-0.38464,0.68887 -1.00485,1.482 -1.52084,2.0625l-0.51599,0.53549l-0.83734,0.86"/>
  <path fill="none" stroke="#000000" stroke-width="5" id="svg_15" d="m253,125c2,1.02084 2.31161,1.85495 2.86133,2.38533c0.63205,0.60983 1.27988,1.37169 1.61783,2.1355c0.34723,0.78482 0.71276,1.80086 1.04168,2.5c0.35443,0.75332 0.80271,1.62091 1.13184,2.289c0.3497,0.70984 0.71097,1.43481 1.18066,2.5235c0.29151,0.67569 0.64185,1.62649 0.86215,2.205c0.39719,1.04292 0.82639,1.92624 1.01917,2.56033c0.29492,0.97002 0.28534,1.89334 0.28534,1.00135c0,-0.90451 0,-1.76668 0,-2.66251c0,-0.7095 0,-1.58 0,-2.5775c0,-0.67334 0,-1.86 0,-2.65201c0,-1.01249 0,-1.87466 0,-2.72882c0,-0.97917 0,-1.76851 0,-2.49383c0,-1.00617 -0.01666,-2.02845 0.01068,-2.736c0.02878,-0.7449 0.39026,-1.90879 0.70532,-2.54667c0.43772,-0.8862 0.9158,-1.58623 1.61734,-2.03601c0.76483,-0.49035 1.86667,-0.38849 2.47733,-0.59199c0.87442,-0.29139 1.87185,-0.51179 2.68933,-0.55383c0.81515,-0.04193 1.81601,-0.02084 2.5,-0.02084c1.16665,0 1.95715,0 2.81067,0c0.59067,0 1.78665,0 2.64767,0c0.771,0 1.86966,-0.00008 2.74167,0c0.89981,0.00008 1.61426,0.33109 2.02133,1.1c0.40103,0.75753 0.79294,1.53609 0.77732,2.38534c-0.01334,0.72603 -0.22538,1.7128 -0.49866,2.51466c-0.34006,0.99774 -0.42679,1.83307 -0.66699,2.45717c-0.3898,1.01282 -0.89759,1.51045 -1.39551,2.0845c-0.54349,0.62658 -1.44116,1.62194 -2.03751,2.34099c-0.30185,0.36397 -0.88461,1.10979 -1.5,1.80751c-0.87844,0.99594 -1.48974,1.54991 -2.08932,2.03783c-0.56644,0.46097 -1.14258,0.84828 -2.12534,1.67067c-0.67666,0.56625 -1.05069,0.98498 -2.08267,1.716c-0.54593,0.38672 -1.06848,1.26299 -1.82416,1.76383c-0.73898,0.48976 -1.1315,0.29304 -0.35718,0.0895c0.9914,-0.2606 1.59357,-1.0296 2.09952,-1.50967c0.53641,-0.50899 1.31815,-1.28609 2.01749,-2.00116c0.42346,-0.433 1.01068,-1.03064 1.70901,-2.05718c0.39887,-0.58631 0.88221,-1.43289 1.40983,-1.99099c0.70095,-0.74144 1.54266,-1.16617 2.32199,-1.38817l0.99933,-0.24233l0.61084,-0.38917l0.71066,-0.68483"/>
  <path fill="none" stroke="#000000" stroke-width="5" id="svg_16" d="m256,158c2.47916,-0.5 3.30408,-0.94984 4.16666,-1c0.83297,-0.04843 1.74893,-0.26628 2.3125,-1.04167c0.37957,-0.52223 0.76165,-1.60364 1.19284,-2.12233c0.76226,-0.91693 1.58572,-1.20859 2.11334,-1.42534c1.04117,-0.42772 1.78702,-0.66348 2.61017,-1.16783c0.83807,-0.51349 1.39816,-1.10706 2.11883,-1.59017c0.79105,-0.53029 1.45169,-0.7778 2.5065,-1.15266c0.72876,-0.259 1.82303,-0.64508 2.48984,-0.98399c0.63196,-0.32122 1.51184,-0.76723 2.125,-1.49434c0.6488,-0.76941 1.26471,-1.06963 2.02148,-1.37883c0.76291,-0.31171 1.74152,-0.84151 2.50684,-1.20684l0.81448,-0.31466l0.82019,-0.20534"/>
  <path fill="none" stroke="#000000" stroke-width="5" id="svg_17" d="m232,188c1.84666,0 2.68666,0 3.68666,0c0.85501,0 1.47501,0 2.83501,0c0.74,0 1.52,0 2.33999,0c1.30501,0 1.76033,0 2.709,0c1.01267,0 1.54801,0 2.10534,0c1.824,0 2.4885,0.00079 3.18,-0.00133c0.7155,-0.00218 1.45203,-0.00699 2.2065,-0.0195c0.76955,-0.01277 1.55124,-0.03029 2.34151,-0.0645c1.59657,-0.06912 2.39827,-0.12991 3.20933,-0.20534c0.83237,-0.0774 1.69452,-0.17965 2.595,-0.3135c0.95301,-0.14167 1.96573,-0.31685 3.04499,-0.5385c2.41906,-0.49683 3.76135,-0.83798 5.18802,-1.19466c1.49108,-0.37277 3.0231,-0.77295 4.57949,-1.1835c1.56229,-0.41211 3.1091,-0.82776 4.62448,-1.2285c2.85364,-0.75462 4.16108,-1.09062 5.39469,-1.39467c1.17145,-0.28873 2.29874,-0.55363 3.39749,-0.7935c1.0813,-0.23605 2.16348,-0.45709 3.26251,-0.65849c2.29694,-0.42093 3.52628,-0.60724 4.79465,-0.80135c1.28927,-0.1973 2.5823,-0.38388 3.85949,-0.56099c1.24152,-0.17216 2.42926,-0.33073 3.54453,-0.47101c1.93393,-0.24324 2.7215,-0.32922 3.39066,-0.40133c0.56286,-0.06066 1.03213,-0.1066 1.419,-0.1485c0.31711,-0.03435 0.57764,-0.06005 0.789,-0.1035c0.33924,-0.06975 0.4831,-0.13457 0.61731,-0.20133c0.13019,-0.06476 0.25012,-0.14018 0.3645,-0.216c0.11094,-0.07353 0.21436,-0.15044 0.31952,-0.216c0.19776,-0.12326 0.30027,-0.16506 0.4,-0.2c0.09604,-0.03366 0.19067,-0.05867 0.28048,-0.084l0.08484,-0.02533l0.07883,-0.02734"/>
  <path fill="none" stroke="#000000" stroke-width="5" stroke-dasharray="null" stroke-linejoin="null" stroke-linecap="null" id="svg_29" d="m552,62c0,1.82533 0,2.83334 0,3.62534c0,1.03183 0,1.77916 0,2.77466c0,0.8 0,1.80016 0,2.62084c0,0.66449 0,1.66849 0,2.5625c0,0.69266 0.00226,1.91667 -0.00134,2.87266c-0.00196,0.5155 -0.01673,1.60658 -0.03467,2.176c-0.01837,0.5816 -0.12555,2.36849 -0.18567,2.9675c-0.05994,0.59703 -0.21539,1.77018 -0.32001,2.338c-0.2016,1.09454 -0.2821,1.62772 -0.77966,2.99817c-0.29468,0.81158 -0.68744,1.51827 -1.026,2.208c-0.49902,1.01668 -0.77582,1.73924 -1.02734,2.49233c-0.25794,0.77226 -0.48304,1.57523 -0.94648,2.7635c-0.30963,0.794 -0.6632,1.53568 -0.96899,2.229c-0.38306,0.86864 -0.59967,1.87559 -0.18903,1.32984c0.5564,-0.73945 1.02021,-1.48623 1.36451,-2.013c0.63702,-0.97466 0.94317,-1.63036 1.28936,-2.30534c0.34449,-0.67171 0.95014,-1.86583 1.30451,-2.61916c0.32892,-0.69914 0.71301,-1.70648 1.02081,-2.5c0.2926,-0.75441 0.66724,-1.58422 1.20801,-2.20751c0.74396,-0.8575 1.34533,-1.36667 1.97864,-2c0.33416,-0.33417 1.01196,-1.01304 1.98004,-1.97999c0.56232,-0.56166 1.03839,-1.07632 1.7243,-1.66717c0.78375,-0.67512 1.45099,-0.97302 2.12366,-1.55017c0.81793,-0.7018 1.19525,-1.38557 1.62536,-1.80267c0.80402,-0.77965 1.56916,-1.27067 2.3808,-1.7925c0.41089,-0.26418 1.224,-0.75939 2.31488,-1.378c0.59485,-0.33733 1.37921,-0.7389 2.331,-1.3095c0.79992,-0.47955 1.36334,-0.86249 1.9378,-1.295c0.91052,-0.6855 1.49585,-1.21919 2.08484,-1.753c0.57623,-0.52224 1.63196,-1.46848 2.12402,-1.81467c0.82087,-0.5775 1.66517,-1.07083 2.276,-1.60666l0.5105,-0.68534l0.37934,-0.67866"/>
  <path fill="none" stroke="#000000" stroke-width="5" stroke-dasharray="null" stroke-linejoin="null" stroke-linecap="null" id="svg_30" d="m571,40c0,2.6045 0,3.45717 0,4.4215c0,0.8145 0,1.683 0,2.87867c0,0.60433 0,1.53583 0,2.18516c0,1.40267 0,2.172 0,2.99734c0,0.43617 0,1.85066 0,2.88666c0,0.5405 0,1.092 0,2.21601c0,0.56649 0,2.24799 0,2.79299c0,1.06 0,1.57501 0,2.57501c0,0.95999 0,1.88 0,2.75999c0,0.84001 0,1.64 0,2.40001c0,1.40132 0,2.05066 0,2.98216c0,0.9045 0,1.8135 0,2.44616c0,1.029 0,2.20118 0,3.06817c0,0.4515 0.00006,1.37551 0,2.30751c-0.00012,1.361 0.00726,1.79613 -0.01068,2.636c-0.01709,0.80022 -0.14197,2.28256 -0.27332,2.96266c-0.12774,0.66145 -0.39813,1.6309 -0.54931,2.65067c-0.10584,0.71413 -0.14063,1.4584 -0.15601,2.208c-0.02997,1.4584 0.00849,2.14231 -0.03204,2.8c-0.06043,0.98054 -0.2948,1.99785 -0.54663,2.70933c-0.26477,0.74792 -0.61353,1.47919 -0.86402,2.232c-0.45837,1.37755 -0.46844,2.03255 -0.61615,2.86516c-0.18768,1.05787 -0.75256,1.66394 -0.93103,2.53968c-0.19232,0.94399 0.08765,1.83364 -0.02533,2.722c-0.11151,0.87713 -0.73779,1.42205 -1.3955,2.16783c-0.63837,0.72386 -0.99958,1.46052 -1.4715,2.051c-0.58966,0.73777 -1.17566,1.22963 -1.81513,1.76367c-0.66699,0.55702 -1.3554,1.08022 -2.27069,1.85316c-0.5426,0.4582 -1.2799,1.12844 -1.81067,1.52016c-0.85394,0.63022 -1.53314,1.00461 -2.23199,1.3805c-0.69055,0.3714 -1.96124,0.99152 -2.73865,1.3955c-0.71338,0.37072 -1.43878,0.77521 -2.20502,1.278c-0.77014,0.50538 -1.54077,1.19251 -2.03552,1.8265c-0.57251,0.73364 -1.16803,1.21056 -2.1355,1.43551c-0.86633,0.20142 -1.66516,0.20523 -2.48529,0.66c-0.76135,0.42219 -0.39959,0.4507 0.39997,0.42533c0.90136,-0.02859 1.58471,-0.47259 2.3667,-1c0.63885,-0.43087 1.39544,-0.73982 2.208,-1.41067c0.8443,-0.69707 1.28699,-1.251 1.87195,-1.836c0.44,-0.44001 1.43891,-1.44248 2.01068,-2c0.3039,-0.29631 0.95148,-0.92623 2.07599,-1.91999c0.40558,-0.35843 1.26605,-1.07883 1.70667,-1.43734c0.43774,-0.35615 1.28241,-1.04965 2.46002,-1.896c0.63342,-0.45525 1.24322,-0.69743 1.92535,-1.296c0.70331,-0.61714 1.45569,-1.31614 1.98981,-1.504c0.91242,-0.32092 1.5733,-0.41564 2.72235,-1c0.69043,-0.35114 1.63599,-0.8991 2.14514,-1.12133c0.88623,-0.38681 1.89399,-0.89607 2.60004,-1.348c0.74286,-0.47547 1.10547,-0.73969 1.8075,-1.2825c0.98944,-0.76506 1.53912,-1.2615 2.26812,-1.90651l0.63904,-0.555"/>
  <path fill="none" stroke="#000000" stroke-width="5" stroke-dasharray="null" stroke-linejoin="null" stroke-linecap="null" id="svg_31" d="m552,130c0,1.8 0.0014,2.6815 0.56934,3.48534c0.40417,0.57203 0.99926,1.08023 1.54669,1.91999c0.42547,0.65274 0.77917,1.53177 1.20532,2.68016c0.16705,0.45023 0.50501,1.42614 0.67865,1.93534c0.34949,1.02495 0.51508,1.52881 0.97852,2.9145c0.26379,0.78884 0.48394,1.48751 0.82012,2.37534c0.38245,1.01002 0.76954,1.86278 1.30121,2.668c0.4386,0.66427 1.09082,1.54402 0.8385,2.31149c-0.25921,0.7885 -0.90191,0.06246 -0.94287,-0.95183c-0.03235,-0.80108 -0.20605,-1.76234 -0.42083,-2.55299c-0.21149,-0.77844 -0.52607,-1.81282 -0.57013,-2.53351c-0.05548,-0.90735 0.0329,-1.68292 -0.28986,-2.64917c-0.25342,-0.75861 -1.25366,-1.33687 -1.62933,-2.172c-0.32276,-0.7174 -0.08545,-1.67349 -0.08533,-2.63066c0.00012,-0.89984 0.35632,-1.56994 1.09998,-2.02166c0.68994,-0.4191 1.08264,-1.27524 1.53601,-1.989c0.50995,-0.80289 1.00146,-1.41394 1.61065,-1.98934c0.88636,-0.8372 1.42005,-1.22346 2.25336,-1.75833c0.53674,-0.3445 1.57447,-0.81473 2.45831,-1.02084c0.87146,-0.20323 1.56849,-0.76979 2.44172,-0.98483c0.86999,-0.21424 1.58197,0.39943 1.59997,1.264c0.01892,0.90779 0.00214,1.743 0,2.7c-0.00201,0.912 -0.00531,1.44331 -0.03198,2.01601c-0.05817,1.24896 -0.1225,1.91333 -0.224,2.59199c-0.20904,1.39768 -0.39154,2.09599 -0.59869,2.78533c-0.40979,1.36367 -0.6789,2.00585 -0.94135,2.62667c-0.25256,0.59749 -1.0263,2.15317 -1.28247,2.57233c-0.44556,0.72914 -1.06927,1.56783 -1.92151,2.241c-0.57403,0.45343 -1.2503,0.77232 -2,1.5c-0.6419,0.62304 -0.92718,1.1911 -1.51465,1.81334c-0.77514,0.82104 -1.57061,1.60159 -0.78082,1.84883c0.8551,0.26768 1.65399,-0.53737 2.46216,-0.82883c0.79944,-0.28831 1.79388,-0.42097 2.42267,-0.74133c0.88788,-0.45236 1.81067,-0.42534 2.70611,-0.42984l0.66852,-0.43151"/>
  <path fill="none" stroke="#000000" stroke-width="5" stroke-dasharray="null" stroke-linejoin="null" stroke-linecap="null" id="svg_32" d="m508,70c1.75717,0 2.66351,-0.05329 3.40451,0.05717c1.00888,0.15038 1.78958,0.5066 2.57413,1.04283c0.67486,0.46125 1.49981,1.11272 2.23205,1.5c0.78223,0.41372 1.57862,0.78934 2.30396,1.11467l0.94366,0.28533l0.53101,0.61066l0.03149,0.8685"/>
  <path fill="none" stroke="#000000" stroke-width="5" stroke-dasharray="null" stroke-linejoin="null" stroke-linecap="null" id="svg_33" d="m506,115c11.5,-1.83334 13.02924,-2.11025 13.672,-2.24733c0.57312,-0.12222 1.55279,-0.30729 2.26001,-0.63667c1.06421,-0.49567 1.68078,-1.63592 2.06347,-1.34533c0.706,0.53612 0.05622,1.63543 -0.00079,2.63733c-0.04095,0.72007 -0.31757,1.71098 -0.66138,2.592c-0.20794,0.53279 -0.7503,1.72625 -1.05597,2.37334c-0.31628,0.66963 -0.64685,1.34724 -0.98101,2.02499c-0.32984,0.66891 -0.96076,1.93614 -1.52698,3.06033c-0.25848,0.5132 -0.49731,1.00306 -0.98401,1.89867c-0.45801,0.84284 -0.94458,1.64751 -1.46802,2.44134c-0.52459,0.7956 -0.80975,1.17182 -1.30749,1.94416c-0.69519,1.07869 -1.05255,1.76308 -1.46814,2.69467c-0.35041,0.78552 -0.90198,1.50513 -1.25635,2.35983c-0.33002,0.79604 0.5755,1.18467 1.54797,1.20267c0.79187,0.01466 1.81934,0 2.51404,0c1.01666,0 1.97504,-0.19809 2.85132,0.00133c0.80426,0.18303 0.80133,1.20001 0.80133,2.16534c0,0.69066 0.00903,1.60538 -0.00031,2.47583c-0.01068,0.99767 0.11042,1.72621 -0.333,2.8575c-0.27161,0.69293 -0.94501,1.11073 -1.5,2c-0.5044,0.80818 -0.63349,1.51407 -0.91938,2.142c-0.51086,1.12221 -1.10968,1.65527 -1.65179,2.216c-0.8382,0.86699 -1.20392,1.50408 -1.59552,2.18367c-0.40887,0.70963 -0.98975,1.79779 -1.40131,2.47299c-0.39953,0.65544 -0.81982,1.28595 -1.28405,1.88401c-0.71369,0.91938 -1.27137,1.50622 -1.83548,2.12216c-0.58319,0.63675 -1.48279,1.64282 -1.77915,2.00084c-0.60748,0.73387 -1.20352,1.51742 -1.5,1.925c-0.60724,0.83478 -1.20468,1.71698 -1.79733,2.63333c-0.29599,0.45767 -0.86047,1.35785 -1.13068,1.78667c-0.5003,0.79399 -1.27435,2.01382 -1.73034,2.55c-0.60721,0.71396 -1.23493,1.82775 -2.10566,1.53667c-0.74615,-0.24944 -0.46456,-1.61107 -0.15066,-2.43733c0.27115,-0.71369 0.81958,-1.74024 1.41467,-2.15435c0.80414,-0.55957 1.69998,-0.79766 2.29999,-1.36166c0.60001,-0.564 1.5,-0.97917 2.38934,-1.01067l0.58982,-0.51016"/>
  <path fill="none" stroke="#000000" stroke-width="5" stroke-dasharray="null" stroke-linejoin="null" stroke-linecap="null" id="svg_35" d="m516,151c1.40002,0.86133 1.74017,1.56323 2.41065,2.37466c0.69744,0.84409 1.242,1.27802 1.76403,1.80001c0.80432,0.8042 1.35736,1.35742 1.88001,1.79466c0.98364,0.82292 1.31555,1.04669 2.00781,1.57234c0.74957,0.56917 1.93762,1.45818 2.33765,1.7585c0.80462,0.60403 1.21148,0.90924 2.03583,1.53583c0.42169,0.32052 1.73071,1.33069 2.18518,1.685c0.927,0.72268 1.39099,1.0863 1.85803,1.43733c0.90613,0.68109 1.32348,1.03221 2.57745,1.77717c0.7052,0.41898 1.37183,0.67652 2.17005,1.0605c0.98346,0.47309 1.55224,0.95867 2.54132,1.40267c0.71515,0.32104 1.44616,0.61543 2.57068,0.76533c0.82153,0.10952 1.76007,0.04477 2.51867,0.292c1.03308,0.33667 1.81012,0.80551 2.23999,1.03067c0.89972,0.47126 1.3396,0.75405 2.73597,1.38c0.86737,0.38882 1.29736,0.52861 2.10418,0.79166c0.74085,0.24153 2.02033,0.63917 2.79053,0.931c0.66376,0.25149 1.67102,0.55784 2.508,0.6c0.92956,0.04683 1.71215,0.01067 2.75415,0.01067c0.867,0 1.75799,0 2.67596,0c0.85272,0 1.66717,0 2.6347,0c0.67835,0 1.64582,0 2.64582,0c0.85418,0 1.82269,0 2.57416,0c0.7965,0 2.02557,0.03834 2.66851,-0.036c1.02057,-0.11801 1.8172,-0.43902 2.64399,-0.964c0.75647,-0.48035 1.29608,-0.90656 2.15216,-1.32134c0.72119,-0.34942 1.53546,-0.67843 2.36102,-1.026c1.15362,-0.48567 1.82483,-0.72026 2.591,-1.17349c0.68573,-0.40564 1.25092,-1.03345 1.91584,-1.75117c0.51721,-0.55828 1.1466,-1.16857 1.97998,-1.728c0.95672,-0.64223 1.52325,-0.89539 2.0827,-1.17867c0.56097,-0.28405 1.6654,-0.80307 2.17865,-1.05067c1.28174,-0.61835 2.14606,-1.11237 2.80701,-1.63316c0.78216,-0.61631 1.43664,-1.19098 1.81347,-1.5045c0.8078,-0.67212 1.23236,-1.01478 2.03418,-1.75167c0.76313,-0.70134 1.39203,-1.39332 1.92133,-2.024l0.6015,-0.8385l0.48498,-0.87582l0.25751,-0.72167"/>
  <path fill="none" stroke="#000000" stroke-width="5" stroke-dasharray="null" stroke-linejoin="null" stroke-linecap="null" id="svg_36" d="m81,279c1.8,0 2.56757,0.00867 3.5,-0.16666c0.86809,-0.1632 1.52698,-0.33288 2.53333,-0.63467c0.9301,-0.27893 1.70228,-0.63339 2.472,-0.84149c1.12146,-0.30319 1.80539,-0.30036 2.51551,-0.37802c0.73202,-0.08008 2.16771,-0.40042 2.84449,-0.698c0.72868,-0.3204 1.51381,-0.75177 1.96,-0.96915c1.00317,-0.48874 2.19181,-0.9971 2.83351,-1.25567c0.65563,-0.26419 1.31899,-0.51831 1.9785,-0.75901c0.64088,-0.23388 2.35632,-0.82168 3.25466,-1.04266c0.71945,-0.17697 1.35438,-0.24127 2.608,-0.42133c0.75357,-0.10824 1.57758,-0.26184 2.424,-0.444c0.41882,-0.09012 1.91446,-0.48044 2.5045,-0.68484c0.74338,-0.25754 2.17011,-1.44574 2.6635,-0.69382c0.09935,0.1514 -0.60244,0.63098 -1.07733,1.38931c-0.52587,0.83969 -1.28752,1.14377 -1.77283,1.92267c-0.48238,0.77417 -0.61833,1.48993 -0.8365,1.87601c-0.89616,1.58581 -1.39336,2.19485 -1.88751,2.879c-0.52297,0.72406 -1.07857,1.46533 -1.6485,2.21701c-0.5704,0.75232 -1.1381,1.48739 -2.20266,2.87198c-0.48085,0.62539 -0.9247,1.2048 -1.3335,1.74301c-0.37916,0.49917 -0.72989,0.96466 -1.0545,1.401c-0.30433,0.40906 -1.11715,1.51907 -1.59066,2.20132c-0.43544,0.62741 -1.16015,1.38989 -1.44468,2.34485c-0.245,0.8223 0.77734,1.13272 1.73551,1.14316c0.83095,0.00903 1.79131,0.01926 2.542,-0.02084c0.79796,-0.04264 1.7921,-0.26841 2.66849,-0.55384c0.80911,-0.26352 1.6529,-0.40338 2.43934,-0.42083c1.03775,-0.02305 1.906,-0.00449 2.862,-0.00449c0.4885,0 1.4415,0 2.676,0c0.8385,0 1.2205,-0.10101 0.42266,0.44665c-0.5336,0.36631 -1.26348,1.22519 -1.67266,1.65751c-0.49693,0.52502 -1.41751,1.56176 -1.78083,1.98117c-0.8002,0.92373 -1.2211,1.41723 -1.65667,1.91467c-0.43775,0.49991 -0.85063,1.01599 -2.14583,2.33334c-0.38216,0.38871 -1.10623,1.04813 -1.77084,1.58332c-0.58913,0.47442 -1.63904,1.28665 -2.12333,1.68783c-0.76838,0.63651 -1.36757,1.09882 -2.10583,1.56217c-0.86035,0.53994 -1.35527,0.79464 -2.39584,1.35418c-0.543,0.292 -1.0996,0.58127 -1.6575,0.8805c-1.6618,0.89126 -2.1916,1.19433 -2.70933,1.48965c-0.98913,0.56421 -1.45055,0.83951 -2.31334,1.33835c-1.09101,0.6308 -1.94647,1.10419 -2.64382,1.46167c-0.81007,0.41525 -1.57258,0.84262 -2.59184,1.18765c-0.72285,0.24469 -1.45594,1.35376 -0.855,1.95468c0.60093,0.60093 1.66642,0.35791 2.53333,0.1095c0.89659,-0.25693 1.6285,-0.79401 2.3625,-0.9845c0.71704,-0.18609 1.58483,-0.61483 2.24733,-1.01635c0.71596,-0.43393 1.40815,-0.95517 2.52351,-1.44199c0.66526,-0.29034 1.6693,-0.46576 2.31933,-0.60083c1.01856,-0.21164 1.73913,-0.45135 2.47267,-0.77118c0.75786,-0.33044 1.4964,-0.72055 2.55466,-1.32849c0.70723,-0.40628 1.48389,-0.86713 1.93334,-1.10751c1.04699,-0.56 2.38487,-1.19593 3.1795,-1.55615c0.86789,-0.39347 1.80255,-0.80094 2.7885,-1.22251c1.02168,-0.43686 2.06986,-0.87527 3.13049,-1.3125c1.05803,-0.43613 3.12111,-1.26849 4.10284,-1.65832c0.94895,-0.3768 1.87522,-0.7403 2.784,-1.10251c0.90188,-0.35947 1.80412,-0.72318 2.712,-1.10251c0.92683,-0.38727 2.8577,-1.23377 3.874,-1.70114c1.04777,-0.48184 2.10835,-0.98462 3.17401,-1.49103c1.05835,-0.50293 2.09494,-0.99954 3.10199,-1.47299c0.961,-0.45178 2.70352,-1.24488 3.46667,-1.56482c0.68248,-0.28613 1.29625,-0.52457 1.842,-0.72751c0.47972,-0.17841 0.90134,-0.32666 1.26601,-0.45749l0.31266,-0.11584"/>
  <path fill="none" stroke="#000000" stroke-width="5" stroke-dasharray="null" stroke-linejoin="null" stroke-linecap="null" id="svg_37" d="m103,245c1.7,0.11433 2.37161,0.67468 2.71467,1.51733c0.33781,0.82976 0.52852,1.7976 0.80617,2.6285c0.19937,0.59665 0.48651,1.85284 0.57899,2.3835c0.2126,1.21985 0.29415,1.90745 0.37933,2.63734c0.08973,0.76879 0.17123,1.57405 0.23551,2.412c0.1345,1.75354 0.16794,2.66352 0.2,3.58667c0.03231,0.93088 0.05177,1.86396 0.06449,2.793c0.01259,0.91895 0.01757,1.82199 0.01951,2.70301c0.00367,1.67199 0.00225,2.45233 0,3.19464c-0.00214,0.70636 -0.00647,1.37875 -0.01951,2.01901c-0.01242,0.61038 -0.02875,1.19308 -0.06449,1.74899c-0.06712,1.04367 -0.18532,2.00925 -0.35067,2.91468c-0.16046,0.87872 -0.36837,1.74331 -0.564,2.62799c-0.20181,0.91262 -0.39084,1.82638 -0.47916,2.27084c-0.1665,0.8378 -0.44143,2.17285 -0.5,3.02084c-0.07474,1.08213 -0.02084,1.80298 -0.02084,2.59348c0,1.02685 0,1.72284 0,2.63217c0,0.99869 0,1.79517 0,2.54666c0,1.11869 0,2.10269 0,2.77469c0,0.98932 0,2.02533 0,2.74283c0,0.91348 0,1.7135 0,2.673c0,0.79349 0,1.80948 0,2.7645c0,0.91434 0,1.81433 0,2.52234c0,1.056 0,1.96799 0,2.616c0,1.17599 0,1.97866 0,2.84265c0,0.83334 0,1.81183 0,2.63202c0,0.83731 0,1.854 0,2.54864c0,1.02734 0,1.97418 0,2.67352c0,0.97916 0,1.95832 0,2.8125c0,0.86216 0,1.76667 0,2.66666c0,0.89999 0,1.79999 0,2.70001l0,0.9l0,0.89999l0,0.79999"/>
  <path fill="none" stroke="#000000" stroke-width="5" stroke-dasharray="null" stroke-linejoin="null" stroke-linecap="null" id="svg_38" d="m128,266c1.8,0 2.72603,0.1676 3.52083,-0.04166c0.8677,-0.22842 1.40829,-0.87381 2.04983,-1.25167c0.86675,-0.51053 2.0932,-1.04691 2.8425,-1.34916c0.82248,-0.33178 1.70806,-0.66091 2.6295,-0.99752c0.93557,-0.34177 1.8683,-0.67249 2.7735,-0.9975c0.8588,-0.30835 2.35278,-0.85681 2.94734,-1.09781c0.49979,-0.20258 0.91292,-0.37802 1.2405,-0.54602c1.01327,-0.51963 1.82606,-1.02655 1.64334,-0.95166c-0.77252,0.31659 -0.60269,1.6553 -0.90201,2.37301c-0.36183,0.86759 -0.8147,1.58988 -1.05333,2.004c-0.51938,0.90134 -0.80424,1.37476 -1.692,2.85599c-0.29941,0.49957 -0.89187,1.48425 -1.18933,1.95734c-0.5678,0.90301 -0.80188,1.35446 -1.644,2.376c-0.45207,0.5484 -1.37011,1.13636 -1.92384,1.76648c-0.64172,0.73026 -1.29337,1.2016 -1.94283,1.54752c-0.87689,0.46707 -0.13259,0.37543 0.55733,0.34198c0.91664,-0.04444 1.79172,-0.18454 2.804,-0.43598c0.72898,-0.18106 1.4722,-0.4024 2.51734,-0.87466c0.68007,-0.30728 1.3117,-0.69742 1.974,-1.026c1.34948,-0.66956 2.07513,-0.9111 2.764,-1.09018c0.85062,-0.22113 1.32363,0.17645 0.59934,0.63751c-0.67331,0.42859 -1.49989,0.89426 -2.21333,1.47199c-0.80826,0.65451 -1.35407,1.0968 -1.97867,1.57867c-0.64739,0.49948 -1.27684,0.97531 -2.27335,1.78134c-0.57429,0.46454 -1.18049,0.94721 -2.03616,1.51084c-0.72345,0.47653 -1.53662,0.97598 -1.94916,1.24249c-0.81726,0.52799 -1.90784,1.28412 -2.49383,1.75299c-0.51528,0.41229 -1.12052,1.04465 -2.16701,1.70001c-0.7184,0.44989 -1.66281,0.58976 -2.50433,0.76181c-0.84993,0.17377 -1.12476,0.91816 -1.75617,1.48786c-0.67609,0.60998 -1.28716,0.99966 -2.144,1.84533c-0.62095,0.61286 -1.19123,1.31574 -1.47916,1.66666c-0.56745,0.69159 -1.34934,1.67084 -2.05017,2.47665c-0.38469,0.44233 -1.0177,1.66886 -0.17516,1.51886c0.79556,-0.14163 1.31105,-0.79885 2.05633,-1.10534c0.82784,-0.34043 1.31906,-1.17627 2.31483,-1.72351c0.63891,-0.35114 1.45582,-0.54193 2.30401,-0.792c0.4329,-0.12762 1.70426,-0.52206 2.45866,-0.85733c0.70688,-0.31414 1.63686,-0.87411 2.57066,-1.18399c0.88118,-0.29238 1.51081,-0.28329 2.4,-0.50134c0.91497,-0.22436 1.86367,-0.71533 2.225,-0.8945c0.81723,-0.40521 2.37299,-1.10916 3.00301,-1.35867c0.67389,-0.26688 1.38701,-0.52979 2.12399,-0.79349c0.74701,-0.2673 1.49556,-0.52533 2.232,-0.77551c0.71157,-0.24173 2.01539,-0.67835 3.10267,-1.03785c0.46558,-0.15393 1.6075,-0.53714 2.22,-0.68399c0.99984,-0.23971 1.88266,-0.27731 2.89316,-0.28799l0.77934,0l0.99933,0l0.82016,0"/>
  <path fill="none" stroke="#000000" stroke-width="5" stroke-dasharray="null" stroke-linejoin="null" stroke-linecap="null" id="svg_39" d="m134,235c1,1 1.35673,1.61226 1.916,2.28534c0.556,0.66916 0.77296,1.39891 1.10933,2.35066c0.29585,0.83711 0.62114,1.55539 0.85333,2.56383c0.17697,0.76862 0.38283,1.75847 0.696,2.42551c0.39323,0.83754 0.37817,1.60249 0.64667,2.57449c0.22037,0.79779 0.71374,1.7717 0.77417,2.49567c0.07823,0.93725 0.0045,1.78849 0.0045,2.65184c0,1.01666 0,1.85266 0,2.75267c0,0.89999 0,1.69998 0,2.6c0,0.97199 0,1.84265 0,2.55066c0,0.98132 0,1.944 0,2.71732c0,1.03735 0,1.78134 0,2.889c0,0.72168 0,1.64301 0,2.543c0,0.9 0,1.80002 0,2.70002c0,0.89999 0,1.69998 0,2.6c0,0.9 0,1.82083 0,2.784c0,0.69064 0,1.76333 0,2.68265c0,0.83334 0,1.81183 0,2.52884c0,0.90451 0,1.8045 0,2.70449c0,0.9 0,1.80133 0,2.76667c0,0.85418 0,1.83334 0,2.63333c0,0.80002 0,1.8045 0,2.436c0,1.18534 0,1.98935 0,2.81134c0,1.03134 0.00061,1.72733 0,2.63666c-0.00067,1.00134 0.00082,1.83859 -0.05716,2.4205c-0.11964,1.20063 -0.37303,2.08359 -0.5175,2.65952c-0.26769,1.06711 -0.34525,2.00903 -0.50934,2.83465c-0.2021,1.01688 -0.57488,1.57953 -0.7945,2.60117c-0.16514,0.76825 -0.1215,1.77866 -0.1215,2.59885c0,0.90133 0,1.80133 0,2.70132l0,0.89999l0,0.9l-0.00133,0.89868"/>
  <path fill="none" stroke="#000000" stroke-width="5" stroke-dasharray="null" stroke-linejoin="null" stroke-linecap="null" id="svg_40" d="m98,329c1.8,0 2.7,0.00058 3.52084,0c0.96316,-0.00067 1.68481,0.06073 2.60316,-0.28665c0.7507,-0.28397 1.26335,-0.62583 2.5255,-1.03467c0.53638,-0.17374 1.73833,-0.50467 2.37134,-0.67868c0.63765,-0.17529 1.27313,-0.32846 2.97916,-0.83334c0.47341,-0.14011 1.28043,-0.41144 1.97916,-0.66666c1.04091,-0.38019 1.85173,-0.67438 2.8555,-0.98666c0.57681,-0.17945 1.20866,-0.36243 1.8945,-0.555c0.73944,-0.20761 1.53544,-0.42346 2.38951,-0.64502c1.87938,-0.48755 2.90845,-0.73602 3.98133,-0.996c1.10212,-0.26706 2.21984,-0.53265 3.3375,-0.79648c1.10234,-0.26019 2.17505,-0.51083 3.2025,-0.75149c1.86008,-0.43567 2.66617,-0.62622 3.38933,-0.79736c0.64717,-0.15317 1.22506,-0.2905 1.7415,-0.40949c0.46092,-0.1062 0.87349,-0.20047 1.2465,-0.27451c0.64795,-0.12857 1.20858,-0.23553 2.12534,-0.27731c0.9697,-0.04419 1.81461,0.27133 1.85733,1.08933c0.04694,0.89877 0,1.65716 0,2.55267c0,0.86331 0.00984,1.89413 -0.16667,2.84732c-0.16243,0.87717 -0.35257,1.5629 -0.53783,2.31351c-0.29298,1.1871 -0.48938,1.98846 -0.70616,2.7865c-0.21786,0.80206 -0.3167,1.21057 -0.75601,2.39999c-0.29734,0.80499 -0.65241,1.58164 -1.008,2.328c-0.33546,0.70417 -0.95871,1.8906 -1.28366,2.6095c-0.40001,0.88495 -0.5629,1.68961 -1.25151,2.38049c-0.45068,0.45218 -1.15149,1.33759 -1.40483,2.01801c-0.28085,0.75433 -0.45328,1.56885 -0.68399,2.328c-0.36633,1.20542 -0.80179,1.87653 -1.17601,2.73599c-0.34341,0.7887 -0.74133,1.57068 -0.94133,2.36801l-0.10933,0.98133"/>
  <path fill="none" stroke="#000000" stroke-width="5" stroke-dasharray="null" stroke-linejoin="null" stroke-linecap="null" id="svg_41" d="m107,339c1.8,0 2.7,0.00113 3.52084,0c0.96716,-0.00134 1.77796,-0.01407 2.8125,-0.33334c0.65625,-0.20252 1.39128,-0.551 2.26799,-0.92399c0.4931,-0.20977 1.02272,-0.44415 2.23201,-0.90933c1.37815,-0.53012 2.11996,-0.78 2.87199,-1.03735c0.75198,-0.25733 1.49492,-0.50208 2.217,-0.72901c0.68599,-0.21557 1.90818,-0.57833 2.88301,-0.81497c0.76189,-0.18493 1.42715,-0.24365 2.52799,-0.75201c0.65948,-0.30454 1.3199,-0.7829 2.016,-1.26001c0.68522,-0.46964 1.58895,-1.12897 2.368,-1.55731c0.7775,-0.42749 2.67175,0.21698 2.66133,-0.68268c-0.0021,-0.18134 -1.09022,-0.11508 -2.01466,0.03601c-0.87358,0.14276 -1.57924,0.56549 -2.56366,1.06399c-0.58177,0.29462 -1.46701,0.9 -1.88301,1.61466l-0.679,0.33801l-0.891,0.29999l-0.69467,0.29468"/>
  <path fill="none" stroke="#000000" stroke-width="5" stroke-dasharray="null" stroke-linejoin="null" stroke-linecap="null" id="svg_42" d="m98,353c1.8,0 2.7,0.00058 3.52084,0c0.96716,-0.00067 1.76635,-0.00375 2.8125,-0.16666c0.63668,-0.09915 1.65301,-0.33013 2.30416,-0.53784c1.11261,-0.35489 1.68929,-0.73782 2.33484,-0.99551c1.20535,-0.48114 2.09954,-0.6022 2.57566,-0.69998c0.9964,-0.20466 1.50731,-0.27994 2.952,-0.60001c0.84401,-0.18698 1.56894,-0.39557 2.47217,-0.64282c0.88318,-0.24179 1.71891,-0.34442 2.62783,-0.35718c0.90015,-0.01263 1.71792,-0.58914 2.5,-0.87851c0.85174,-0.31513 1.7,-0.12149 2.6,-0.12149l0.9,0l0.87916,-0.02084"/>
  <path fill="none" stroke="#000000" stroke-width="5" stroke-dasharray="null" stroke-linejoin="null" stroke-linecap="null" id="svg_44" d="m104,371c0.16666,1.83334 0.93911,2.21524 1,3.10034c0.049,0.71231 -0.07497,1.67221 0.036,2.61301c0.11025,0.9346 0.76898,1.51889 0.90683,2.34915c0.15366,0.92548 -0.34738,1.99417 0.22784,2.64951c0.59214,0.67459 1.77721,0.5657 2.52483,0.93533c0.7974,0.39426 1.78984,0.35266 2.51517,0.35266c0.98933,0 1.78933,0 2.78933,0c0.81067,0 1.68541,-0.01126 2.684,0.00134c0.81617,0.01032 1.64545,0.02549 2.63067,0.28266c0.67607,0.17648 1.67908,0.59543 2.47466,0.67999c0.72209,0.07675 1.80002,0.0409 2.71067,0.03601c0.84054,-0.00452 1.71609,-0.10519 3,-0.33334c0.59259,-0.10529 1.25508,-0.23392 1.9695,-0.3765c0.74827,-0.14932 1.51045,-0.30746 2.26649,-0.47549c0.73362,-0.16306 1.45681,-0.22519 3.04918,-0.793c0.88845,-0.3168 1.68883,-0.91541 2.41483,-1.30566c0.85479,-0.45948 1.7592,-0.86713 1.8,-1.71601c0.03417,-0.71084 -0.44267,-1.764 -0.70534,-2.358l-0.29466,-0.642l-0.43201,-0.94799"/>
  <path fill="none" stroke="#000000" stroke-width="5" stroke-dasharray="null" stroke-linejoin="null" stroke-linecap="null" id="svg_45" d="m84,375c-0.8785,1.2215 -1,2.10001 -1,3c0,0.75717 0,1.65268 0,2.51599c0,0.96317 0,1.89468 0,2.80533l0,0.85333l0,0.94"/>
  <path fill="none" stroke="#000000" stroke-width="5" stroke-dasharray="null" stroke-linejoin="null" stroke-linecap="null" id="svg_46" d="m156,367c0.05716,1.70001 0.4604,2.52359 0.94733,3.2955c0.44311,0.70246 1.05267,1.22534 1.48867,2.09384l0.66384,0.48951l0.73349,0.45449l0.192,0.81598"/>
  <path fill="none" stroke="#000000" stroke-width="5" stroke-dasharray="null" stroke-linejoin="null" stroke-linecap="null" id="svg_47" d="m119,360c1.7,0.05716 2.48029,0.54181 3.2,1.19867c0.58451,0.53348 1.4,0.82666 2.2,1.22665l0.8,0.48935l0.89983,0.08548l0.81617,0.28385"/>
  <path fill="none" stroke="#000000" stroke-width="5" stroke-dasharray="null" stroke-linejoin="null" stroke-linecap="null" id="svg_48" d="m236,264c4.22934,0 5.17866,0 6.20016,0c0.82067,0 1.48517,0 2.49051,0c0.9135,0 1.64249,0.00018 2.976,0c0.519,-0.00009 1.65302,-0.00263 2.256,-0.01068c0.61903,-0.00827 1.24878,-0.00833 2.51199,-0.07465c1.23299,-0.06472 1.82395,-0.121 2.942,-0.27185c0.53102,-0.07165 1.5334,-0.23779 2.45,-0.44415c1.23611,-0.27829 1.9902,-0.4931 2.73584,-0.78201c0.82477,-0.31958 1.27029,-0.54142 2.27084,-1.08332c1.20426,-0.65222 1.85218,-1.05353 2.54666,-1.45602c0.72385,-0.41953 1.47113,-0.8519 2.2425,-1.28098c0.78198,-0.43496 2.37402,-1.27023 3.17666,-1.65301c0.79081,-0.37714 1.57621,-0.72498 2.34751,-1.05c0.74716,-0.31485 1.4722,-0.60293 2.16751,-0.87c0.65808,-0.25278 1.85193,-0.69148 2.37848,-0.88016c0.4815,-0.17253 1.33237,-0.48031 2.08999,-0.68583c0.69135,-0.18755 1.73694,-0.35939 2.83201,-0.42134c0.72329,-0.04091 1.41601,-0.03533 2.61334,-0.036c0.91467,-0.0005 1.89279,0.31264 2.65066,-0.22133c0.70264,-0.49504 1.25452,-0.33137 1.11234,0.52584c-0.15073,0.90873 -0.83832,1.54748 -1.4,2.04283c-0.76068,0.67085 -1.49035,1.12913 -2.07901,1.67399c-0.3786,0.35044 -0.81131,0.78665 -1.84533,1.97867c-0.64923,0.74844 -1.35074,1.61887 -2.124,2.57251c-0.83215,1.02628 -1.70706,2.11682 -2.62799,3.2475c-0.94836,1.1644 -1.90506,2.35739 -3.91467,4.67999c-0.98908,1.14313 -1.987,2.2406 -2.97299,3.30152c-0.95819,1.031 -1.89917,2.01373 -2.81101,2.9505c-0.87033,0.8941 -1.703,1.733 -3.216,3.24798c-0.67053,0.67145 -1.28799,1.288 -1.857,1.857c-0.527,0.527 -1.018,1.018 -1.479,1.479c-0.43701,0.43701 -0.8559,0.85608 -1.664,1.664c-0.39948,0.39939 -0.7952,0.79547 -1.18649,1.18201c-0.38074,0.3761 -0.74921,0.73654 -1.1055,1.074c-0.33481,0.31711 -0.63999,0.61713 -1.20801,1.07734c-0.23059,0.18682 -0.44009,0.33078 -0.62399,0.4425c-0.15528,0.09433 -0.29236,0.16229 -0.40802,0.2175c-0.09708,0.04633 -0.24308,0.03485 -0.30133,0.17331c-0.29386,0.69827 1.00289,0.88598 1.85418,0.8125c0.9863,-0.08515 1.62305,-0.34854 2.1875,-0.54166c0.76187,-0.26068 2.45749,-0.77383 3.20484,-0.98001c0.82458,-0.22748 1.70849,-0.46023 2.62948,-0.69748c0.93601,-0.24112 1.86762,-0.47503 2.7735,-0.69751c0.85809,-0.21075 2.34986,-0.56534 2.94766,-0.698c0.49967,-0.11087 0.91132,-0.22778 1.54868,-0.302c1.0159,-0.11831 1.94388,-0.16266 2.625,-0.00534c1.00446,0.232 1.10803,1.26868 1.02084,2.00534c-0.08474,0.71613 -0.5235,1.91315 -0.83035,2.63083c-0.3432,0.80267 -0.55273,1.22351 -1.12799,2.64002c-0.20667,0.50891 -0.62482,1.62234 -0.86401,2.23465c-0.25864,0.66208 -0.54694,1.37948 -0.879,2.15551c-0.3635,0.84955 -1.25165,2.77909 -1.78501,3.86817c-0.57028,1.16446 -1.18527,2.37469 -1.82397,3.61499c-0.6453,1.25308 -1.29511,2.49383 -1.93201,3.70498c-0.61111,1.16215 -1.7167,3.25464 -2.18735,4.15235c-0.41995,0.80099 -0.79461,1.52069 -1.134,2.172c-0.31128,0.59738 -0.60174,1.15515 -0.88199,1.686c-0.27441,0.51984 -0.84515,1.57846 -1.15533,2.14218c-0.32443,0.58963 -0.66324,1.198 -1.008,1.82248c-0.34994,0.63385 -0.70074,1.27222 -1.044,1.91251c-0.33939,0.63305 -0.97498,1.86603 -1.26249,2.45749c-0.27639,0.5686 -0.53244,1.1203 -0.78152,1.65002c-0.23993,0.51025 -0.47147,1.00226 -0.7095,1.47c-0.23017,0.45221 -0.71192,1.29434 -0.97315,1.68066c-0.25632,0.37906 -0.52975,0.73856 -0.804,1.09198c-0.54617,0.70383 -0.87022,1.0239 -1.608,2.18403c-0.5174,0.81356 -0.71401,1.272 -1.16667,2.16665c-0.45267,0.89465 -0.62891,1.36691 -1.42183,2.5575c-0.50997,0.76571 -0.82859,1.10852 -1.46083,1.82916c-0.33255,0.37906 -1.45209,1.61209 -1.85984,2.07718c-0.42566,0.4855 -1.29773,1.50131 -1.73668,2.01532c-0.43438,0.50867 -0.85057,1.01239 -2.02082,2.35419c-0.33397,0.3829 -0.93142,1.06237 -1.52083,1.625c-0.57991,0.55352 -1.64325,1.37854 -2.06467,1.68432c-0.92404,0.67047 -1.4257,1.00916 -1.93533,1.35733c-0.51305,0.3505 -1.52818,1.03247 -2.47917,1.66666c-0.8424,0.56177 -1.57903,1.05423 -2.232,1.47601c-0.57666,0.37247 -1.56215,1.01349 -2.24718,1.31567c-0.99501,0.43894 -1.80969,0.52366 -2.85415,0.54166c-0.70824,0.01221 -1.66667,0 -2.53368,0c-0.67466,0 -1.38933,0 -2.81149,0c-0.66434,0 -1.61084,0.00201 -2.22017,0c-1.20935,-0.004 -1.86534,-0.06399 -2.61734,-0.216l-0.896,-0.29599"/>
  <path fill="none" stroke="#000000" stroke-width="5" stroke-dasharray="null" stroke-linejoin="null" stroke-linecap="null" id="svg_49" d="m251,272c-0.97467,1.81467 -1.28033,2.66086 -2,3.16666c-0.62543,0.43957 -0.88765,1.37512 -1,2.35418c-0.09131,0.79569 -0.24026,1.81354 -0.54167,2.45832c-0.30028,0.64236 -1.11833,1.61932 -1.45833,2.04168c-0.52756,0.65537 -1.12424,1.66394 -1.38533,2.23648c-0.4361,0.9563 -0.94362,2.07828 -1.15733,2.48517c-0.45343,0.86325 -0.95653,1.73712 -1.20667,2.17084c-0.48112,0.83423 -1.11413,1.91949 -1.44534,2.53317c-0.46465,0.8609 -0.77191,1.49155 -1.34816,2.63867c-0.22594,0.44977 -0.71362,1.40812 -0.978,1.89399c-0.52142,0.95828 -0.7265,1.45068 -1.55768,2.514c-0.63467,0.81192 -1.18869,1.13776 -1.92149,2.1735c-0.45209,0.63897 -0.80991,1.45642 -1.02083,1.875c-0.43475,0.86279 -1.13617,2.1315 -1.40018,2.51501c-0.50448,0.73285 -1.05014,1.34937 -1.51199,1.91998c-0.84007,1.03791 -1.13603,1.74106 -1.73367,2.52335c-0.44153,0.57794 -1.05266,1.18991 -1.704,1.85998c-0.3313,0.34083 -1.296,1.30668 -1.85867,1.86936c-0.72899,0.729 -1.16167,1.16165 -1.97049,1.97049c-0.58951,0.58951 -1.08777,1.20303 -1.92151,1.91482c-0.6109,0.52155 -1.70868,0.89899 -2.50133,1.08402c-0.44792,0.10455 -1.41826,0.28506 -1.92266,0.36532c-1.00393,0.15976 -2.3893,0.32633 -3.18317,0.37885c-0.70837,0.04687 -1.6675,0.05582 -2.57117,0.05716l-0.879,0l-0.807,0"/>
  <path fill="none" stroke="#000000" stroke-width="5" stroke-dasharray="null" stroke-linejoin="null" stroke-linecap="null" id="svg_50" d="m236,304c0.87866,1.2215 1.19307,2.12405 1.7045,2.70001c0.65021,0.73227 1.02739,1.461 1.46217,2.29999c0.36661,0.70743 1.15483,1.3215 1.66933,1.836c0.5685,0.56851 1.36383,1.36383 1.95334,1.95334c0.55349,0.5535 1.16858,1.21237 1.90799,1.87201c0.78117,0.69687 1.35493,1.11117 2,1.59997c0.69607,0.52747 1.05462,0.79657 2.136,1.57202c0.67462,0.4838 1.33553,0.87314 2.09067,1.50501c0.86964,0.72769 1.1837,1.50897 1.74067,2.20431c0.60256,0.75226 1.17646,1.24341 1.82467,1.68934c0.99427,0.68399 1.76649,0.96603 2.5315,1.268c0.78232,0.30878 1.20575,0.41803 2.37867,1.04266c0.80578,0.42911 1.5469,0.94513 2.229,1.452c0.8833,0.6564 1.50842,1.21906 2.11948,1.65601c0.46444,0.33212 1.45703,0.89587 2.32434,1.35916c0.47461,0.25351 1.47427,0.77307 1.97867,1.04199c1.45275,0.77454 1.89096,1.01633 2.682,1.49551c0.7313,0.443 1.41538,0.89865 2.43366,1.61933c0.35632,0.25219 1.08127,0.78827 1.83334,1.3125c0.74274,0.5177 1.82404,1.20553 2.51599,1.55151c0.65036,0.32517 1.31122,0.57944 1.96802,0.85199c1.04065,0.43183 1.78149,0.77121 2.55765,1.159c0.82416,0.41177 2.12564,1.12384 2.57934,1.37933c0.92398,0.52033 1.37925,0.78983 2.28168,1.28168c0.42859,0.23358 1.58884,0.82147 2.51682,1.13482c0.84549,0.28553 1.39935,0.93219 1.85733,1.57151c0.47274,0.65994 1.48687,1.19037 1.8605,1.36966c0.76395,0.3666 1.52014,0.67486 2.724,1.05334c0.92929,0.29215 1.67712,0.6189 2.41067,1.01868c0.83194,0.4534 1.71836,0.85983 2.65949,1.04398c0.70865,0.13867 1.56915,0.20693 2.06586,0.27334c1.17053,0.1565 1.85382,0.27139 2.59997,0.40399c0.80359,0.1428 1.65543,0.30701 2.54853,0.49051c0.92962,0.19101 1.88711,0.39737 2.86349,0.62549c1.99371,0.46582 2.9903,0.73056 3.98267,0.99335c0.98162,0.25992 1.94375,0.52359 2.88299,0.77701c0.90875,0.2452 1.77997,0.48288 2.61301,0.68698c1.50842,0.36956 2.18335,0.4982 2.81332,0.60135c0.59952,0.09814 1.18933,0.16665 1.78202,0.23248l0.61267,0.06085l0.64865,0.06082l0.70065,0.06583"/>
  <path fill="none" stroke="#000000" stroke-width="5" stroke-dasharray="null" stroke-linejoin="null" stroke-linecap="null" id="svg_51" d="m385,225c1.64816,1.0715 2.0401,1.53255 2.43066,2.40401c0.39057,0.87144 0.55381,1.87036 0.836,2.612c0.16504,0.43368 1.05664,1.99112 1.50467,2.61232c0.49506,0.68638 1.06342,1.4004 1.67401,2.145c0.63327,0.77225 1.29465,1.54782 1.96198,2.325c0.6607,0.76947 1.92764,2.23363 2.50668,2.91568c0.5462,0.64335 1.05862,1.25627 1.54199,1.84199c0.46189,0.55967 0.90207,1.10076 1.32602,1.626c0.41336,0.5121 1.21817,1.51786 1.61948,2.02c0.4107,0.51387 0.83963,1.05153 1.29452,1.62601c0.49213,0.62149 1.02878,1.30337 1.6185,2.05799c0.65436,0.83732 2.18619,2.81345 3.07831,3.97117c0.97061,1.25956 2.00424,2.60591 3.0885,4.02151c1.12342,1.46674 2.27124,2.9689 3.43051,4.48947c1.1594,1.52075 3.42218,4.49799 4.5015,5.92352c1.04068,1.37452 2.04077,2.69941 3,3.97501c0.92074,1.22443 1.8009,2.39932 2.64001,3.52499c0.80084,1.07435 2.28101,3.07425 2.96067,4.00083c0.64559,0.88013 1.25808,1.72113 1.84198,2.52749c0.5614,0.77533 1.10174,1.52637 1.626,2.25751c0.51306,0.71555 1.517,2.12323 2.0185,2.82251c0.5025,0.70072 1.00918,1.40283 1.53152,2.09998c0.52664,0.70291 1.06973,1.40509 1.6395,2.1c0.57821,0.70524 1.82156,2.10663 2.49249,2.7995c0.68103,0.70331 1.38959,1.3917 2.112,2.06852c0.71961,0.67419 1.44538,1.32699 2.16599,1.96048c0.70346,0.61844 2.05682,1.77292 2.69317,2.30667c0.60504,0.5075 1.18311,0.98584 1.73551,1.43551c0.52401,0.42658 1.02407,0.82691 1.50149,1.20151c0.452,0.35465 1.293,0.99649 1.68466,1.28449c0.36978,0.27191 0.72211,0.52328 1.06052,0.75c0.31808,0.2131 0.6225,0.40496 0.9165,0.57c0.27558,0.1547 0.79727,0.39624 1.0445,0.4805c0.23303,0.07944 0.45935,0.1359 0.67499,0.18149c0.20446,0.04324 0.40026,0.07455 0.58502,0.1095c0.17526,0.03314 0.49713,0.11313 0.64032,0.17334c0.13962,0.05868 0.27029,0.13312 0.39599,0.21451c0.12705,0.08227 0.25067,0.17465 0.37799,0.26849c0.13135,0.09683 0.41288,0.29727 0.56867,0.39551c0.16153,0.10187 0.33112,0.20041 0.50403,0.29998c0.17441,0.10044 0.35132,0.1966 0.52197,0.30002c0.63898,0.38721 1.242,0.86399 2.05267,1.26398l0.89551,0.0405"/>
  <path fill="none" stroke="#000000" stroke-width="5" stroke-dasharray="null" stroke-linejoin="null" stroke-linecap="null" id="svg_52" d="m408,260c-1.41068,2.37466 -2.17242,3.16101 -2.65717,3.66165c-0.56021,0.57858 -1.34665,1.50208 -1.74282,2.02103c-0.4039,0.52902 -0.93674,1.37048 -1.80066,2.17499c-0.60141,0.56006 -1.14942,0.85638 -1.7407,1.281c-1.15664,0.83066 -1.60052,1.20038 -2.08282,1.59c-0.51114,0.4129 -1.58438,1.31183 -2.13666,1.78934c-0.56109,0.48513 -1.67386,1.48053 -2.21783,1.98165c-0.53867,0.49625 -1.06714,0.99302 -1.59601,1.47901c-0.5238,0.48132 -1.56979,1.41702 -2.10934,1.85068c-1.06681,0.85742 -1.63288,1.23422 -2.19864,1.59997c-0.56134,0.36289 -1.69577,1.03034 -2.25602,1.34934c-0.55078,0.31363 -2.13037,1.21746 -2.6185,1.52133c-0.47589,0.29626 -1.38247,0.89862 -1.82199,1.20001c-0.87094,0.59723 -1.29577,0.91159 -2.64199,1.79984c-0.45893,0.30279 -1.39298,0.89038 -1.85801,1.17932c-0.90994,0.5654 -1.354,0.83148 -2.57834,1.59951c-0.74319,0.46622 -1.46029,0.92637 -2.20501,1.374c-0.38922,0.23395 -1.70014,0.97183 -2.19217,1.23132c-1.03916,0.54807 -1.586,0.81799 -2.14133,1.09067c-0.55936,0.27466 -2.23608,1.06149 -2.78198,1.30368c-1.04895,0.46539 -1.55344,0.67633 -2.50336,1.07498c-0.44238,0.18567 -1.62134,0.67395 -2.56964,1.09851c-0.59238,0.26523 -1.21884,0.5636 -2.38235,1.08151c-0.98722,0.43943 -1.53836,0.67353 -2.11466,0.91733c-0.59299,0.25089 -1.80121,0.7486 -2.40268,0.98132c-1.14596,0.44346 -2.19037,0.79947 -2.66882,0.95816c-0.87585,0.29047 -1.68216,0.49393 -2.64716,0.97651c-0.85321,0.42666 -1.548,0.97201 -2.5,1.5l-0.78152,0.21902l-0.7905,0.09299"/>
  <path fill="none" stroke="#000000" stroke-width="5" stroke-dasharray="null" stroke-linejoin="null" stroke-linecap="null" id="svg_53" d="m390,293c1.75717,0 2.67276,0.11673 3.51599,-0.08533c0.8981,-0.21521 1.64984,-0.75168 2.40533,-0.92132c0.57673,-0.12949 1.36857,-0.31501 2.41202,-0.66001c1.35205,-0.44702 2.10602,-0.74841 2.91199,-1.04535c0.83804,-0.30874 1.69479,-0.62603 2.56201,-0.93451c0.86081,-0.30618 2.52396,-0.86038 3.30615,-1.08914c0.73929,-0.21621 1.44373,-0.39975 2.11051,-0.56701c0.62958,-0.15793 1.22613,-0.29822 1.7865,-0.44098c0.52893,-0.13477 1.93487,-0.55408 2.70901,-0.90451c0.68598,-0.31052 1.48023,-0.8404 2.46616,-1.24201c0.79645,-0.3244 1.50842,-1.35193 2.37832,-1.06317c0.72617,0.24103 0.465,1.49722 0.41516,2.47418c-0.0407,0.79804 -0.26873,1.80054 -0.5,2.58332c-0.1871,0.63333 -0.48297,1.89514 -0.57931,2.42434c-0.10535,0.57877 -0.3093,1.85569 -0.42069,2.534c-0.11392,0.69373 -0.22805,1.39456 -0.3645,2.08951c-0.26529,1.35123 -0.59387,2.59338 -0.76733,3.17648c-0.16803,0.56491 -0.52475,1.63858 -0.69464,2.15802c-0.49414,1.51087 -0.64301,2.01029 -0.89551,3.009c-0.24799,0.98078 -0.34619,1.46854 -0.55585,2.41916c-0.30072,1.36359 -0.40161,1.79697 -0.59067,2.62799c-0.17614,0.77433 -0.47222,2.12082 -0.55349,2.97452c-0.05573,0.58545 -0.0549,1.27399 -0.05716,2.64948c-0.00095,0.58252 0,1.22 0,2.6c0,0.7125 0,1.42002 0,2.10752c0,0.65249 0,2.25433 0,3.26983c0,0.6915 0,1.62 0,2.53198l0,0.64801l0,1.176l-0.02085,0.91666"/>
  <path fill="none" stroke="#000000" stroke-width="5" stroke-dasharray="null" stroke-linejoin="null" stroke-linecap="null" id="svg_54" d="m394,315c6.5925,-1.97867 7.64874,-2.32184 8.3775,-2.75266c0.86099,-0.509 1.42969,-1.08734 1.85849,-1.458c0.92322,-0.79804 1.44086,-1.21158 2.36817,-1.81018c0.34555,-0.22306 1.12857,-0.68433 2.58166,-1.40067c0.55051,-0.27139 1.13776,-0.5369 1.7475,-0.81448c0.6286,-0.28617 1.27484,-0.57138 2.58667,-1.16535c1.31485,-0.59533 1.95856,-0.89642 2.58801,-1.19598c0.61322,-0.29184 1.20596,-0.57483 2.30133,-1.13068c0.50187,-0.25467 1.75733,-0.93866 2.60035,-1.44867l0.61065,-0.39999"/>
  <path fill="none" stroke="#000000" stroke-width="5" stroke-dasharray="null" stroke-linejoin="null" stroke-linecap="null" id="svg_55" d="m372,347c1.82535,-0.96399 2.84399,-0.92187 3.58334,-1.0625c0.65873,-0.12527 1.62464,-0.60153 2.51148,-1.00449c0.50659,-0.23016 1.04614,-0.48611 2.242,-0.98934c0.63797,-0.26847 1.99427,-0.7837 2.70667,-1.02234c0.72891,-0.24417 1.48318,-0.47269 2.2605,-0.69599c0.79898,-0.22949 1.62493,-0.45215 2.4765,-0.67801c0.87777,-0.23282 2.71951,-0.71399 3.68585,-0.96899c1.00433,-0.26502 2.05395,-0.54269 3.159,-0.82501c1.16558,-0.29782 2.40155,-0.60471 3.71701,-0.91498c1.39917,-0.33002 4.48977,-1.01099 6.19299,-1.35935c1.79272,-0.36666 3.66083,-0.72888 5.586,-1.083c1.96084,-0.36069 3.94275,-0.70618 5.92801,-1.029c1.96679,-0.31979 5.78268,-0.87728 7.60064,-1.10232c1.7555,-0.21729 3.46247,-0.39838 5.13001,-0.54602c1.63583,-0.14484 3.25287,-0.25864 4.86001,-0.34799c1.60624,-0.0893 4.8599,-0.20774 6.52332,-0.24952c1.68326,-0.04226 3.37671,-0.07186 5.07001,-0.10647c1.68335,-0.03439 3.34683,-0.06976 4.98001,-0.12451c1.59353,-0.05341 4.62094,-0.21192 6.03531,-0.33301c1.34835,-0.11545 2.6297,-0.25885 3.846,-0.41849c1.15638,-0.15176 2.25135,-0.31991 3.288,-0.49051c0.98199,-0.16162 2.78387,-0.48221 3.60916,-0.62649c0.77606,-0.13568 1.50415,-0.26117 2.18552,-0.375c0.63497,-0.10608 1.22534,-0.20001 1.77148,-0.28501l0.50317,-0.07501"/>
  <path fill="none" stroke="#000000" stroke-width="5" stroke-dasharray="null" stroke-linejoin="null" stroke-linecap="null" id="svg_56" d="m486,262c1.84668,0 2.68668,0 3.68399,0c0.81601,0 1.63211,0.01285 2.63467,-0.00134c0.72318,-0.01023 1.53879,-0.0647 2.54666,-0.22049c0.83127,-0.12848 1.80201,-0.33771 2.34668,-0.46085c0.58808,-0.13296 1.22095,-0.28052 2.62134,-0.65066c0.77429,-0.20466 1.5849,-0.43284 2.42099,-0.67649c0.85196,-0.24826 1.70532,-0.50689 2.547,-0.77551c0.82233,-0.26245 1.61621,-0.50989 3.03201,-1.048c0.61972,-0.23554 1.66776,-0.69834 2.10401,-0.93067c0.76254,-0.40606 1.90088,-1.23016 2.376,-1.63333c0.6518,-0.55307 1.55567,-1.77618 2.23999,-1.47333c0.74213,0.32843 0.44031,1.70261 0.44532,2.27466c0.01049,1.20133 0.00134,1.83869 0.00134,2.92468c0,0.41266 0.00134,1.85767 -0.00134,2.41532c-0.00592,1.22137 -0.01691,1.88107 -0.03467,2.57068c-0.0185,0.71771 -0.03748,1.462 -0.13068,3.01867c-0.04846,0.80954 -0.11554,1.63349 -0.18597,2.4675c-0.07092,0.83933 -0.14789,1.67826 -0.22199,2.51249c-0.07324,0.82412 -0.15203,1.63256 -0.25866,3.18667c-0.05042,0.73499 -0.08448,1.44257 -0.11402,2.12399c-0.05603,1.29251 -0.07171,1.90836 -0.10534,2.50534c-0.09607,1.70511 -0.15967,2.25016 -0.29999,3.30899c-0.06836,0.51563 -0.22595,1.51444 -0.29468,2c-0.19733,1.39347 -0.27142,2.27485 -0.32733,3.11503c-0.05322,0.7998 -0.06708,1.56631 -0.24683,2.62564c-0.17389,1.02475 -0.39758,1.71627 -0.57983,2.47567c-0.31339,1.30591 -0.39716,1.79792 -0.60935,2.82135c-0.1087,0.5243 -0.3323,1.5698 -0.47467,2.07199c-0.3966,1.39905 -0.75454,2.18 -1.09381,2.86866c-0.30365,0.61636 -0.78412,1.66015 -1,2.54168c-0.24939,1.01828 -0.55923,1.80274 -1.52084,2.02082c-0.88812,0.20141 -1.69843,-0.27582 -2.32535,-0.85117c-0.55173,-0.50635 -1.20801,-1.29651 -1.633,-2.10715c-0.43316,-0.82623 -0.59127,-1.64233 -0.96698,-2.33151c-0.62655,-1.14929 -0.99465,-1.59604 -1.33801,-2.11432c-0.36331,-0.54837 -1.11505,-1.69183 -1.47333,-2.27334c-0.34829,-0.56531 -0.97894,-1.61493 -1.33801,-2.56034c-0.29733,-0.78286 -0.37152,-1.5046 -0.59198,-2.74133c-0.15973,-0.89609 -0.35394,-1.45288 -0.54935,-2.22934c-0.2774,-1.10232 -0.3764,-2.10092 -0.24798,-2.94531c0.14666,-0.96436 0.62604,-1.47513 1.28531,-2.36801c0.51623,-0.69916 0.82391,-1.22852 1.51202,-2.124c0.52991,-0.68957 1.1247,-1.23132 1.93601,-1.81735c0.48541,-0.35061 1.2723,-0.88016 2.30999,-1.49499c0.48142,-0.28525 1.2912,-0.7161 1.94599,-1.07566c1.28357,-0.7048 1.79324,-0.99618 2.33349,-1.29882c0.55707,-0.31205 1.67756,-0.93622 2.22068,-1.23136c0.51428,-0.27945 2.0997,-1.10245 2.81631,-1.35266c0.914,-0.31912 1.57025,-0.6658 2.58271,-0.94101c0.70105,-0.19058 1.83703,-0.12445 2.02014,0.67984c0.17822,0.78281 0.00134,2.03201 0.00134,2.82401c0,0.45599 0,1.458 0,1.992c0,1.104 0.00507,2.21603 -0.00269,3.29864c-0.00378,0.53138 -0.02978,1.58463 -0.06933,2.10935c-0.07996,1.06027 -0.2378,2.14661 -0.5,3.25867c-0.13477,0.57162 -0.29084,1.14798 -0.68531,2.29068c-0.19891,0.5762 -0.40649,1.15197 -0.90936,2.25866c-0.49512,1.08966 -0.77459,1.60956 -1.35412,2.60416c-0.28223,0.48437 -0.86158,1.40436 -1.47919,2.22915c-0.58118,0.7761 -1.18808,1.46244 -1.47916,1.79169c-0.56125,0.63483 -1.36844,1.53049 -1.83285,2.13898c-0.64569,0.84598 -1.05768,1.34637 -1.51999,2.436c-0.341,0.80372 -0.60065,1.73649 -0.89133,2.34717c-0.34738,0.72983 -0.79455,1.55042 -1.05002,1.99417c-0.8508,1.47788 -1.19018,1.98828 -1.51849,2.51267c-0.64477,1.02988 -0.96063,1.51135 -1.23132,1.97867c-0.80289,1.3861 -0.71729,2.32342 0.15915,2.06201c0.94952,-0.2832 1.46185,-1.01907 1.99719,-1.45136c1.0216,-0.82492 1.45013,-1.12256 2.38199,-1.7865c0.49566,-0.35314 1.00714,-0.70895 1.5195,-1.0755c1.01758,-0.72796 1.97452,-1.43676 2.80798,-2.12799c0.38568,-0.31985 1.08038,-0.93835 1.68671,-1.52499c0.81256,-0.78619 1.27252,-1.28839 1.94983,-1.92001c0.60827,-0.56726 1.3836,-1.23743 2.25683,-1.595c0.89936,-0.36832 1.71662,-0.3985 2.53864,-0.508l1.05865,-0.272l0.70502,-0.37198l0.61499,-0.444"/>
  <path fill="none" stroke="#000000" stroke-width="5" stroke-dasharray="null" stroke-linejoin="null" stroke-linecap="null" id="svg_61" d="m541,255c1.75714,0 2.66345,0.05309 3.40448,-0.05716c1.01148,-0.15048 1.82648,-0.56589 2.76221,-0.94284c0.53052,-0.21372 1.1878,-0.45036 2.03998,-0.78c0.5274,-0.20399 1.13543,-0.44153 2.62664,-1.05333c0.904,-0.37089 1.90192,-0.79069 2.982,-1.248c1.14929,-0.4866 2.35187,-1.00082 3.59405,-1.53601c1.26911,-0.5468 2.55097,-1.10022 5.09064,-2.21599c1.23596,-0.54301 2.44116,-1.07911 3.61951,-1.60051c1.151,-0.50927 2.27527,-1.00604 3.37646,-1.48349c1.0752,-0.46615 2.12348,-0.92514 4.17072,-1.74934c0.98651,-0.39716 1.95379,-0.76358 2.89197,-1.1145c0.90454,-0.33835 1.77502,-0.65531 2.604,-0.96149c0.78571,-0.29021 1.53009,-0.55115 2.83734,-1.09067c0.57404,-0.23691 1.08752,-0.47418 1.54797,-0.7005c0.41669,-0.20479 0.78534,-0.40367 1.11603,-0.58351l0.29468,-0.16383l0.26263,-0.14682"/>
  <path fill="none" stroke="#000000" stroke-width="5" stroke-dasharray="null" stroke-linejoin="null" stroke-linecap="null" id="svg_62" d="m563,198c0.43597,1.82533 0.85986,2.47958 1.38934,3.396c0.3675,0.63609 0.52973,1.66383 0.59601,2.344c0.07794,0.79981 0.16058,1.72396 0.34796,2.76c0.20996,1.16103 0.37482,1.77191 0.52802,2.40801c0.15771,0.65492 0.32837,1.32293 0.49048,2.00549c0.49481,2.08339 0.63055,2.78575 0.76287,3.48649c0.13202,0.6993 0.25177,1.39962 0.36451,2.10001c0.11261,0.69961 0.21856,1.39967 0.52081,3.5c0.10071,0.69989 0.19995,1.39999 0.29999,2.10001c0.09997,0.69999 0.20001,1.39999 0.29999,2.09999c0.10003,0.69999 0.40039,2.79995 0.49987,3.49966c0.09919,0.69763 0.19709,1.39114 0.28949,2.07901c0.09131,0.67946 0.25849,2.00645 0.32532,2.65067c0.1283,1.23637 0.20447,2.39711 0.22815,2.94732c0.0448,1.03969 0.05066,1.52997 0.05585,2.45c0.00689,1.23082 0.00134,1.9725 0.00134,2.69417c0,0.74167 0,1.97917 0,2.93251c0,0.50915 0,1.56749 0,2.10666c0,1.07333 0,2.59717 0,3.07066c0,0.90801 -0.00006,1.78401 0,2.65201c0.00012,1.339 -0.00378,1.80406 0.01068,2.76399c0.00745,0.49506 0.0224,1.51683 0.15601,3.11999c0.04626,0.55561 0.11462,1.11902 0.25866,2.26935c0.07325,0.58502 0.16156,1.17325 0.29065,2.36533c0.12964,1.19739 0.17346,1.79812 0.22681,2.99866c0.02667,0.59979 0.04132,1.19995 0.05267,2.40002c0.00568,0.59994 0.00452,1.79999 0.00452,2.996c0,0.59049 0,1.172 0,2.29599c0,0.5365 0.00446,2.00803 -0.00134,2.85599c-0.00531,0.77603 -0.01923,1.52914 -0.08399,2.30402c-0.10998,1.31594 -0.27173,2.34652 -0.35064,2.91998c-0.08472,0.61554 -0.17646,1.27576 -0.26856,1.9845c-0.09869,0.75927 -0.29822,2.4432 -0.39532,3.371c-0.10175,0.9722 -0.19764,1.97482 -0.28949,2.99252c-0.09186,1.0173 -0.1764,2.01984 -0.25348,2.99249c-0.07349,0.92737 -0.19257,2.58738 -0.23566,3.29383c-0.03803,0.6242 -0.06628,1.17459 -0.08551,1.65899c-0.01691,0.42627 -0.03534,1.43735 -0.03601,2.45334c-0.00049,0.72299 0,1.53601 0,2.54584c0,0.80701 0,1.698 0,2.64899c0,0.49051 0,1.98636 0,2.98202c0,0.49381 0,1.46848 0,1.94733c0,1.3905 0,2.27316 0,3.13183c0,0.85065 0.00067,1.70932 0,2.59198c-0.00067,0.91333 0.00378,1.82724 -0.03601,2.70002c-0.0362,0.79403 -0.22974,2.00827 -0.50568,2.67498c-0.32092,0.77543 -0.78607,1.88486 -0.94098,2.36768c-0.34674,1.08069 -0.50165,1.6727 -0.656,2.28265c-0.15674,0.61936 -0.53504,2.47364 -0.61847,3.06467c-0.08032,0.56909 -0.18384,1.64984 -0.25751,2.65003c-0.03461,0.46991 -0.13007,1.7637 -0.26935,2.52133c-0.1867,1.01532 -0.41784,1.59524 -0.59448,2.65033c-0.14624,0.87359 -0.12152,1.90014 -0.12152,2.72033c0,0.9585 0,1.85401 0,2.54865c0,1.02734 0,1.974 0,2.82733c0,0.94135 0,1.70935 0,2.6507c0,1.00799 0.01092,1.76404 0,2.67465c-0.01068,0.88953 -0.74384,1.59393 -1.35181,1.38116c-1.02331,-0.35812 -1.29541,-1.18374 -1.9815,-2.2145c-0.42994,-0.64591 -0.6847,-0.9906 -1.22919,-1.75c-0.60272,-0.84067 -0.93018,-1.28666 -1.60419,-2.25c-0.72235,-1.03244 -1.086,-1.57648 -1.45862,-2.12799l-0.37469,-0.55951l-0.3747,-0.56449l-0.74133,-1.13202"/>
  <path fill="none" stroke="#000000" stroke-width="5" stroke-dasharray="null" stroke-linejoin="null" stroke-linecap="null" id="svg_63" d="m538,294c1.22168,-0.87851 2.16669,-1 2.82532,-1c1.00799,0 1.88446,-0.03101 2.59601,-0.43601c0.93188,-0.53042 1.59222,-0.87933 2.43603,-1.164c0.62683,-0.21145 1.66425,-0.4978 2.38629,-0.69998c1.05994,-0.29678 1.72931,-0.4367 2.70166,-0.89868c0.8252,-0.39206 1.70606,-0.76529 2.40204,-0.79684c1.01575,-0.04605 1.72473,-0.55372 2.65265,-0.83783c0.68335,-0.20926 0.98852,0.89563 0.99866,1.52133c0.01623,0.99856 0.0014,1.85367 0.00134,2.79867c-0.00012,1.03467 0.00549,1.76627 -0.02081,2.51334c-0.02637,0.74777 -0.1792,2.18414 -0.34534,2.86084c-0.17371,0.70761 -0.44061,1.46802 -0.96716,2.80582c-0.20502,0.52087 -0.43122,1.07464 -0.93866,2.25601c-0.26648,0.62039 -0.54651,1.2493 -0.83704,1.88101c-0.29077,0.63229 -0.88061,1.86838 -1.49231,3.02832c-0.29816,0.56534 -0.60675,1.11881 -0.91949,1.668c-0.63111,1.10834 -0.96576,1.6673 -1.64588,2.83334c-0.35528,0.60913 -0.7182,1.23548 -1.086,1.8765c-0.37353,0.65097 -0.74914,1.30997 -1.12201,1.97549c-0.74505,1.32993 -1.46008,2.64725 -1.80365,3.29267c-0.33636,0.63189 -0.66021,1.25122 -0.97497,1.854c-0.30524,0.58453 -0.88117,1.69403 -1.16004,2.21066c-0.75531,1.39945 -1.00183,1.8114 -1.48266,2.61335c-0.49774,0.83017 -0.77924,1.26861 -1.70398,2.84399c-0.36731,0.62573 -0.75141,1.30167 -1.15802,2.00699c-0.41736,0.724 -0.83887,1.45318 -1.26599,2.169c-0.41498,0.69547 -0.79804,1.36689 -1.57599,2.49067c-0.32483,0.46923 -0.90979,1.20391 -1.4375,1.70834c-0.63672,0.60861 -1.46576,1.38794 -1.85181,1.86499c-0.56018,0.69217 -1.44623,1.35742 -2.12671,2.04401c-0.55902,0.56402 -1.09375,1.2055 -1.65863,1.74133c-0.60534,0.57425 -1.53235,1.07449 -2.19769,1.27017l-0.76935,0.18366l-0.80932,0.16366"/>
  <path fill="none" stroke-width="5" stroke-dasharray="null" stroke-linejoin="null" stroke-linecap="null" id="svg_64" d="m594,268c0,1.79999 0.03625,2.63986 -0.43597,3.41068c-0.49274,0.80426 -0.96088,1.45233 -1.37836,2.05099c-0.69037,0.98996 -1.22772,1.53537 -1.52167,1.87033c-0.70306,0.80115 -1.12012,1.28357 -1.57867,1.83734c-1.09516,1.32257 -1.71442,2.12262 -2.39465,2.98932c-0.72516,0.92395 -1.48169,1.89359 -2.27399,2.883c-0.80506,1.00531 -1.61572,2.01037 -2.45404,2.97302c-1.60358,1.8414 -2.40863,2.64474 -3.18531,3.38266c-0.73107,0.69461 -1.45202,1.30798 -2.13153,1.8735l-0.64447,0.5105l-0.6065,0.4585l-0.56549,0.40948" stroke="#000000"/>
  <path fill="none" stroke="#000000" stroke-width="5" stroke-dasharray="null" stroke-linejoin="null" stroke-linecap="null" id="svg_65" d="m575,289c0.87848,1.2215 0.78937,2.16611 1.16669,3c0.29589,0.65396 1.53778,0.86768 1.82263,1.61066c0.3111,0.81149 0.82873,1.38363 1.00934,2.19067c0.19622,0.87698 0.1372,1.65897 0.64868,2.25134c0.56641,0.65601 1.00989,1.43546 1.75269,1.94333c0.64685,0.44226 1.01934,1.28067 1.24279,2.00318c0.31476,1.01785 0.18073,2.04007 0.44251,2.80081c0.26825,0.77957 1.11731,1.3974 1.71466,2c0.60272,0.60803 1.23987,1.3447 1.58935,2.02536c0.50312,0.97983 0.58966,1.78854 1.03601,2.57464c0.41175,0.72513 0.42121,1.64823 0.74616,2.41434c0.34338,0.80951 1.11114,1.44022 1.5885,1.935c0.46936,0.48651 1.3523,1.53064 2.03736,1.96268c0.74041,0.46692 1.43127,1.04864 1.90264,1.58267c0.68634,0.77756 1.24122,1.46475 2.00452,1.70083c0.85632,0.26487 1.68781,0.4487 2.39545,1.10431c0.59363,0.54999 1.32519,0.95685 1.92535,1.47486c0.62872,0.54266 1.48297,0.91092 2.27466,1.37716c0.80872,0.47626 1.03906,1.21009 1.79999,1.80533c0.77881,0.60926 1.44684,0.80011 2.23333,1.57617c0.43757,0.43177 1.16669,1.16666 1.66138,1.66132c0.86249,0.86237 1.30023,1.39114 2.172,2.00534c0.62994,0.44382 1.3493,0.79999 2.15265,1.35849l0.51397,0.41236l0.36805,0.29715l1.04797,0.84133"/>
  <path fill="none" stroke="#000000" stroke-width="5" stroke-dasharray="null" stroke-linejoin="null" stroke-linecap="null" id="svg_66" d="m578,204c1.79999,0 2.65808,-0.02946 3.48669,0.28667c0.78565,0.29974 1.68402,0.87358 2.20398,1.20266c0.92078,0.58272 1.26618,0.82614 2.052,1.368c0.92664,0.63892 1.44501,1.0036 2.568,1.80518c0.59186,0.42245 1.19073,0.85638 1.78802,1.2975c0.59204,0.43725 1.17627,0.8594 2.23462,1.70666c0.9325,0.74654 1.32904,1.1055 2.04169,1.72916l0.59265,0.52366"/>
  <g id="svg_77" stroke="null">
   <path fill="none" stroke-width="5" stroke-dasharray="null" stroke-linejoin="null" stroke-linecap="null" id="svg_67" d="m392.68907,43c0,2.30246 0,3.48765 0,4.5359c0,1.25748 0.00008,2.31098 0,3.38807c-0.00012,1.35138 0.02192,2.56463 -0.1118,3.45488c-0.20222,1.34621 -0.54716,2.21203 -1.06576,3.35269c-0.32962,0.72494 -0.74893,1.55951 -1.87987,3.613c-0.69411,1.26033 -1.49755,2.64522 -2.37232,4.14521c-0.92976,1.59425 -1.91191,3.2536 -2.9266,4.95892c-1.02985,1.7308 -2.06626,3.46136 -4.09173,6.83814c-0.96278,1.6051 -1.88591,3.14361 -2.77132,4.613c-0.84426,1.40107 -1.6489,2.73157 -2.41755,3.98797c-0.72526,1.18553 -1.40345,2.3014 -2.67307,4.28389c-0.56479,0.88192 -1.09859,1.68384 -1.59204,2.41558c-0.45018,0.66757 -0.86542,1.26929 -1.23827,1.81414c-0.33465,0.48905 -0.64636,0.91688 -1.10066,1.66673c-0.18427,0.30415 -0.3273,0.57556 -0.41864,0.81765c-0.07649,0.20284 -0.11824,0.38456 -0.10025,0.53461c0.01564,0.13037 0.0729,0.26347 0.30051,0.39485c0.13472,0.07774 1.22183,0.22604 2.40224,0c1.0492,-0.20092 2.1763,-0.63398 2.92815,-1.05525c1.21727,-0.68205 1.97672,-1.35759 2.77724,-2.05677c0.84135,-0.73485 2.15143,-1.91702 2.62305,-2.30465c0.9931,-0.81627 2.15019,-1.65939 2.80407,-2.10634c0.70599,-0.48257 1.47888,-0.99598 3.28105,-2.08604c1.01973,-0.6168 2.12,-1.24744 3.26666,-1.90456c1.17344,-0.67246 2.35768,-1.34251 3.52609,-2.01069c1.13598,-0.64961 2.22805,-1.25602 4.12663,-2.41799c0.8002,-0.48974 1.48751,-0.94255 2.07754,-1.35422c0.51544,-0.35961 0.95151,-0.69455 1.66933,-1.25529c1.09947,-0.85886 2.12228,-1.53984 2.82399,-2.04301l0.95411,-1.0013l0.59314,-0.84124l0.92312,-0.83576" stroke="#000000"/>
   <path fill="none" stroke-width="5" stroke-dasharray="null" stroke-linejoin="null" stroke-linecap="null" id="svg_68" d="m356,128.17106c2.22757,0 3.53177,-0.02805 4.64336,-0.58091c0.66076,-0.32862 1.86195,-1.11523 2.35073,-1.41514c1.73823,-1.06655 2.42207,-1.46764 3.15132,-1.89998c0.77369,-0.45868 1.58952,-0.94113 2.43915,-1.45446c0.88525,-0.53484 1.80097,-1.09354 2.73401,-1.69032c1.94353,-1.24312 2.92468,-1.92134 3.91698,-2.61016c0.99726,-0.69225 1.98316,-1.39389 2.95806,-2.08735c0.95563,-0.67976 1.8808,-1.34467 2.78116,-1.96941c1.66142,-1.15285 2.42579,-1.64665 3.14129,-2.09303c0.66456,-0.4146 1.88364,-1.12652 2.44243,-1.43961c1.03025,-0.57723 2.44062,-1.35369 3.2922,-1.88446c1.16829,-0.72817 1.82909,-1.20141 3.09935,-2.16443c0.87073,-0.66012 2.0447,-1.4177 2.82878,-1.83555c0.83527,-0.44511 1.68245,-0.84123 3.1153,-1.45315l1.2461,-0.3813" stroke="#000000"/>
   <path fill="none" stroke-width="5" stroke-dasharray="null" stroke-linejoin="null" stroke-linecap="null" id="svg_69" d="m388.7581,87.55102c0,2.30245 0,3.47585 0,4.6071c0,1.26206 0,2.3612 0,3.44004c0,1.10634 0,2.06812 0,3.14521c0,1.1295 0.00844,2.78449 -0.00176,3.78552c-0.01399,1.37405 -0.03407,2.25527 -0.21661,3.58505c-0.1296,0.94416 -0.30607,1.92978 -0.77965,3.38151c-0.47101,1.44387 -0.94243,2.31696 -1.37978,3.16662c-0.42235,0.82053 -1.14229,2.39902 -1.3348,3.19195c-0.28423,1.1706 -0.28623,2.03432 -1.08887,3.53831c-0.45022,0.84364 -1.17008,1.61121 -1.82397,2.50796c-1.05172,1.44236 -1.36514,1.98886 -1.94189,3.12709c-0.57662,1.13796 -0.80803,1.71886 -1.27757,2.81174c-0.61238,1.42527 -1.06792,2.56061 -1.54901,3.38412c-0.72403,1.23935 -1.44725,1.92531 -2.36449,2.84428l-0.91724,0.91723l-0.65517,0.65516" stroke="#000000"/>
   <path fill="none" stroke-width="5" stroke-dasharray="null" stroke-linejoin="null" stroke-linecap="null" id="svg_70" d="m382.20648,112.44718c2.22757,0 3.43328,-0.00388 4.45509,0.55732c1.0842,0.59545 1.96713,0.99644 3.09807,1.91351c0.81951,0.66454 1.67257,1.51594 2.13799,1.94583c0.94464,0.87253 2.33178,2.08317 2.7744,2.43546c0.83179,0.66204 2.01759,1.49752 3.03997,2.32014c0.94211,0.75804 1.7246,1.53031 2.62064,2.40227c0.73322,0.7135 1.58437,1.40344 2.53024,1.94976c1.2032,0.69496 2.13144,1.13231 3.08491,1.5654c1.3791,0.62643 2.2364,0.97887 3.40513,1.35925c1.23322,0.40136 2.17886,0.67069 3.0242,1.33827c0.79924,0.63115 1.99016,0.55732 3.04172,0.55732l0.95216,0l1.21423,0" stroke="#000000"/>
   <path fill="none" stroke-width="5" stroke-dasharray="null" stroke-linejoin="null" stroke-linecap="null" id="svg_71" d="m424.13685,78.37875c0.74602,4.26117 0.91872,4.79744 1.33764,5.89646c0.42223,1.10773 1.0556,2.62465 1.43676,3.47148c0.51653,1.14752 0.90833,1.92025 1.59336,3.29852c0.56855,1.14397 0.88258,1.7751 1.188,2.44594c0.63693,1.39894 1.00238,2.10479 1.65102,4.32408c0.20622,0.70555 0.35002,1.40399 0.52765,2.72197c0.15827,1.17439 -0.73502,2.89693 0.58962,3.6676c0.72102,0.41948 0.84822,-1.58506 0.84822,-2.70931l0,-0.84123l0,-1.24219" stroke="#000000"/>
   <path fill="none" stroke-width="5" stroke-dasharray="null" stroke-linejoin="null" stroke-linecap="null" id="svg_72" d="m434.61944,91.48199c0,-2.22755 -0.00547,-3.40239 0.65517,-4.58613c0.43095,-0.77223 1.20279,-1.67544 1.69249,-2.21118c0.56083,-0.61356 1.2315,-1.28524 2.03234,-2.00283c1.91994,-1.72036 3.1277,-2.64341 4.42714,-3.64619c1.36807,-1.05575 2.79484,-2.11598 4.24152,-3.16836c1.42565,-1.03708 2.80903,-2.0241 4.1236,-2.93251c2.25483,-1.55813 3.15952,-2.14442 3.91173,-2.61017c0.60678,-0.37569 1.09671,-0.65803 1.49179,-0.84516c0.30015,-0.14216 0.5376,-0.22888 0.72526,-0.25551c0.28252,-0.04009 1.39202,-0.60509 2.43743,0.05744c0.88045,0.55798 0.69315,2.10783 0.83666,2.99125c0.16867,1.03826 0.36637,2.18275 0.3459,3.38063c-0.03055,1.78609 -0.20982,2.37463 -0.62193,3.49246c-0.43183,1.17136 -0.75533,1.75218 -1.83973,3.60077c-0.39488,0.67318 -0.82243,1.35817 -1.72611,2.74644c-0.45319,0.69616 -0.90097,1.38341 -1.81002,2.66258c-0.81863,1.15193 -1.56025,2.09871 -2.20833,2.87572c-0.79936,0.95839 -1.68169,2.00513 -2.15767,2.80934c-0.60761,1.02665 -0.98358,2.16337 -1.61955,3.05043c-0.79496,1.10878 -2.0653,1.56352 -2.68967,2.06681c-0.92932,0.7491 -2.30286,1.28467 -2.96566,2.07032c-0.73526,0.87155 -1.12398,1.87365 -1.8017,3.09608c-0.44882,0.80951 -0.00004,1.76734 1.21464,1.77133c1.11642,0.00367 2.1793,-0.01688 3.53441,-0.43677c0.84962,-0.26326 1.74727,-0.69131 2.68879,-1.16357c0.9667,-0.48488 2.35356,-1.27529 3.21422,-1.8006c1.2048,-0.73536 1.9327,-1.2044 3.24302,-1.98886l0.84519,-0.45206" stroke="#000000"/>
   <path fill="none" stroke-width="5" stroke-dasharray="null" stroke-linejoin="null" stroke-linecap="null" id="svg_73" d="m392.68907,142.58463c1.42042,1.16182 1.80906,2.18414 2.11049,3.08538c0.56878,1.70064 0.65856,2.26461 0.89737,3.49201c0.25984,1.33556 0.37008,2.02985 0.54923,3.4265c0.17319,1.3501 0.26888,2.62377 0.29899,3.24699c0.06142,1.27127 0.0707,2.6486 0.07314,3.40247c0.00552,1.69119 0.00176,2.64686 0.00176,3.67589c0,1.09719 0,2.25726 0,3.47499c0,1.27013 0,2.58744 0,3.94668c0,2.82331 0,4.27537 0,5.73923c0,1.46122 0,2.90542 0,4.31818c0,1.36688 0,2.67349 0,3.90542c0,2.18212 0,3.1083 0,3.93097c0,0.73356 0,1.39244 0,1.99104c0,0.55273 0,1.07401 0,1.57828c0,1.01505 0,1.55099 0,2.66999c0,1.1295 0,2.20659 0,3.58636c0,1.36493 0,1.02031 0,-0.2079l0,-0.90501" stroke="#000000"/>
   <path fill="none" stroke-width="5" stroke-dasharray="null" stroke-linejoin="null" stroke-linecap="null" id="svg_74" d="m400.55102,146.5156c1.16181,-0.11181 2.40923,-0.56403 3.15069,-0.92312c1.3212,-0.63987 2.2502,-1.10668 3.06419,-1.45424c1.63878,-0.69973 2.33825,-0.95718 3.09714,-1.24961c1.65738,-0.63864 2.53464,-0.96148 3.42433,-1.28587c0.88801,-0.32378 1.75943,-0.64773 3.42432,-1.202c1.4788,-0.49232 2.17475,-0.69531 3.5215,-1.09194c0.67624,-0.19916 1.37566,-0.38759 3.68529,-1.09194c0.88309,-0.26931 1.81201,-0.56694 2.77328,-0.87464c0.97626,-0.31249 1.94913,-0.62738 2.90304,-0.9336c0.9168,-0.29432 1.76471,-0.62134 3.88203,-1.20812c1.28077,-0.35494 2.6374,-0.43414 3.29524,0.44529c0.63181,0.84465 0.46714,1.88272 0.46802,3.46209c0.0006,1.10068 0,1.72963 0,3.14478c0,0.78619 0,2.51582 0,3.45708c0,0.98055 0,1.98732 0,3.00719c0,1.01987 0,2.02663 0,3.94844c0,1.71216 0,2.46035 0,3.75234c0,1.07184 0.00952,1.98646 -0.0002,3.59377c-0.00696,1.15184 0.07782,2.25142 -0.37193,3.58024c-0.28715,0.84841 -0.7866,1.97854 -0.93819,3.23388c-0.11573,0.95849 -0.48074,2.24956 -0.89453,3.05394c-0.37993,0.73858 -1.13062,2.38244 -1.42389,3.09585c-0.31895,0.77588 -0.64833,1.60591 -1.33128,3.3719c-0.35106,0.90778 -0.69519,1.81771 -1.37323,3.58156c-0.3199,0.83216 -0.62837,1.62259 -1.19152,3.07839c-0.2558,0.6613 -0.70558,1.84558 -1.21071,3.25483l-0.34246,1.209" stroke="#000000"/>
   <path fill="none" stroke-width="5" stroke-dasharray="null" stroke-linejoin="null" stroke-linecap="null" id="svg_75" d="m403.17167,164.86014c1.31032,0 2.30318,0.03599 3.48762,-0.0059c1.04989,-0.03713 2.31066,-0.27102 3.44312,-0.57938c0.92204,-0.25107 2.01471,-0.58183 3.33348,-0.94344c0.75089,-0.2059 2.40987,-0.64196 3.295,-0.87703c0.90913,-0.24143 1.83177,-0.48808 2.75561,-0.74492c0.9176,-0.2551 2.6891,-0.76721 4.30794,-1.30095c0.75129,-0.2477 1.4562,-0.49721 2.73245,-0.95741c1.08919,-0.39274 2.66607,-0.91896 3.74491,-1.1308l1.18408,-0.01179" stroke="#000000"/>
   <path fill="none" stroke-width="5" stroke-dasharray="null" stroke-linejoin="null" stroke-linecap="null" id="svg_76" d="m400.55102,191.06662c2.22757,0 3.43456,0.0063 4.48304,-0.57131c1.23071,-0.67797 2.13616,-1.15665 3.02401,-1.44878c0.54279,-0.17858 1.88699,-0.56895 3.6307,-1.03733c1.03625,-0.27835 2.16643,-0.56944 3.36099,-0.88055c1.2339,-0.32134 2.48157,-0.64568 3.71475,-0.97486c1.19524,-0.31907 2.33098,-0.60786 4.28039,-1.20202c0.78512,-0.23931 1.44077,-0.45706 1.9714,-0.67416c1.07736,-0.44078 2.13428,-0.99804 3.3136,-1.07467l1.17929,-0.28828l0.7862,-0.55821" stroke="#000000"/>
  </g>
 </g>
</svg>