<svg xmlns="http://www.w3.org/2000/svg" xmlns:svg="http://www.w3.org/2000/svg" width="640" height="480">
 <!-- Created with SVG-edit - http://svg-edit.googlecode.com/ -->
 <g>
  <title>Layer 1</title>
  <path d="m77,103c1.410667,0.893333 1.764648,1.519592 2.321167,2.642998c0.331474,0.669136 0.688499,1.387001 0.969002,2.166c0.423172,1.175224 0.550362,1.991142 0.659164,2.801666c0.054985,0.409615 0.103539,1.256729 0.384003,2.556c0.200203,0.927467 0.3694,1.394524 0.708328,2.354172c0.173752,0.491959 0.561569,1.480278 0.958336,2.479164c0.399239,1.005104 0.610031,1.512878 0.979164,2.583336c0.192451,0.55809 0.410759,1.134018 0.854172,3.083328c0.162704,0.715271 0.286308,1.471397 0.413994,2.253006c0.131081,0.802391 0.251991,1.622093 0.378006,2.450996c0.126656,0.833099 0.240761,1.667206 0.541328,3.296005c0.146149,0.791977 0.313759,1.563797 0.490501,2.319c0.174004,0.743469 0.360794,1.473419 0.553505,2.192993c0.190979,0.713104 0.389709,1.418945 0.78933,2.821335c0.199364,0.699631 0.398872,1.395935 0.595497,2.086502c0.194031,0.681442 0.569031,2.005341 0.747337,2.641998c0.17234,0.615356 0.488335,1.772095 0.773163,2.814163c0.256714,0.939209 0.496727,1.793594 0.636673,2.186676c0.522003,1.466217 0.890259,2.107391 1.226494,2.70816c0.444603,0.794403 0.962715,1.745865 1.020836,1.429337c0.134644,-0.733246 0.008308,-1.357529 -0.001335,-2.748169c-0.005013,-0.722717 0.083755,-1.440277 -0.165329,-2.618668c-0.176506,-0.835037 -0.611252,-1.454834 -0.78067,-2.509827c-0.123589,-0.769562 -0.21933,-1.823502 -0.405334,-2.533005l-0.294662,-0.852661" id="svg_4" stroke-width="5" stroke="#000000" fill="none"/>
  <path d="m91,122c1.7715,-2.649666 2.275215,-3.194008 2.843834,-3.777664c0.608498,-0.624596 1.256485,-1.267982 1.933502,-1.917c0.683311,-0.655045 1.3592,-1.308922 2.722664,-2.472c0.627472,-0.535255 1.238419,-1.013512 1.833,-1.438499c0.563263,-0.402611 1.119011,-0.760017 1.670998,-1.069504c0.533768,-0.299271 1.061714,-0.588303 2.162666,-0.991997c1.104492,-0.404991 1.689026,-0.529404 2.269333,-0.672005c1.171799,-0.287941 1.769699,-0.404297 2.365334,-0.543999c1.802597,-0.422783 2.399826,-0.600632 3.003166,-0.765495c1.215988,-0.332275 1.830078,-0.496468 2.452667,-0.642006c0.626785,-0.146515 1.906822,-0.399643 3.226837,-0.540497c0.667519,-0.071228 1.341187,-0.110489 2.015999,-0.148499c0.67453,-0.037987 2.016945,-0.089821 3.333336,-0.1875c0.646362,-0.047958 1.286949,-0.114784 2.573334,-0.258667c0.655975,-0.073372 1.326332,-0.152504 2.017494,-0.222c0.715515,-0.071945 2.242233,-0.191216 3.061508,-0.231171c0.852753,-0.041588 1.733932,-0.067459 2.636993,-0.085495c0.918945,-0.018349 1.847992,-0.026833 2.781006,-0.031502c0.931,-0.004662 2.763,-0.004501 3.653336,-0.004501c0.87233,0 1.728653,0 2.570999,0c0.830322,0 1.650665,0 2.462997,0c0.806335,0 2.408997,0 3.208832,0c0.798828,0 1.595657,0 2.389496,0c0.789841,0 1.574677,0 2.3535,0c0.771835,0 2.290497,-0.000511 3.035004,0.000168c0.731491,0.000664 1.447006,0.002167 2.143494,0.010498c0.67453,0.008072 1.324158,0.021103 1.945511,0.046501c0.590683,0.024147 2.150192,0.145706 3.004486,0.295502c0.748352,0.131218 1.402496,0.342903 2.628342,0.526001c0.874527,0.130623 1.73085,0.019463 2.557159,0.342995c0.751312,0.294167 1.096344,1.259598 1.138672,2.125671c0.050674,1.036766 0.004501,1.986 0.004501,2.662498c0,0.775497 0.026886,1.824188 -0.010666,2.764832c-0.027115,0.679054 -0.159683,1.663574 -0.446671,2.450668c-0.307602,0.843651 -0.85025,1.633141 -1.55249,2.3265c-0.493561,0.48732 -1.088776,0.916016 -1.823502,1.781502c-0.518616,0.610901 -0.95282,1.348824 -1.428009,2.124001c-0.508865,0.830132 -1.060165,1.717651 -1.384003,2.164993c-0.70668,0.976173 -1.163986,1.478745 -1.687988,2.00267c-0.579041,0.578949 -1.259552,1.186203 -2.064011,1.802994c-1.898483,1.455597 -3.095749,2.187897 -4.381332,2.990677c-1.361465,0.850159 -2.794968,1.70137 -4.263,2.560501c-1.473297,0.862213 -2.936188,1.698853 -4.352997,2.515488c-2.606903,1.502609 -3.749573,2.172592 -4.781326,2.793335c-0.940063,0.565582 -1.793869,1.093048 -2.574005,1.587006c-0.72374,0.458252 -1.397125,0.896286 -2.033997,1.317001c-1.21817,0.804733 -1.815231,1.208603 -2.414673,1.605331c-0.596222,0.394592 -1.189102,0.783768 -1.780502,1.160995c-0.583298,0.37207 -1.159698,0.734024 -1.735489,1.070999c-1.111176,0.650314 -1.66246,0.932587 -2.20668,1.20401c-0.541817,0.270233 -1.095222,0.528336 -1.661995,0.787491c-0.585205,0.267578 -1.198929,0.539627 -1.841995,0.832504c-1.410049,0.642197 -2.182022,1.009583 -2.996002,1.398666c-0.847038,0.404877 -1.715538,0.824982 -2.599503,1.248001c-0.888031,0.424973 -1.770493,0.847412 -2.644501,1.248001c-1.6633,0.762344 -2.44664,1.091187 -3.189331,1.395996c-0.701736,0.287994 -1.369087,0.54863 -1.999496,0.793503c-0.59494,0.231094 -1.158485,0.443665 -1.684502,0.658493c-0.965378,0.394257 -1.398529,0.599548 -1.802666,0.801346c-0.380119,0.189804 -0.730209,0.379745 -1.054504,0.560989c-0.300987,0.168213 -0.574715,0.330231 -0.829498,0.471008c-0.438599,0.242355 -0.629898,0.332504 -0.805336,0.399994c-0.157875,0.06073 -0.305992,0.110214 -0.448494,0.128998c-0.83564,0.110138 -1.623421,0.045853 -1.520836,0.041672c0.701744,-0.02861 1.476936,-0.611877 2.321335,-0.878662c0.825615,-0.260849 1.828278,-0.365997 2.431335,-0.883011c0.781113,-0.669662 1.241623,-1.294159 1.933998,-1.668991c0.947586,-0.512985 1.858116,-0.552383 2.474998,-0.674667c1.010864,-0.200378 1.730141,-0.449661 2.474335,-0.766663c0.781815,-0.333023 1.56266,-0.736069 2.764832,-1.328003c0.819862,-0.403702 1.246422,-0.614395 2.179169,-1c0.50267,-0.207809 1.036469,-0.432938 2.927002,-1.000168c0.712036,-0.213638 1.46524,-0.404709 2.240997,-0.610504c0.793564,-0.210526 1.59845,-0.421295 2.403,-0.6465c0.800797,-0.224152 2.351715,-0.701782 3.083832,-0.963837c0.706528,-0.252899 1.377121,-0.519119 2.014496,-0.78299c0.606247,-0.250977 1.708511,-0.729004 2.205338,-0.941345l1.259171,-0.490158l0.931503,-0.2565l0.679489,-0.094498" id="svg_5" stroke-width="5" stroke="#000000" fill="none"/>
  <path d="m115,37c0.916,2.972 0.972649,3.6828 1.02533,4.457333c0.056503,0.830814 0.191948,2.1651 0.260002,2.630669c0.141884,0.970657 0.325325,1.994667 0.419167,2.53083c0.096825,0.553169 0.395943,2.324123 0.496834,2.951836c0.103447,0.64362 0.203308,1.302353 0.434669,2.650665c0.118088,0.688202 0.236183,1.384045 0.530663,2.778667c0.148071,0.70126 0.315094,1.399212 0.486,2.095501c0.170433,0.694386 0.523064,2.068233 0.694672,2.747334c0.169708,0.67157 0.490501,1.989502 0.631165,2.635334c0.273079,1.253792 0.386772,1.864254 0.500664,2.459332c0.218796,1.143204 0.307785,1.692856 0.621002,3.219833c0.097519,0.475433 0.303543,1.393768 0.535835,2.293335c0.117645,0.455589 0.528778,1.883247 0.685333,2.391998c0.327385,1.063889 0.504662,1.607788 0.853333,2.706665c0.172997,0.545227 0.355347,1.078491 0.803833,2.607834c0.272888,0.930534 0.392128,1.379822 0.610832,2.2575c0.215889,0.866394 0.511124,2.206406 0.610664,2.667999c0.200935,0.931801 0.393654,1.857452 0.600006,2.748001c0.194038,0.837402 0.497253,1.960304 0.699997,2.648499c0.197327,0.6698 0.512482,1.684204 0.699997,2.419502c0.214333,0.840477 0.405251,1.871155 0.5,2.477501c0.105881,0.677605 0.304489,2.290031 0.399841,3.237831c0.103714,1.030853 0.19899,2.130402 0.28949,3.282005c0.093277,1.187065 0.177811,2.394463 0.25351,3.605995c0.074936,1.199142 0.194016,3.497856 0.235657,4.569c0.039536,1.016876 0.067032,1.985939 0.08551,2.913002c0.017746,0.890953 0.026794,1.751991 0.031494,2.588997c0.004608,0.818993 0.004501,2.427002 0.004501,3.227005c0,0.799995 0,1.599998 0,2.399994c0,0.800003 0,1.600006 0,2.400002c0,0.800003 0,2.400002 0,3.200165c0,0.80117 0,1.60434 0,2.410507c0,0.810158 0,1.625328 0,2.446495c0,0.828171 0.000488,2.509506 -0.000168,3.363998c-0.000671,0.861496 -0.002319,1.72702 -0.010498,2.593506c-0.008163,0.864517 -0.021652,1.724106 -0.046494,2.5755c-0.024536,0.840607 -0.104034,2.476898 -0.164505,3.267822c-0.059616,0.77977 -0.135773,1.555145 -0.225006,2.334015c-0.090714,0.791824 -0.197617,1.602997 -0.315002,2.441986c-0.122513,0.875687 -0.404953,2.766006 -0.559494,3.793671c-0.161461,1.073669 -0.328262,2.179153 -0.4935,3.303009c-0.165771,1.127472 -0.32692,2.244934 -0.475502,3.338989c-0.143318,1.055283 -0.381546,2.99649 -0.466995,3.85817c-0.078117,0.78772 -0.135269,1.510162 -0.181503,2.173508c-0.042587,0.611023 -0.074425,1.177429 -0.109497,1.70549c-0.033028,0.497284 -0.114082,1.427063 -0.173172,1.872009c-0.058311,0.439087 -0.130524,0.873138 -0.203995,1.306488c-0.07386,0.435638 -0.152092,0.875565 -0.222,1.324509c-0.071487,0.459076 -0.190964,1.42308 -0.231171,1.932495c-0.041252,0.522614 -0.067268,1.053894 -0.085495,1.587006c-0.018082,0.5289 -0.026764,1.047989 -0.031502,1.550995c-0.004532,0.480988 -0.004501,1.352997 -0.004501,2.078339c0,0.858002 0,1.94133 0,2.751999c0,0.6465 0,1.610672 0,2.414658c0,0.822006 0,2.08934 0,2.753845c0,1.020828 0,1.820831 0,2.620834c0,1.004501 0,1.857162 0,2.821335c0,0.803986 0,1.625992 0,2.657486c0,0.942001 0,1.690506 0,2.563675c0,0.997498 0,1.670837 0,2.857498c0,0.792007 0.065865,1.702438 -0.000336,2.600494c-0.057297,0.777283 -0.437233,1.665817 -0.850334,2.5755c-0.295029,0.649673 -0.661896,1.244034 -1.039497,2.461502c-0.201996,0.651276 -0.382088,1.636063 -0.630669,2.383331c-0.266548,0.801285 -0.697639,1.787369 -0.958328,2.479172c-0.255096,0.676941 -0.436836,1.684006 -0.520836,2.5c-0.084,0.815994 -0.354134,2.063599 -0.541664,2.5625c-0.331757,0.882599 -0.782402,2.021805 -0.941002,2.473495c-0.338196,0.963181 -0.512093,1.459244 -0.807503,2.453339c-0.397583,1.337906 -0.540497,2.067993 -0.688995,2.906494l-0.1875,0.9375l-0.408005,0.756012" id="svg_6" stroke-width="5" stroke="#000000" fill="none"/>
  <path d="m207,80c0,1.85733 -0.003494,2.518845 0.000168,3.643333c0.002213,0.680008 0.006271,1.44075 0.056992,2.279999c0.085327,1.411674 0.157593,1.920868 0.300003,3c0.075287,0.57048 0.253494,1.770004 0.347336,2.400002c0.096817,0.650002 0.296921,2.009804 0.395508,2.720169c0.101456,0.730965 0.201462,1.484138 0.299988,2.260498c0.101517,0.799973 0.201523,1.62516 0.300003,2.476501c0.101563,0.877991 0.300827,2.719414 0.400177,3.68383c0.102005,0.99025 0.203079,2.0028 0.310486,3.032997c0.108902,1.044464 0.222015,2.09906 0.346512,3.159004c0.124817,1.062729 0.404907,3.177689 0.564163,4.222168c0.158096,1.036865 0.329865,2.064583 0.503998,3.085495c0.173203,1.015419 0.351028,2.025047 0.522003,3.031502c0.170364,1.002884 0.490479,3.00386 0.631165,4.004669c0.140656,1.000549 0.267517,2.003952 0.385498,3.010498c0.118362,1.009804 0.227173,2.025146 0.331497,3.046494c0.105011,1.027985 0.305328,3.109436 0.404343,4.164001c0.099655,1.061432 0.197556,2.126831 0.28949,3.193512c0.091736,1.064331 0.17778,2.123764 0.25351,3.175491c0.074905,1.040283 0.194122,3.076355 0.235825,4.066666c0.040894,0.971039 0.069458,1.924316 0.096008,2.860504c0.026108,0.920151 0.048431,1.825409 0.078003,2.716507c0.029144,0.878235 0.109604,2.599777 0.168655,3.444321c0.058334,0.834152 0.1297,1.655823 0.20401,2.464508c0.073059,0.794983 0.150543,1.574539 0.222,2.338501c0.069855,0.746719 0.189926,2.185257 0.231155,2.875504c0.040009,0.669785 0.067093,1.319901 0.08551,1.949997c0.017822,0.609924 0.026764,1.199982 0.031494,1.769989c0.004562,0.549988 0.004501,1.590012 0.004501,2.081009c0,0.477005 0,0.945999 0,1.412994c0,0.471008 0,0.951996 0,1.449005c0,0.518997 0,1.647003 0,2.265671c0,0.650665 0,1.325333 0,2.015991c0,0.698669 0,1.397339 0,2.087997c0,0.674667 0,1.944 0,2.52417c0,0.541168 0,1.044342 0,1.510498c0,0.430176 0,0.825333 0,1.186508l0,0.328156" id="svg_9" stroke-width="5" stroke="#000000" fill="none"/>
  <path d="m233,85c1.41066,-2.38533 1.881104,-2.972527 2.489334,-3.770668c0.58992,-0.774117 1.052689,-1.374977 2.010666,-2.229332c0.352203,-0.31411 1.161926,-0.905312 1.58667,-1.21067c0.872147,-0.626991 1.345184,-0.906761 2.580002,-1.955994c0.404266,-0.343506 1.191986,-1.130203 1.642654,-1.554672c0.499313,-0.470291 1.073715,-0.986557 1.75351,-1.540497c0.776611,-0.632828 2.763596,-2.081718 4.002167,-2.909668c1.374115,-0.918564 2.889023,-1.879257 4.514999,-2.884499c1.707184,-1.05545 3.490128,-2.12674 5.324997,-3.2085c1.858429,-1.095657 5.591156,-3.242336 7.430176,-4.269833c1.802429,-1.00705 3.577545,-1.975658 5.33548,-2.882999c1.718658,-0.887081 3.41626,-1.718792 5.101501,-2.469002c1.644531,-0.732075 4.886383,-1.972736 6.483337,-2.463001c1.554321,-0.477173 3.085785,-0.863266 4.576508,-1.188c1.435303,-0.312668 2.821259,-0.56044 4.144501,-0.773998c1.251587,-0.201992 3.523621,-0.521111 4.529999,-0.667c0.925629,-0.134186 1.778839,-0.261131 2.569489,-0.375c0.736359,-0.106049 1.427582,-0.203339 2.083496,-0.285c0.628113,-0.078201 1.84021,-0.199104 2.441193,-0.240334c0.60437,-0.041462 1.217255,-0.069981 1.84198,-0.096001c0.640625,-0.02668 1.301392,-0.049282 1.986023,-0.077999c0.712708,-0.029892 2.23819,-0.11105 3.056,-0.168667c0.846191,-0.059616 1.708099,-0.129997 2.573975,-0.204002c0.858124,-0.073341 1.696014,-0.149349 2.502014,-0.222c0.761993,-0.068684 2.105835,-0.187786 2.667175,-0.231167c0.488037,-0.03772 0.910217,-0.066059 1.273499,-0.085499c0.311096,-0.016647 0.577301,-0.026585 0.805481,-0.031498c0.197144,-0.004246 0.52652,-0.004501 0.671661,-0.004501c0.136169,0 0.264343,0 0.385529,0c0.115143,0 0.225311,0 0.331482,0c0.10318,0 0.304504,-0.000999 0.40451,0.000332c0.100037,0.001335 0.200531,0.00478 0.299988,0.021c0.100708,0.016426 0.202545,0.045105 0.300018,0.093002c0.102997,0.050613 0.304443,0.215115 0.399811,0.328667c0.103851,0.123634 0.199646,0.269035 0.28952,0.429001c0.094025,0.167366 0.17865,0.347702 0.253479,0.536999c0.075928,0.192097 0.19397,0.590244 0.236023,0.791164c0.041962,0.200474 0.072327,0.404446 0.106476,0.6105c0.034851,0.210281 0.137024,0.894707 0.582672,1.874668c0.256226,0.563457 0.792786,1.394485 1.098663,2.314667c0.292847,0.881035 0.283447,1.510761 0.501343,2.400002c0.22406,0.914402 0.701263,1.824089 0.981323,2.507999c0.303009,0.73999 0.619507,2.055237 0.681335,2.550667c0.13324,1.067822 0.150208,1.645401 0.184021,2.245331c0.071625,1.270473 0.148285,2.629635 0.206818,3.339001c0.060059,0.727989 0.133362,1.471581 0.214508,2.229004c0.082489,0.76992 0.173553,1.549461 0.268494,2.336998c0.095703,0.7938 0.295685,2.390976 0.395508,3.191498c0.100189,0.803474 0.200684,1.612915 0.299988,2.431503c0.100739,0.830414 0.201202,1.675858 0.300018,2.539497c0.101196,0.884361 0.301239,2.728371 0.399994,3.692665c0.101288,0.989037 0.20047,1.998291 0.299988,3.022499c0.100494,1.034126 0.199799,2.073357 0.300018,3.112503c0.099762,1.034187 0.299683,3.067528 0.399811,4.058167c0.098541,0.974701 0.197479,1.937157 0.28952,2.891998c0.091614,0.950493 0.178436,1.901031 0.253479,2.856003c0.075653,0.962372 0.195313,2.927795 0.235687,3.937332c0.041016,1.025146 0.067352,2.062614 0.08548,3.108002c0.018188,1.049286 0.026855,2.098656 0.031525,3.143997c0.004639,1.037331 0.004486,3.071999 0.004486,4.062004c0,0.969994 0,1.919998 0,2.849998c0,0.909996 0,1.799995 0,2.669998c0,0.849998 0.000519,2.489998 -0.000153,3.281166c-0.000671,0.778168 -0.002411,1.550346 -0.010529,2.323502c-0.008209,0.781189 -0.022308,1.577415 -0.046478,2.3955c-0.025024,0.84726 -0.10614,2.656693 -0.164337,3.629166c-0.060364,1.008881 -0.132446,2.039581 -0.214508,3.078003c-0.081635,1.032928 -0.170685,2.045715 -0.268494,3.024002c-0.093079,0.931046 -0.289734,2.592834 -0.395325,3.298492c-0.093719,0.626297 -0.192261,1.179672 -0.28952,1.66951c-0.086792,0.437103 -0.175171,0.827881 -0.253479,1.183487c-0.072327,0.3284 -0.193787,0.940033 -0.236176,1.241333c-0.042969,0.305405 -0.075684,0.621872 -0.117004,0.952499c-0.043884,0.351074 -0.095978,0.727615 -0.17099,1.132507c-0.081879,0.44194 -0.327637,1.449051 -0.497498,2.022507c-0.185638,0.62677 -0.406311,1.300217 -0.643524,2.024994c-0.253723,0.775238 -0.527039,1.59903 -0.805481,2.475006c-0.293701,0.923965 -0.891846,2.923508 -1.18634,3.998154c-0.304352,1.110672 -0.598267,2.251678 -0.889496,3.4095c-0.292419,1.162521 -0.57489,2.321289 -0.853516,3.463501c-0.272034,1.115128 -0.788208,3.221085 -1.035828,4.192169c-0.235168,0.922226 -0.467072,1.803757 -0.695984,2.654999c-0.223785,0.832092 -0.450104,1.653488 -0.678009,2.475006c-0.230743,0.831818 -0.714325,2.564911 -0.968506,3.483002c-0.261871,0.945892 -0.526917,1.90802 -0.793488,2.873993c-0.264404,0.958038 -0.523438,1.896164 -0.775513,2.802002c-0.239929,0.862152 -0.675171,2.406387 -0.867004,3.067993c-0.172333,0.594345 -0.332184,1.132248 -0.481476,1.626007c-0.139771,0.462234 -0.276123,0.903976 -0.409515,1.337997c-0.134613,0.437973 -0.419128,1.37381 -0.573151,1.89267c-0.163391,0.550446 -0.331512,1.12529 -0.504028,1.716003c-0.174805,0.598618 -0.348999,1.197418 -0.521973,1.787994c-0.168365,0.574768 -0.485443,1.64418 -0.631012,2.124496c-0.13446,0.44368 -0.260742,0.852798 -0.375,1.231506c-0.105682,0.350296 -0.205536,0.6745 -0.285004,0.979492c-0.209686,0.804825 -0.239288,1.748932 -0.445679,2.48851c-0.242157,0.867783 -1.255066,1.116119 -1.915985,0.486664c-0.533783,-0.508408 -1.010498,-1.328735 -1.304504,-2.014328c-0.343842,-0.801819 -0.862152,-1.985672 -1.180817,-2.584335l-0.350677,-0.590668l-0.568512,-0.8535" id="svg_10" stroke-width="5" stroke="#000000" fill="none"/>
  <path d="m238,118c0.886673,0.998665 1.85733,1 2.518829,1c1.124008,0 1.791,0 2.501999,0c1.096512,0 2.157669,0 2.822006,0c0.946503,0 2.157242,0.007309 2.765167,-0.00267c0.656189,-0.010773 1.41008,-0.051994 2.304001,-0.167999c1.090942,-0.141571 2.418961,-0.402336 3.184998,-0.593163c0.85051,-0.211868 1.783829,-0.490273 2.798996,-0.8535c1.123779,-0.402084 2.361786,-0.870163 5.104004,-2.216003c1.570526,-0.77079 3.206665,-1.681198 4.909485,-2.645996c1.746704,-0.989655 3.488647,-2.016846 5.206512,-3.042c1.668396,-0.995628 3.244965,-1.961937 6.050659,-3.645332c1.166199,-0.699699 2.180695,-1.299171 3.06601,-1.800003c0.763153,-0.431717 1.429779,-0.791824 2.022003,-1.080002c0.5224,-0.254204 1.000946,-0.473145 1.911987,-0.786667c0.451538,-0.155396 0.918274,-0.28537 1.390503,-0.418495c0.478455,-0.134888 0.9646,-0.265877 1.453522,-0.4095c0.494751,-0.145332 0.999542,-0.284538 1.989319,-0.672005c0.504456,-0.197479 0.999481,-0.430244 1.490997,-0.671997c0.489868,-0.240944 0.967834,-0.493721 1.437012,-0.744003c0.45816,-0.244408 0.895996,-0.493141 1.738647,-0.917328c0.388763,-0.195694 0.768341,-0.36895 1.14151,-0.532501c0.372192,-0.163116 0.754456,-0.32135 1.150513,-0.487503c0.418304,-0.175491 0.868652,-0.359222 1.874664,-0.813332c0.575073,-0.25959 1.185516,-0.550285 1.8255,-0.8535c0.657349,-0.311447 1.319427,-0.627563 1.978485,-0.934502c0.641327,-0.298676 1.249023,-0.594627 2.362671,-1.045334c0.467682,-0.189278 0.886139,-0.332817 1.256989,-0.442497c0.32547,-0.09626 0.617401,-0.164665 0.878998,-0.217499c0.454987,-0.091896 1.25647,-0.317528 2.100006,-0.581337c0.921906,-0.288322 1.718231,-0.302361 2.466675,-0.450661c1.142853,-0.226448 0.854156,-1.074837 0.234833,-1.495506l-0.625488,-0.364494" id="svg_11" stroke-width="5" stroke="#000000" fill="none"/>
  <path d="m284,76c2.166656,8.666664 2.415619,9.459587 2.686676,10.23333c0.269012,0.76796 0.556519,1.52803 0.85498,2.287506c0.301514,0.76722 0.619324,1.541939 0.945007,2.332497c0.678589,1.64724 1.033905,2.511116 1.399994,3.398666c0.373871,0.906456 0.755798,1.825806 1.154999,2.748001c0.400787,0.925842 0.807861,1.847794 1.244995,2.748001c0.856384,1.763664 1.327881,2.59201 1.798676,3.400002c0.464996,0.798027 0.948883,1.577118 1.435516,2.351997c0.488037,0.77713 0.989349,1.554459 1.480499,2.351997c1.010437,1.6408 1.503296,2.513008 2.011993,3.421333c0.53479,0.954933 1.091309,1.974449 1.695007,3.060005c0.649475,1.16787 1.35437,2.42852 2.144989,3.779999c1.793152,3.065224 2.85379,4.765785 3.981323,6.565331c1.168274,1.864601 2.371582,3.746872 3.582001,5.613007c1.181671,1.821808 2.319855,3.557465 3.402008,5.162994c1.834229,2.721329 2.572662,3.756516 3.185333,4.584c0.48526,0.655411 0.874237,1.150116 1.183502,1.503006c0.222137,0.253479 0.390747,0.413849 0.508514,0.513c0.135559,0.114151 0.186127,0.164719 0.219971,0.229324c0.035034,0.066849 0.058685,0.141342 0.084015,0.216003c0.02533,0.074661 0.046448,0.150543 0.084015,0.216003c0.071411,0.124466 0.134186,0.168915 0.199982,0.194656c0.066254,0.025925 0.143707,0.030151 0.216003,0.006012c0.078369,-0.026169 0.158051,-0.084717 0.216003,-0.174011c0.146759,-0.226089 0.167267,-0.406326 0.199982,-0.598663c0.036499,-0.214691 0.059174,-0.45195 0.084015,-0.706497c0.053741,-0.550888 0.152283,-1.440582 0.352661,-2.341995c0.137512,-0.618607 0.39859,-1.575928 0.525848,-2.616837c0.089111,-0.728729 0.107666,-1.478546 0.117004,-2.225998c0.017914,-1.431229 0.004486,-2.100006 0.004486,-3.078003c0,-0.658661 0,-1.696335 0,-2.43634c0,-0.779991 0,-1.599991 0,-2.904991c0,-0.916 0,-1.848 0,-2.3125c0,-0.911003 0.013367,-2.187668 -0.002655,-2.948837c-0.021271,-1.010025 0.003937,-1.649467 -0.440002,-2.650665c-0.327026,-0.737526 -0.85202,-1.374001 -1.31485,-2.343002l-0.202484,-0.824997l-0.126678,-0.599998" id="svg_12" stroke-width="5" stroke="#000000" fill="none"/>
  <path d="m300,66c1.635986,0.646667 2.321503,1.321503 2.835999,1.835999c0.568512,0.568504 1.363983,1.364014 1.963989,1.964005c0.400024,0.400009 1.193146,1.206993 1.800018,1.795494c0.593384,0.575417 1.383331,1.263382 2,1.647339c0.780273,0.48584 1.797333,0.957161 2.358337,1.257164l0.798828,0.599831l0.464325,0.778839" id="svg_13" stroke-width="5" stroke="#000000" fill="none"/>
  <path d="m307,109c-1.304504,3.53833 -1.561981,4.220856 -2.32132,4.978996c-0.462952,0.462196 -1.262482,1.035843 -1.657166,1.785339c-0.470398,0.893227 -0.61261,1.631157 -0.82019,2.354332c-0.304077,1.059258 -0.602722,2.05928 -0.837311,2.706665c-0.239929,0.662163 -0.679443,1.699379 -1.025665,2.440834c-0.373322,0.799492 -0.799469,1.652939 -1.025024,2.105835c-0.732697,1.471222 -0.996002,1.993332 -1.261505,2.52433c-0.530975,1.061996 -0.790497,1.581009 -1.041992,2.084c-0.676483,1.352997 -1.016998,2.091034 -1.488983,2.93634c-0.384644,0.688873 -1.004852,1.481995 -1.520844,2.0625l-0.515991,0.535492l-0.837341,0.860001" id="svg_14" stroke-width="5" stroke="#000000" fill="none"/>
  <path d="m253,125c2,1.020836 2.311615,1.85495 2.861328,2.38533c0.63205,0.609833 1.279877,1.371689 1.617828,2.135498c0.347229,0.784821 0.712769,1.800858 1.041687,2.5c0.354431,0.753326 0.802704,1.620911 1.131836,2.289001c0.349701,0.709839 0.710968,1.434814 1.180664,2.523499c0.291504,0.67569 0.641846,1.626495 0.862152,2.205002c0.397186,1.042923 0.826385,1.926239 1.019165,2.560333c0.294922,0.970016 0.285339,1.893341 0.285339,1.001343c0,-0.90451 0,-1.766678 0,-2.662506c0,-0.709503 0,-1.580002 0,-2.577499c0,-0.67334 0,-1.860001 0,-2.652008c0,-1.012497 0,-1.874664 0,-2.728821c0,-0.979172 0,-1.768509 0,-2.493835c0,-1.006165 -0.016663,-2.02845 0.010681,-2.736c0.028778,-0.744896 0.390259,-1.908791 0.705322,-2.546669c0.437714,-0.8862 0.915802,-1.586227 1.61734,-2.036003c0.764832,-0.490356 1.866669,-0.388496 2.477325,-0.591995c0.87442,-0.291389 1.871857,-0.511787 2.689331,-0.553833c0.815155,-0.041924 1.81601,-0.020836 2.5,-0.020836c1.166656,0 1.957153,0 2.810669,0c0.590668,0 1.786652,0 2.647675,0c0.770996,0 1.869659,-0.000084 2.741669,0c0.899811,0.000084 1.614258,0.331093 2.021332,1.099998c0.401031,0.75753 0.792938,1.536095 0.777313,2.385338c-0.013336,0.726036 -0.225372,1.712807 -0.498657,2.514664c-0.340057,0.997742 -0.426788,1.833069 -0.666992,2.457169c-0.389801,1.012817 -0.897583,1.510452 -1.395508,2.084503c-0.543488,0.626572 -1.441162,1.621933 -2.037506,2.340988c-0.301849,0.363968 -0.884613,1.109787 -1.5,1.80751c-0.878448,0.995941 -1.489746,1.549911 -2.089325,2.037827c-0.566437,0.460968 -1.142578,0.848282 -2.125336,1.67067c-0.676666,0.566254 -1.05069,0.984985 -2.082672,1.716003c-0.545929,0.386719 -1.068481,1.262985 -1.824158,1.763824c-0.738983,0.489761 -1.1315,0.293045 -0.357178,0.089508c0.991394,-0.260605 1.593567,-1.029602 2.099518,-1.509674c0.536407,-0.508987 1.318146,-1.286087 2.017487,-2.00116c0.423462,-0.432999 1.010681,-1.03064 1.709015,-2.057175c0.398865,-0.586319 0.882202,-1.432892 1.409821,-1.990997c0.700958,-0.74144 1.542664,-1.166168 2.321991,-1.388168l0.999329,-0.242325l0.61084,-0.389175l0.710663,-0.68483" id="svg_15" stroke-width="5" stroke="#000000" fill="none"/>
  <path d="m256,158c2.479156,-0.5 3.304077,-0.949844 4.166656,-1c0.832977,-0.048431 1.748932,-0.266281 2.3125,-1.041672c0.379578,-0.522232 0.761658,-1.603638 1.192841,-2.12233c0.762268,-0.916931 1.585724,-1.208588 2.113342,-1.425339c1.041168,-0.427719 1.787018,-0.663483 2.610168,-1.167831c0.838074,-0.513489 1.398163,-1.107056 2.118835,-1.590164c0.791046,-0.530289 1.451691,-0.777802 2.5065,-1.152664c0.72876,-0.259003 1.823029,-0.645081 2.489838,-0.983994c0.631958,-0.321213 1.511841,-0.767227 2.125,-1.494339c0.648804,-0.769409 1.264709,-1.069626 2.021484,-1.37883c0.762909,-0.311707 1.741516,-0.841507 2.506836,-1.206833l0.814484,-0.314667l0.82019,-0.205338" id="svg_16" stroke-width="5" stroke="#000000" fill="none"/>
  <path d="m232,188c1.846664,0 2.686661,0 3.686661,0c0.855011,0 1.475006,0 2.835007,0c0.740005,0 1.520004,0 2.339996,0c1.305008,0 1.76033,0 2.709,0c1.012665,0 1.548004,0 2.105331,0c1.824005,0 2.48851,0.000793 3.180008,-0.001328c0.7155,-0.002182 1.452026,-0.006989 2.206497,-0.019501c0.769547,-0.012772 1.551239,-0.030289 2.341507,-0.064499c1.596573,-0.069122 2.39827,-0.129913 3.209335,-0.205338c0.832367,-0.077408 1.694519,-0.179657 2.595001,-0.313507c0.953003,-0.141663 1.965729,-0.316849 3.044983,-0.538498c2.419067,-0.496826 3.761353,-0.837982 5.188019,-1.194656c1.491089,-0.372772 3.023102,-0.772949 4.579498,-1.183502c1.562286,-0.412109 3.1091,-0.827759 4.624481,-1.2285c2.853638,-0.754623 4.161072,-1.090622 5.394684,-1.394669c1.171448,-0.288727 2.298737,-0.553635 3.397491,-0.793503c1.081299,-0.236053 2.163483,-0.457092 3.262512,-0.658493c2.296936,-0.420929 3.526276,-0.607239 4.794647,-0.801346c1.289276,-0.197296 2.582306,-0.383881 3.859497,-0.560989c1.241516,-0.172165 2.42926,-0.330734 3.544525,-0.471008c1.933929,-0.24324 2.721497,-0.329224 3.390656,-0.401337c0.562866,-0.060654 1.032135,-0.106598 1.419006,-0.148499c0.317108,-0.034348 0.577637,-0.060043 0.789001,-0.1035c0.339233,-0.069748 0.483093,-0.134567 0.61731,-0.201324c0.130188,-0.064758 0.250122,-0.140182 0.364502,-0.216003c0.110931,-0.073532 0.214355,-0.150436 0.319519,-0.216003c0.197754,-0.12326 0.300262,-0.165054 0.399994,-0.199997c0.096039,-0.033661 0.190674,-0.05867 0.280487,-0.084l0.084839,-0.02533l0.078827,-0.027344" id="svg_17" stroke-width="5" stroke="#000000" fill="none"/>
  <path d="m374,44c0.010681,1.835999 0.049255,2.611652 0.352661,3.6045c0.263672,0.862759 0.550537,1.814789 0.611328,2.6315c0.042694,0.573635 0.036011,1.764 0.036011,2.664001c0,0.599998 0,1.5 0,2.699997c0,0.600002 0,1.5 0,2.700001c0,0.600002 0,1.5 0,2.700001c0,0.599998 0,1.5 0,2.400002c0,1.198662 0.000061,1.78933 0,2.64283c-0.000092,1.035667 0.065399,1.952415 -0.166656,2.957169c-0.142914,0.618889 -0.578064,1.467194 -1.154663,2.421165c-0.322021,0.532768 -0.84314,1.324738 -1.194672,1.809502c-0.706665,0.974464 -1.303894,1.638588 -1.783997,2.421997c-0.418854,0.683487 -1.68988,1.642265 -1.285675,2.290169c0.471985,0.756577 1.777679,-0.056076 2.411011,-0.389496c0.724609,-0.381485 1.407837,-1.224808 1.835999,-1.764008c0.644653,-0.811813 1.339417,-1.404221 1.88031,-1.768494c0.841003,-0.566399 1.760193,-0.996231 2.362854,-1.277168c0.934113,-0.435432 1.607117,-0.761353 2.616669,-1.507668c0.371643,-0.27475 1.095215,-0.910072 1.817474,-1.559998c0.352356,-0.317062 1.30368,-1.208969 2.15152,-1.809006c0.705353,-0.499199 1.677734,-1.031609 2.192505,-1.349663c0.798431,-0.493324 1.498901,-1.067131 2.346649,-1.346664c0.936005,-0.308632 1.755981,-0.242699 2.455994,-0.73867c0.758484,-0.537384 1.48819,-1.199471 2.304016,-1.360001c1.026794,-0.202042 1.725861,-0.34779 2.600006,-0.486664c0.561523,-0.089211 0.304413,0.889721 0.03598,1.589333c-0.406769,1.060188 -0.550537,2.010887 -0.871979,2.661331c-0.391113,0.791435 -1.037354,1.564003 -1.553345,2.164001c-0.515991,0.599998 -1.112762,1.399834 -1.589325,2.164001c-0.50882,0.815918 -1.047607,1.460411 -1.731842,2.157333c-0.494171,0.503334 -1.172974,1.159737 -1.617493,2.042664c-0.406982,0.808365 -0.891357,1.409515 -1.482666,2.078667c-0.413879,0.468353 -1.123962,1.541718 -1.593018,2.281502c-0.258911,0.408363 -0.804443,1.284111 -1.094666,1.736664c-0.883331,1.377449 -1.187012,1.819855 -1.781982,2.673004c-0.28595,0.410042 -0.844147,1.178513 -1.338348,1.894165c-0.636932,0.922333 -0.973663,1.777824 -1.567993,2.398666c-0.670441,0.700325 -0.055481,0.738945 0.797333,0.40667c0.778687,-0.303391 1.497589,-0.84021 2.358002,-1.137833c0.640259,-0.221466 1.650085,-0.486603 2.377655,-1.016838c0.801208,-0.5839 1.067841,-1.288002 1.917023,-1.917c0.644135,-0.477112 1.741913,-0.429207 2.544647,-1.045662c0.604828,-0.464462 -0.554047,-0.562767 -1.176483,-0.195168c-0.835541,0.493462 -1.140564,1.324898 -1.685333,2.022163c-0.598663,0.766266 -1.165497,1.280334 -1.739502,1.859665c-0.593933,0.599411 -1.198792,1.193298 -1.785339,1.797333c-0.578766,0.596046 -1.139465,1.188202 -1.889832,2.100166c-0.491028,0.596756 -0.958862,1.243149 -1.545013,1.857002c-1.002167,1.04953 -1.457336,1.369949 -1.915833,1.7295c-0.984161,0.771805 -1.523102,1.154198 -2.06665,1.559998c-0.554779,0.414185 -1.128723,0.8209 -2.226685,1.720001c-1.095642,0.897202 -1.60675,1.379539 -2.119995,1.848c-0.506775,0.46257 -0.995056,0.929352 -1.959991,1.816002c-0.915344,0.841095 -1.357513,1.234772 -2.22049,1.945999c-0.405457,0.33416 -1.174408,0.942673 -1.894196,1.450005c-0.917511,0.64669 -1.700775,1.082542 -2.305817,1.464333c-0.927429,0.585243 -1.486603,1.180542 -1.966156,1.961662c-0.419403,0.683151 -0.792694,1.591965 -1.5,2.060669c-0.822693,0.545158 -0.984772,1.225777 -0.100006,1.286667c0.897858,0.06179 1.750702,-0.012817 2.399994,-0.520836c0.770355,-0.602737 1.277008,-1.278557 1.82132,-2.022163c0.523499,-0.715157 0.872284,-1.267609 1.194672,-1.859665c0.641022,-1.177238 0.822205,-1.83004 1.351013,-2.697334c0.572815,-0.939445 1.176727,-1.507515 1.80899,-2.089333c0.319885,-0.294373 1.016022,-0.803093 2.059998,-1.889168c0.427429,-0.444679 0.880066,-1.176636 1.764008,-1.921501c0.522339,-0.440163 1.18988,-0.803543 1.895996,-1.164001c0.715424,-0.365211 1.774078,-0.836571 2.757324,-1.189331c0.595306,-0.213577 1.677094,-0.501678 2.64267,-0.621338c0.769043,-0.095306 1.704468,-0.189156 2.462677,-0.309326c0.871185,-0.138077 1.844879,-0.294052 2.369171,-0.363335c0.546356,-0.072197 2.314117,-0.235291 2.936157,-0.267334c0.627625,-0.032326 1.873474,-0.066383 2.477325,-0.074669c0.581818,-0.00798 2.125336,-0.010666 2.930664,-0.010666c0.903015,0 1.966827,-0.345245 2.666351,0.057167c0.813873,0.468178 1.318939,1.224823 1.361664,2.042831c0.046936,0.898773 0,1.700005 0,2.599998c0,0.900002 0.071838,1.902222 -0.569336,2.5c-0.537201,0.500854 -1.530212,1.021706 -2.183319,1.5c-0.714172,0.522995 -1.421997,0.864006 -2.360687,1.216003l-0.802643,0.367996" id="svg_20" stroke-linecap="null" stroke-linejoin="null" stroke-dasharray="null" stroke-width="5" stroke="#000000" fill="none"/>
  <path d="m386,47c0,1.041668 0,2 0,2.789333c0,1.043999 0,1.835999 0,2.695999c0,0.919167 0,1.914669 0,2.714668c0,1 0,1.799999 0,2.799999c0,0.789333 0,1.514668 0,2.5c0,0.986668 0,1.746666 0,2.666668c0,0.781498 0,1.572002 0,2.690334c0,0.834 0,1.742996 0,2.684662c0,1.001167 0,1.719666 0,2.51017c0,1.026497 0,1.906502 0,2.926834c0,0.774002 0,1.673996 0,2.537331c0,0.963165 0,1.792999 0,2.817337c0,0.676498 0,1.451996 0,2.5c0,0.930664 0,1.765327 0,2.762161c0,0.747337 0.062225,1.797081 -0.166656,2.571167c-0.254486,0.860703 -0.740143,1.655693 -0.822662,2.458672c-0.105042,1.022003 -0.010681,1.722 -0.010681,2.749329c0,0.946838 0,1.646172 0,2.625336c0,0.979164 0,1.833336 0,2.695503c0,0.940498 0,1.789833 0,2.515167c0,0.989326 0,1.78933 0,2.78933c0,0.979164 0,1.833336 0,2.625336c0,1.027328 0,1.722 0,2.749329c0,0.946671 0,1.800003 0,2.740005c0,0.88533 -0.031036,1.651497 -0.352661,2.542496c-0.272766,0.755615 -0.594971,1.738998 -0.636658,2.506836c-0.051544,0.949333 -0.010681,1.935997 -0.010681,2.835999l0,0.800003" id="svg_21" stroke-linecap="null" stroke-linejoin="null" stroke-dasharray="null" stroke-width="5" stroke="#000000" fill="none"/>
  <path d="m420,66c0,1.835999 0,2.601334 0,3.599998c0,0.800003 0,1.801338 0,2.636002c0,0.930664 0,1.721169 0,2.574669c0,1.189331 0,2.089333 0,2.689331c0,0.900002 0,2.098663 0,2.689331c0,0.8535 0,1.889 0,2.769005c0,1.020164 -0.018768,1.84053 0,2.741661c0.018005,0.864571 0.732849,1.489777 1.600006,1.264c0.870209,-0.226578 1.452209,-1.103317 1.789337,-1.810661c0.387543,-0.813171 0.522614,-1.839363 0.595978,-2.389336c0.116028,-0.869675 0.440399,-2.071602 0.720001,-2.6595c0.418945,-0.880859 0.803955,-1.391693 1.126678,-2.421837c0.289673,-0.924667 0.487427,-2.021339 0.737335,-2.651993c0.276703,-0.698257 0.621857,-1.413368 0.947998,-2.148003c0.469452,-1.057449 0.721008,-1.725502 1.036011,-2.671997l0.160004,-0.609337" id="svg_22" stroke-linecap="null" stroke-linejoin="null" stroke-dasharray="null" stroke-width="5" stroke="#000000" fill="none"/>
  <path d="m434,34c1,5.833332 1.105255,7.520061 1.198669,9.449333c0.102783,2.122719 0.194031,4.391872 0.280487,6.758999c0.088257,2.416878 0.167694,4.835884 0.235504,7.209c0.12619,4.415794 0.166382,6.372952 0.200012,8.152004c0.030487,1.612953 0.05127,3.071976 0.064484,4.389c0.011902,1.186981 0.017548,2.255997 0.019501,3.218994c0.003387,1.656006 0.001343,2.372002 0.001343,3.024002c0,0.594002 0,1.136002 0,1.632004c0,0.456001 0,0.877998 0,1.271996c0,0.728004 0,1.073334 0,1.410667c0,0.331337 0,0.658669 0,0.984001c0,0.325333 0,0.652664 0,0.984001c0,0.682663 0,1.038666 0,1.410667c0,0.393997 0,0.815994 0,1.271996c0,0.496002 0,1.038002 0,1.632004c0,1.367996 0,2.150497 0,2.987999c0,0.877502 0,1.779999 0,2.692497c0,0.907501 0,1.795006 0,2.647499c0,1.540001 0,2.201004 0,2.788002c0,0.519005 0,0.975998 0,1.376999c0,0.351006 0,0.658005 0,0.927002c0,0.447998 0,0.638832 0,0.814667c0,0.165833 0,0.326668 0,0.487503c0,0.165833 0,0.341667 0,1.2435c0,0.932999 0,1.631668 0,2.354332c0,1.059669 0,2.034668 0,2.919662c0,1.040169 0,1.72567 0,2.560333c0,0.996834 0.173553,1.935562 -0.020844,2.880501c-0.178406,0.86721 -0.563995,1.670784 -1.145813,2.354172c-0.567596,0.666664 -1.289886,0.98481 -2.185181,1.21933c-0.913605,0.239319 -1.510498,0.769089 -2.473511,0.911331c-0.997803,0.147385 -1.764008,0.041397 -2.674652,0.036003c-0.900055,-0.005333 -1.684692,-0.308144 -2.385345,-0.801331c-0.750336,-0.528168 -1.461975,-0.955833 -2.229309,-1.684006l-0.364502,-0.5355" id="svg_23" stroke-linecap="null" stroke-linejoin="null" stroke-dasharray="null" stroke-width="5" stroke="#000000" fill="none"/>
  <path d="m401,116c1.109833,1.699997 1.786774,2.214684 2.294678,2.757164c0.732452,0.78231 0.795349,1.667648 1.315979,2.329506c0.59787,0.76004 0.860657,1.446938 1.189331,2.14666c0.456421,0.97168 1.111877,1.755669 1.195526,2.638168c0.084259,0.888863 0.004486,1.825836 0.004486,2.524498l0,0.722672" id="svg_24" stroke-linecap="null" stroke-linejoin="null" stroke-dasharray="null" stroke-width="5" stroke="#000000" fill="none"/>
  <path d="m362,152c1.600006,-0.574661 2.399475,-0.981339 3.299988,-1c0.901154,-0.018677 1.869629,-0.159271 2.578674,-0.446671c0.757751,-0.307129 1.786987,-0.722778 2.666656,-1.041336c0.496307,-0.179733 1.032104,-0.365387 2.205353,-0.794662c0.639618,-0.234024 1.314209,-0.480362 2.749329,-1.050659c0.765594,-0.30423 1.549255,-0.632202 2.348999,-0.962997c0.805573,-0.333206 1.607788,-0.665878 2.403015,-0.981003c0.77417,-0.306793 1.514923,-0.615814 2.914642,-1.056c0.621887,-0.195572 1.207581,-0.338852 2.274689,-0.565338c0.495361,-0.105133 1.457092,-0.289413 1.922668,-0.437332c1.503906,-0.477814 2.011322,-0.79628 2.55481,-1.083664c1.150879,-0.608566 1.736664,-0.954453 2.347351,-1.283997c0.619934,-0.334518 1.896881,-0.971283 2.555664,-1.253845c0.662628,-0.28421 2.0354,-0.802719 2.740662,-1.063324c0.720062,-0.266068 1.4599,-0.532593 2.209503,-0.832504c1.569031,-0.627762 2.374817,-1.004578 3.202667,-1.405334c0.856628,-0.414688 1.73172,-0.866211 2.629486,-1.345505c0.927643,-0.495239 1.878113,-1.020493 2.854523,-1.570496c2.045074,-1.152008 3.105682,-1.76738 4.193329,-2.393326c1.106354,-0.636703 2.223999,-1.282669 3.347992,-1.932007c1.123993,-0.649338 2.241394,-1.295715 3.347992,-1.931999c2.150818,-1.23671 3.185699,-1.825737 4.188019,-2.391998c0.964722,-0.545021 1.890869,-1.0634 2.776489,-1.551003c0.83844,-0.461617 1.628418,-0.892273 2.37149,-1.280998c1.311462,-0.686073 1.885437,-0.961861 2.405334,-1.204002c0.470612,-0.219193 0.90451,-0.408638 1.306519,-0.577499c0.375397,-0.157677 0.734924,-0.300148 1.081482,-0.442497c0.690582,-0.283653 1.04425,-0.43988 1.404022,-0.602669c0.362885,-0.1642 0.722595,-0.332146 1.076996,-0.496498c0.344269,-0.159645 0.673248,-0.314201 0.987,-0.4515c0.552216,-0.241646 0.786224,-0.338921 0.998657,-0.398666c0.731506,-0.205719 2.382538,-0.375114 1.889343,-1.004005c-0.514252,-0.655746 -1.450623,0.471298 -2.154846,0.933502c-0.682281,0.447807 -1.692902,1.049355 -2.273987,1.552498c-0.583466,0.505219 -1.252228,1.166924 -1.789856,1.74334c-0.600403,0.643723 -1.155914,1.370918 -1.646973,1.988998c-0.589783,0.742317 -0.922333,1.164131 -1.71167,2.074997c-0.910492,1.050682 -1.439148,1.607033 -1.997345,2.194664c-0.584351,0.615173 -1.200195,1.245148 -1.84201,1.887009c-0.656799,0.65686 -1.331024,1.318451 -2.022003,1.97699c-1.387421,1.322296 -2.092499,1.961319 -2.790649,2.593338c-0.688873,0.623627 -1.371582,1.231155 -2.041504,1.8255c-0.654083,0.580307 -1.292511,1.141937 -1.906494,1.690506c-1.158905,1.035431 -1.692963,1.5271 -2.198669,2c-0.482849,0.451523 -0.939789,0.888168 -1.373993,1.309494c-0.416412,0.404053 -0.813293,0.795731 -1.194,1.1745c-0.723846,0.720169 -1.412476,1.412903 -1.768188,1.757828c-0.762329,0.739197 -1.196381,1.137833 -1.673981,1.56868c-0.526215,0.474716 -1.778992,1.563278 -2.51767,2.189331c-0.798523,0.676773 -1.645844,1.384247 -2.521515,2.113495c-0.886658,0.738419 -1.769684,1.47023 -2.629486,2.185501c-0.821503,0.683411 -2.279633,1.905151 -2.885162,2.422501c-0.527679,0.450836 -0.982513,0.846954 -1.380005,1.188004c-0.345947,0.296829 -0.645935,0.561569 -0.929993,0.774002c-0.73175,0.547272 -1.270691,0.80188 -2.104187,1.209488c-0.585083,0.286118 -1.491577,0.796112 -2.406158,1.502502c-0.341766,0.263962 -1.082703,0.878296 -1.515991,1.199997c-1.535278,1.139862 -2.182953,1.5233 -2.863678,1.945999c-0.715851,0.444519 -1.466461,0.892365 -2.234985,1.351501c-0.778137,0.464874 -1.559845,0.925797 -2.325012,1.3965c-1.472839,0.906036 -2.15033,1.356369 -2.790649,1.796005c-0.612579,0.420593 -1.190125,0.837158 -1.738525,1.244995c-0.527527,0.392288 -1.029602,0.779205 -1.513489,1.154999c-0.925171,0.718491 -1.801117,1.398926 -2.220001,1.720505c-0.786957,0.604156 -1.502258,1.137756 -2.370667,1.83284c-0.634125,0.507553 -1.29599,1.045334 -2.085663,1.333328l0.885651,-0.004501l0.800018,-0.216995l0.600006,-0.483002" id="svg_25" stroke-linecap="null" stroke-linejoin="null" stroke-dasharray="null" stroke-width="5" stroke="#000000" fill="none"/>
  <path d="m400,148c0,5.166672 0,6.177338 0,7.292007c0,1.192657 0,2.437332 0,3.707993c0,1.27066 0,2.515335 0,3.707993c0,2.125336 0,3.012177 0,3.780014c0,0.659821 0,1.222656 0,1.699493c0,0.40184 0,0.73967 0,1.024506c0,0.454666 0.015533,1.002182 -0.057159,1.821991c-0.085876,0.968384 -0.226685,1.871353 -0.295502,2.386505c-0.147003,1.100372 -0.227264,1.662842 -0.363342,2.760834c-0.12204,0.984772 -0.245789,2.127457 -0.273315,2.929337c-0.034424,1.003464 -0.047882,1.890198 -0.010681,2.689331c0.042725,0.917633 0.801483,1.2173 1.700012,1.199997c0.900543,-0.017334 1.725739,-0.409866 2.399811,-1.100006c0.56543,-0.578903 0.844421,-1.467072 1.472168,-2.106659c0.442261,-0.450577 1.154541,-0.992325 1.849335,-2.000168c0.278534,-0.404022 0.805023,-1.329926 1.078674,-1.813995c0.549377,-0.971848 0.773987,-1.471161 1.578674,-2.693344c0.445892,-0.677216 0.907227,-1.236557 1.605316,-1.96582c0.723175,-0.755493 1.273163,-1.277161 1.836853,-1.840836c0.583679,-0.583664 1.477081,-1.481262 2.076477,-2.075165c0.579346,-0.574036 1.130676,-1.096008 1.632019,-1.548004l0.951813,-0.688995" id="svg_26" stroke-linecap="null" stroke-linejoin="null" stroke-dasharray="null" stroke-width="5" stroke="#000000" fill="none"/>
  <path d="m454,132c-1.833344,0.166672 -2.282227,0.751862 -3.100159,1.221664c-0.593048,0.340637 -1.221344,1.099838 -1.73584,1.614334c-0.568512,0.568497 -1.352631,1.376678 -1.996002,1.97467c-0.46756,0.434586 -1.008698,0.896072 -2.032318,1.610825c-0.791199,0.552475 -1.232758,0.814865 -2.131683,1.389175c-0.460205,0.294022 -1.83905,1.186798 -2.283173,1.48967c-0.885101,0.603622 -1.326447,0.922455 -2.25415,1.571655c-0.490295,0.343124 -1.002686,0.704605 -2.133331,1.461334c-0.61618,0.412415 -1.266327,0.833862 -1.934998,1.267502c-0.678009,0.439697 -1.357391,0.877258 -2.025024,1.3125c-0.649017,0.423111 -2.377411,1.581009 -2.84433,1.921997c-0.79303,0.579132 -1.395966,1.091217 -1.901978,1.494003c-1.010071,0.804016 -1.606171,1.128998 -2.605499,1.549164l-0.71701,0.117004" id="svg_27" stroke-linecap="null" stroke-linejoin="null" stroke-dasharray="null" stroke-width="5" stroke="#000000" fill="none"/>
  <path d="m415,148c3.328003,1.93866 4.219543,2.263458 4.799988,2.801331c0.725433,0.672241 1.289429,1.311325 1.944,1.906662c0.390747,0.355392 1.237701,1.060333 1.966675,1.645508c0.785461,0.630524 1.175842,0.951065 1.953339,1.509171c0.935791,0.671753 1.820618,0.954529 2.635986,1.494492c0.557617,0.369263 1.142914,1.237946 2.004517,1.590164c0.823456,0.336639 1.675415,0.608093 2.528839,0.886002c0.845886,0.275467 1.593018,0.829453 2.366669,1.081345c0.859467,0.279831 1.51532,0.562653 2.161652,1.032654c0.80719,0.586975 1.667633,0.525803 2.47168,1.052673c0.672607,0.440765 1.543213,0.849442 2.151978,1.436005c0.691742,0.666504 1.21228,1.097244 2.128021,1.479996c0.815796,0.340988 1.335724,0.934036 2.071991,1.109329c0.940033,0.223801 1.692871,0.784988 2.476318,1.283676c0.580811,0.369705 1.509644,1.01886 2.022339,1.457657c0.546326,0.467575 1.31601,1.243698 2.149353,1.733337c0.672241,0.394958 1.711761,0.511368 2.53067,0.925339c0.771484,0.389984 1.527557,0.477325 2.450653,0.585327c0.959412,0.112244 1.500824,1.014175 2.078674,1.410675c0.612244,0.420105 1.442749,0.90799 2.073334,1.345322c0.676331,0.46907 1.308411,1.007645 2.533325,1.733337c0.615356,0.364563 1.390045,0.55835 2.325348,0.925339c0.69754,0.273697 1.605164,0.737152 2.284485,1.222c0.663757,0.47374 1.822632,0.018616 2.528503,0.409821c0.70047,0.388214 1.031952,1.325455 1.878998,1.657501c0.928711,0.364059 1.826996,0.174225 2.68399,0.569336c0.734711,0.33873 1.62381,0.684906 2.314667,0.714676c1.037048,0.044678 1.477203,0.814285 2.245667,0.996826c0.880066,0.209045 1.760406,0.040894 2.882996,0.22583c0.71698,0.118118 1.605347,0.278671 2.136688,0.353333l0.599335,0.072678l0.675323,0.068665" id="svg_28" stroke-linecap="null" stroke-linejoin="null" stroke-dasharray="null" stroke-width="5" stroke="#000000" fill="none"/>
  <path d="m552,62c0,1.825333 0,2.833336 0,3.625336c0,1.03183 0,1.779167 0,2.774666c0,0.799995 0,1.800163 0,2.620834c0,0.664497 0,1.668495 0,2.5625c0,0.692665 0.002258,1.916672 -0.001343,2.872665c-0.001953,0.515503 -0.016724,1.606583 -0.034668,2.176003c-0.018372,0.581596 -0.125549,2.368484 -0.185669,2.967499c-0.059937,0.597031 -0.215393,1.770172 -0.320007,2.337997c-0.201599,1.094543 -0.282104,1.627724 -0.779663,2.998169c-0.294678,0.811584 -0.687439,1.518272 -1.026001,2.208c-0.499023,1.016685 -0.775818,1.739243 -1.027344,2.492332c-0.257935,0.772255 -0.483032,1.575226 -0.946472,2.763496c-0.309631,0.793999 -0.663208,1.535683 -0.968994,2.229004c-0.383057,0.868637 -0.59967,1.875587 -0.189026,1.329834c0.556396,-0.739441 1.020203,-1.486229 1.364502,-2.013c0.637024,-0.974655 0.943176,-1.630356 1.289368,-2.305336c0.344482,-0.671707 0.950134,-1.865829 1.304504,-2.619164c0.328918,-0.699135 0.713013,-1.706474 1.020813,-2.5c0.292603,-0.75441 0.667236,-1.584213 1.208008,-2.207504c0.743958,-0.857506 1.345337,-1.366669 1.978638,-2c0.334167,-0.334175 1.011963,-1.013046 1.980042,-1.979996c0.562317,-0.561653 1.038391,-1.076317 1.724304,-1.667168c0.783752,-0.675117 1.450989,-0.973022 2.123657,-1.550171c0.817932,-0.701797 1.195251,-1.385567 1.625366,-1.802666c0.804016,-0.779648 1.569153,-1.270668 2.380798,-1.792496c0.410889,-0.264183 1.223999,-0.759399 2.31488,-1.378006c0.594849,-0.337326 1.379211,-0.738899 2.330994,-1.309494c0.799927,-0.479553 1.363342,-0.862495 1.937805,-1.295006c0.910522,-0.685501 1.49585,-1.219193 2.084839,-1.752998c0.576233,-0.52224 1.631958,-1.468483 2.124023,-1.814667c0.820862,-0.577499 1.665161,-1.070831 2.276001,-1.606667l0.510498,-0.685333l0.379333,-0.678665" id="svg_29" stroke-linecap="null" stroke-linejoin="null" stroke-dasharray="null" stroke-width="5" stroke="#000000" fill="none"/>
  <path d="m571,40c0,2.6045 0,3.457165 0,4.421501c0,0.814499 0,1.682999 0,2.878666c0,0.604332 0,1.535831 0,2.185165c0,1.402668 0,2.172001 0,2.997334c0,0.436169 0,1.850666 0,2.886669c0,0.540497 0,1.091999 0,2.216c0,0.566498 0,2.247997 0,2.792999c0,1.059998 0,1.575001 0,2.575001c0,0.959999 0,1.880001 0,2.759998c0,0.840004 0,1.639999 0,2.400002c0,1.401329 0,2.050667 0,2.982162c0,0.904503 0,1.813499 0,2.446167c0,1.028999 0,2.201172 0,3.068169c0,0.4515 0.000061,1.375504 0,2.307503c-0.000122,1.361 0.007263,1.796135 -0.010681,2.636002c-0.01709,0.800217 -0.141968,2.282562 -0.273315,2.962662c-0.127747,0.661446 -0.398132,1.630898 -0.549316,2.650665c-0.105835,0.714134 -0.140625,1.458405 -0.156006,2.208c-0.029968,1.458405 0.008484,2.142319 -0.032043,2.800003c-0.060425,0.980545 -0.2948,1.997849 -0.546631,2.709335c-0.264771,0.747917 -0.613525,1.479187 -0.864014,2.231995c-0.458374,1.377556 -0.468445,2.032555 -0.61615,2.865166c-0.187683,1.057861 -0.752563,1.66394 -0.93103,2.539673c-0.192322,0.943993 0.087646,1.833641 -0.02533,2.722c-0.111511,0.877136 -0.737793,1.42205 -1.395508,2.167831c-0.638367,0.723862 -0.999573,1.460518 -1.471497,2.051003c-0.589661,0.73777 -1.175659,1.22963 -1.815125,1.763664c-0.666992,0.557022 -1.355408,1.080223 -2.270691,1.853165c-0.542603,0.458199 -1.279907,1.128441 -1.810669,1.520164c-0.853943,0.630211 -1.533142,1.004608 -2.231995,1.380501c-0.690552,0.371399 -1.961243,0.991516 -2.738647,1.3955c-0.713379,0.370712 -1.438782,0.775208 -2.205017,1.278c-0.770142,0.505371 -1.540771,1.192505 -2.035522,1.8265c-0.57251,0.733635 -1.16803,1.210556 -2.135498,1.435501c-0.866333,0.201424 -1.665161,0.205238 -2.485291,0.660004c-0.761353,0.422188 -0.399597,0.450699 0.399963,0.425331c0.901367,-0.028595 1.584717,-0.472588 2.366699,-1c0.638855,-0.43087 1.395447,-0.739822 2.208008,-1.410667c0.844299,-0.697075 1.286987,-1.251007 1.871948,-1.835999c0.440002,-0.44001 1.438904,-1.442482 2.010681,-2c0.303894,-0.296318 0.951477,-0.926239 2.075989,-1.919998c0.405579,-0.358429 1.266052,-1.078827 1.706665,-1.437332c0.437744,-0.356155 1.28241,-1.049652 2.460022,-1.896004c0.633423,-0.455246 1.243225,-0.697426 1.925354,-1.295998c0.703308,-0.617142 1.455688,-1.316147 1.989807,-1.504005c0.912415,-0.320915 1.573303,-0.415642 2.722351,-1c0.69043,-0.351135 1.635986,-0.899101 2.145142,-1.12133c0.88623,-0.38681 1.893982,-0.896072 2.600037,-1.348c0.742859,-0.475471 1.105469,-0.739685 1.807495,-1.282501c0.989441,-0.76506 1.539124,-1.261497 2.268127,-1.906502l0.639038,-0.555" id="svg_30" stroke-linecap="null" stroke-linejoin="null" stroke-dasharray="null" stroke-width="5" stroke="#000000" fill="none"/>
  <path d="m552,130c0,1.800003 0.001404,2.681503 0.569336,3.485336c0.404175,0.572037 0.999268,1.080231 1.546692,1.919998c0.425476,0.65274 0.779175,1.531769 1.205322,2.680161c0.167053,0.450226 0.505005,1.426132 0.67865,1.935333c0.349487,1.024948 0.515076,1.528809 0.978516,2.914505c0.263794,0.788834 0.483948,1.487503 0.820129,2.375336c0.382446,1.010025 0.769531,1.862778 1.301208,2.667999c0.438599,0.664276 1.09082,1.544022 0.838501,2.311493c-0.259216,0.788498 -0.901917,0.062454 -0.942871,-0.951828c-0.032349,-0.801086 -0.206055,-1.762344 -0.420837,-2.552994c-0.211487,-0.778442 -0.526062,-1.81282 -0.570129,-2.533508c-0.055481,-0.907349 0.032898,-1.682922 -0.289856,-2.64917c-0.253418,-0.758606 -1.253662,-1.336868 -1.629333,-2.171997c-0.322754,-0.717407 -0.085449,-1.673492 -0.085327,-2.630661c0.000122,-0.899841 0.356323,-1.569946 1.099976,-2.021667c0.689941,-0.419098 1.082642,-1.275238 1.536011,-1.988998c0.509949,-0.802887 1.001465,-1.41394 1.610657,-1.989334c0.886353,-0.837204 1.420044,-1.223465 2.253357,-1.758331c0.536743,-0.344498 1.574463,-0.814728 2.458313,-1.020844c0.87146,-0.203224 1.568481,-0.769791 2.441711,-0.984825c0.869995,-0.214241 1.58197,0.399429 1.599976,1.264c0.018921,0.907791 0.002136,1.742996 0,2.699997c-0.002014,0.912003 -0.00531,1.443314 -0.031982,2.016006c-0.058167,1.248962 -0.122498,1.91333 -0.223999,2.591995c-0.209045,1.397675 -0.391541,2.095993 -0.598694,2.785324c-0.40979,1.363678 -0.678894,2.005859 -0.941345,2.626678c-0.252563,0.597488 -1.026306,2.153168 -1.282471,2.572327c-0.445557,0.729141 -1.069275,1.567825 -1.921509,2.240997c-0.574036,0.45343 -1.250305,0.772324 -2,1.5c-0.641907,0.623047 -0.927185,1.191101 -1.514648,1.813339c-0.775146,0.821045 -1.570618,1.601593 -0.780823,1.848831c0.855103,0.267685 1.653992,-0.537369 2.462158,-0.828827c0.799438,-0.288315 1.793884,-0.420975 2.422668,-0.741333c0.887878,-0.452362 1.810669,-0.425339 2.706116,-0.42984l0.668518,-0.431503" id="svg_31" stroke-linecap="null" stroke-linejoin="null" stroke-dasharray="null" stroke-width="5" stroke="#000000" fill="none"/>
  <path d="m508,70c1.757172,0 2.663513,-0.053291 3.40451,0.057167c1.008881,0.150383 1.789581,0.506599 2.574127,1.042831c0.674866,0.46125 1.499817,1.112724 2.232056,1.5c0.782227,0.413719 1.578613,0.789337 2.303955,1.11467l0.943665,0.285332l0.531006,0.610664l0.031494,0.8685" id="svg_32" stroke-linecap="null" stroke-linejoin="null" stroke-dasharray="null" stroke-width="5" stroke="#000000" fill="none"/>
  <path d="m506,115c11.5,-1.833336 13.029236,-2.110252 13.671997,-2.24733c0.57312,-0.122223 1.552795,-0.307289 2.26001,-0.636673c1.064209,-0.495667 1.680786,-1.635918 2.063477,-1.345329c0.705994,0.536125 0.056213,1.635437 -0.000793,2.637329c-0.040955,0.72007 -0.317566,1.710983 -0.661377,2.592003c-0.207947,0.532791 -0.750305,1.72625 -1.055969,2.373337c-0.316284,0.669632 -0.646851,1.347244 -0.981018,2.024994c-0.329834,0.668907 -0.960754,1.936142 -1.526978,3.060333c-0.258484,0.513191 -0.497314,1.003059 -0.984009,1.898666c-0.458008,0.842842 -0.94458,1.647514 -1.468018,2.441338c-0.524597,0.795601 -0.809753,1.171822 -1.307495,1.94416c-0.69519,1.07869 -1.052551,1.763077 -1.46814,2.694672c-0.350403,0.785522 -0.901978,1.505127 -1.256348,2.359833c-0.330017,0.796036 0.5755,1.184662 1.547974,1.202667c0.79187,0.014664 1.819336,0 2.514038,0c1.016663,0 1.975037,-0.19809 2.851318,0.001328c0.80426,0.183029 0.801331,1.200012 0.801331,2.165344c0,0.690659 0.009033,1.605377 -0.000305,2.47583c-0.010681,0.997665 0.110413,1.726212 -0.333008,2.857498c-0.271606,0.692932 -0.945007,1.110733 -1.5,2c-0.504395,0.808182 -0.633484,1.514069 -0.919373,2.141998c-0.510864,1.122208 -1.10968,1.655273 -1.651794,2.216003c-0.838196,0.866989 -1.203918,1.504074 -1.59552,2.18367c-0.408875,0.709625 -0.989746,1.797791 -1.401306,2.472992c-0.399536,0.655441 -0.819824,1.28595 -1.284058,1.884003c-0.713684,0.919388 -1.271362,1.506226 -1.83548,2.122162c-0.583191,0.636749 -1.482788,1.642822 -1.779144,2.000839c-0.607483,0.733871 -1.203522,1.517426 -1.5,1.925003c-0.607239,0.834778 -1.204681,1.71698 -1.797333,2.633331c-0.29599,0.457672 -0.860474,1.357849 -1.130676,1.786667c-0.500305,0.793991 -1.274353,2.013824 -1.730347,2.550003c-0.607208,0.713959 -1.234924,1.827744 -2.105652,1.536667c-0.746155,-0.249435 -0.464569,-1.611069 -0.150665,-2.437332c0.271149,-0.713684 0.81958,-1.740234 1.414673,-2.154343c0.804138,-0.55957 1.699982,-0.797668 2.299988,-1.361664c0.600006,-0.563995 1.5,-0.979172 2.389343,-1.010666l0.589813,-0.510162" id="svg_33" stroke-linecap="null" stroke-linejoin="null" stroke-dasharray="null" stroke-width="5" stroke="#000000" fill="none"/>
  <path d="m516,151c1.400024,0.861328 1.740173,1.563232 2.410645,2.374664c0.697449,0.844086 1.242004,1.278015 1.764038,1.800003c0.804321,0.804199 1.357361,1.357422 1.880005,1.794662c0.983643,0.822922 1.315552,1.046692 2.007813,1.572342c0.749573,0.569168 1.937622,1.458176 2.337646,1.758499c0.804626,0.604034 1.211487,0.909241 2.035828,1.535828c0.421692,0.320526 1.730713,1.330688 2.185181,1.684998c0.927002,0.722687 1.390991,1.086304 1.858032,1.437332c0.906128,0.681091 1.323486,1.032211 2.577454,1.777176c0.7052,0.418976 1.371826,0.676514 2.170044,1.060501c0.983459,0.473083 1.552246,0.958664 2.541321,1.402664c0.715149,0.321045 1.446167,0.615433 2.570679,0.765335c0.821533,0.109512 1.760071,0.044769 2.518677,0.291992c1.033081,0.33667 1.81012,0.805511 2.23999,1.03067c0.899719,0.471268 1.3396,0.754059 2.735962,1.380005c0.867371,0.388824 1.297363,0.52861 2.104187,0.791656c0.740845,0.241531 2.020325,0.639175 2.790527,0.931c0.663757,0.251495 1.671021,0.557846 2.507996,0.600006c0.929565,0.046829 1.712158,0.010666 2.75415,0.010666c0.867004,0 1.757996,0 2.675964,0c0.852722,0 1.667175,0 2.634705,0c0.678345,0 1.645813,0 2.645813,0c0.854187,0 1.822693,0 2.574158,0c0.796509,0 2.025574,0.038345 2.668518,-0.035995c1.020569,-0.118011 1.8172,-0.439026 2.643982,-0.964005c0.75647,-0.480347 1.296082,-0.906555 2.152161,-1.321335c0.721191,-0.349426 1.535461,-0.678436 2.361023,-1.026001c1.153625,-0.485672 1.824829,-0.720261 2.591003,-1.173492c0.68573,-0.40564 1.250916,-1.033447 1.915833,-1.751175c0.517212,-0.558273 1.146606,-1.168564 1.97998,-1.727997c0.956726,-0.642227 1.523254,-0.895386 2.082703,-1.178665c0.560974,-0.284058 1.665405,-0.80307 2.17865,-1.050674c1.281738,-0.618347 2.146057,-1.112366 2.807007,-1.633163c0.782166,-0.616302 1.436646,-1.190979 1.813477,-1.504501c0.8078,-0.672119 1.232361,-1.014771 2.03418,-1.751663c0.763123,-0.70134 1.392029,-1.393326 1.921326,-2.024002l0.601501,-0.838501l0.484985,-0.875824l0.257507,-0.721664" id="svg_35" stroke-linecap="null" stroke-linejoin="null" stroke-dasharray="null" stroke-width="5" stroke="#000000" fill="none"/>
  <path d="m81,279c1.800003,0 2.567566,0.008667 3.5,-0.166656c0.868088,-0.163208 1.526978,-0.332886 2.533333,-0.634674c0.930099,-0.278931 1.702278,-0.633392 2.472,-0.841492c1.12146,-0.303192 1.805389,-0.300354 2.515503,-0.378021c0.732025,-0.080078 2.167717,-0.400421 2.844498,-0.697998c0.728676,-0.320404 1.513802,-0.75177 1.959999,-0.969147c1.003166,-0.488739 2.191811,-0.997101 2.833504,-1.255676c0.655632,-0.264191 1.318993,-0.518311 1.9785,-0.759003c0.640884,-0.233887 2.356323,-0.821686 3.254662,-1.042664c0.719452,-0.176971 1.354385,-0.241272 2.608002,-0.421326c0.753571,-0.108246 1.577576,-0.261841 2.424004,-0.444c0.418816,-0.090118 1.914452,-0.480438 2.504494,-0.684845c0.743385,-0.257538 2.170113,-1.44574 2.663506,-0.693817c0.099342,0.151398 -0.60244,0.630981 -1.077339,1.389313c-0.525864,0.839691 -1.287514,1.143768 -1.772827,1.922668c-0.482376,0.77417 -0.618324,1.489929 -0.836502,1.876007c-0.896156,1.585815 -1.393356,2.194855 -1.887505,2.878998c-0.522972,0.72406 -1.078568,1.465332 -1.648499,2.21701c-0.570404,0.752319 -1.1381,1.487396 -2.202667,2.871979c-0.48085,0.625397 -0.924698,1.204803 -1.333496,1.743011c-0.379158,0.499176 -0.729889,0.964661 -1.054504,1.401001c-0.304329,0.409058 -1.117149,1.519073 -1.59066,2.201324c-0.435432,0.627411 -1.160149,1.389893 -1.444672,2.344849c-0.245003,0.822296 0.777336,1.132721 1.735504,1.143158c0.830948,0.009033 1.791313,0.019257 2.542,-0.020844c0.797966,-0.042633 1.792107,-0.268402 2.668495,-0.553833c0.809105,-0.263519 1.652901,-0.403381 2.439339,-0.420837c1.03775,-0.023041 1.905998,-0.004486 2.862,-0.004486c0.488495,0 1.441498,0 2.675995,0c0.838501,0 1.220505,-0.101013 0.422668,0.446655c-0.533607,0.366302 -1.263489,1.225189 -1.672668,1.657501c-0.496925,0.525024 -1.417511,1.561768 -1.78083,1.981171c-0.800201,0.923737 -1.221092,1.417236 -1.65667,1.914673c-0.437744,0.499908 -0.850624,1.015991 -2.145828,2.333344c-0.382156,0.388702 -1.106224,1.048126 -1.770836,1.583313c-0.589134,0.474426 -1.639046,1.286652 -2.123337,1.687836c-0.768372,0.636505 -1.367569,1.098816 -2.105827,1.562164c-0.860344,0.539948 -1.35527,0.794647 -2.395836,1.354187c-0.543007,0.291992 -1.099602,0.581268 -1.657501,0.880493c-1.661797,0.891266 -2.191605,1.194336 -2.709335,1.489655c-0.989128,0.564209 -1.450546,0.839508 -2.313332,1.338348c-1.091019,0.630798 -1.946472,1.104187 -2.643829,1.46167c-0.810066,0.415253 -1.572571,0.842621 -2.591835,1.187653c-0.722855,0.24469 -1.45594,1.35376 -0.855003,1.954681c0.600929,0.600922 1.66642,0.35791 2.533333,0.109497c0.896591,-0.256927 1.628502,-0.794006 2.362503,-0.984497c0.717033,-0.186096 1.584824,-0.614838 2.24733,-1.016357c0.715958,-0.433929 1.408142,-0.95517 2.523506,-1.441986c0.66526,-0.290344 1.669304,-0.465759 2.319328,-0.60083c1.018562,-0.211639 1.739128,-0.451355 2.472672,-0.771179c0.757858,-0.330444 1.496399,-0.720551 2.554665,-1.328491c0.70723,-0.406281 1.483887,-0.867126 1.933334,-1.107513c1.046989,-0.559998 2.384872,-1.195923 3.179497,-1.556152c0.867897,-0.393463 1.802559,-0.800934 2.788506,-1.222504c1.021683,-0.436859 2.069855,-0.875275 3.130493,-1.3125c1.058029,-0.436127 3.121101,-1.268494 4.102837,-1.658325c0.948944,-0.376801 1.875214,-0.740295 2.783997,-1.102509c0.901886,-0.359467 1.804123,-0.723175 2.712006,-1.102509c0.926826,-0.387268 2.857697,-1.233765 3.873993,-1.701141c1.047775,-0.481842 2.108353,-0.984619 3.174011,-1.491028c1.05835,-0.50293 2.09494,-0.999542 3.10199,-1.472992c0.960999,-0.451782 2.703522,-1.244873 3.466675,-1.564819c0.68248,-0.286133 1.296249,-0.524567 1.841995,-0.727509c0.479721,-0.178406 0.901337,-0.32666 1.266006,-0.457489l0.312668,-0.115845" id="svg_36" stroke-linecap="null" stroke-linejoin="null" stroke-dasharray="null" stroke-width="5" stroke="#000000" fill="none"/>
  <path d="m103,245c1.699997,0.114334 2.371605,0.674683 2.714668,1.517334c0.337814,0.829758 0.528519,1.797592 0.806168,2.628494c0.199371,0.596649 0.486511,1.852844 0.578995,2.383499c0.212601,1.219849 0.294144,1.907455 0.379333,2.637344c0.089729,0.768784 0.171227,1.574051 0.235504,2.412003c0.134506,1.75354 0.167946,2.663513 0.199997,3.58667c0.032318,0.930878 0.051773,1.863953 0.064499,2.792999c0.012589,0.918945 0.017563,1.821991 0.019501,2.703003c0.00367,1.671997 0.002251,2.452332 0,3.194641c-0.002136,0.70636 -0.006462,1.378754 -0.019501,2.019012c-0.012428,0.610382 -0.028755,1.193085 -0.064499,1.748993c-0.067116,1.043671 -0.185318,2.009247 -0.350662,2.914673c-0.160461,0.878723 -0.368378,1.743317 -0.564003,2.627991c-0.201813,0.912628 -0.390839,1.826385 -0.479164,2.270844c-0.166496,0.837799 -0.441429,2.172852 -0.5,3.020844c-0.074738,1.082123 -0.020836,1.802979 -0.020836,2.593475c0,1.026855 0,1.722839 0,2.632172c0,0.998688 0,1.795166 0,2.546661c0,1.118683 0,2.102692 0,2.774689c0,0.989319 0,2.02533 0,2.742828c0,0.913483 0,1.713501 0,2.673004c0,0.793488 0,1.809479 0,2.764496c0,0.914337 0,1.814331 0,2.522339c0,1.056 0,1.967987 0,2.615997c0,1.175995 0,1.978668 0,2.842651c0,0.833344 0,1.811829 0,2.632019c0,0.837311 0,1.854004 0,2.548645c0,1.027344 0,1.974182 0,2.673523c0,0.979156 0,1.958313 0,2.8125c0,0.862152 0,1.766663 0,2.666656c0,0.899994 0,1.799988 0,2.700012l0,0.899994l0,0.899994l0,0.799988" id="svg_37" stroke-linecap="null" stroke-linejoin="null" stroke-dasharray="null" stroke-width="5" stroke="#000000" fill="none"/>
  <path d="m128,266c1.800003,0 2.726028,0.167603 3.520828,-0.041656c0.867706,-0.228424 1.408295,-0.87381 2.049835,-1.251678c0.866745,-0.510529 2.093201,-1.046906 2.842499,-1.349152c0.822479,-0.331787 1.708054,-0.660919 2.629501,-0.997528c0.935562,-0.341766 1.868301,-0.672485 2.773499,-0.997498c0.858795,-0.30835 2.352783,-0.856812 2.947342,-1.097809c0.499786,-0.202576 0.912918,-0.378021 1.240494,-0.546021c1.013275,-0.519623 1.826065,-1.02655 1.643341,-0.95166c-0.772522,0.316589 -0.602692,1.655304 -0.902008,2.373016c-0.361832,0.867584 -0.814697,1.589874 -1.053329,2.003998c-0.519379,0.901337 -0.804245,1.374756 -1.692001,2.855988c-0.299408,0.499573 -0.891876,1.484253 -1.189331,1.957336c-0.567795,0.903015 -0.80188,1.354462 -1.643997,2.376007c-0.452072,0.548401 -1.370117,1.136353 -1.923843,1.766479c-0.641724,0.730255 -1.293365,1.201599 -1.942825,1.547516c-0.876892,0.467072 -0.132599,0.375427 0.557327,0.34198c0.916641,-0.044434 1.791718,-0.18454 2.804001,-0.435974c0.728973,-0.181061 1.472198,-0.402405 2.517334,-0.874664c0.680069,-0.307281 1.311707,-0.697418 1.973999,-1.026001c1.349487,-0.669556 2.075134,-0.911102 2.764008,-1.090179c0.850616,-0.22113 1.323624,0.176453 0.599335,0.637512c-0.673309,0.428589 -1.499893,0.894257 -2.213333,1.471985c-0.808258,0.65451 -1.354065,1.096802 -1.978668,1.578674c-0.647385,0.499481 -1.27684,0.975311 -2.273346,1.781342c-0.574295,0.464539 -1.180496,0.947205 -2.036163,1.510834c-0.72345,0.476532 -1.536621,0.975983 -1.949158,1.242493c-0.817261,0.527985 -1.907837,1.284119 -2.493835,1.752991c-0.515274,0.412292 -1.120514,1.044647 -2.167007,1.700012c-0.718399,0.44989 -1.662811,0.589752 -2.504333,0.76181c-0.84993,0.173767 -1.124756,0.918152 -1.756165,1.487854c-0.676086,0.609985 -1.287163,0.999664 -2.143997,1.845337c-0.620949,0.612854 -1.191238,1.315735 -1.479164,1.666656c-0.567451,0.691589 -1.349335,1.670837 -2.050171,2.476654c-0.384689,0.442322 -1.0177,1.668854 -0.175163,1.51886c0.795563,-0.141632 1.311058,-0.798859 2.056335,-1.105347c0.827843,-0.340424 1.319061,-1.17627 2.314827,-1.723511c0.638908,-0.351135 1.455818,-0.541931 2.304008,-0.791992c0.432907,-0.127625 1.704269,-0.522064 2.458664,-0.85733c0.706879,-0.314148 1.636856,-0.874115 2.570663,-1.18399c0.88118,-0.292389 1.510803,-0.283295 2.399994,-0.501343c0.914978,-0.224365 1.863678,-0.715332 2.225006,-0.894501c0.81723,-0.405212 2.372986,-1.109161 3.003006,-1.358673c0.673889,-0.266876 1.387009,-0.529785 2.123993,-0.793488c0.747009,-0.267303 1.49556,-0.52533 2.231995,-0.775513c0.711578,-0.24173 2.015396,-0.678345 3.102676,-1.037842c0.465576,-0.153931 1.607498,-0.53714 2.220001,-0.68399c0.999832,-0.239716 1.88266,-0.277313 2.893158,-0.287994l0.779343,0l0.999329,0l0.82016,0" id="svg_38" stroke-linecap="null" stroke-linejoin="null" stroke-dasharray="null" stroke-width="5" stroke="#000000" fill="none"/>
  <path d="m134,235c1,1 1.356735,1.612259 1.916,2.285339c0.556,0.669159 0.772964,1.398911 1.109329,2.350662c0.295853,0.837112 0.62114,1.555389 0.853333,2.563828c0.176971,0.768616 0.382828,1.758469 0.695999,2.425507c0.393234,0.83754 0.378174,1.602493 0.646667,2.574493c0.220367,0.797791 0.713745,1.771698 0.77417,2.495667c0.078232,0.937256 0.004501,1.788498 0.004501,2.65184c0,1.016663 0,1.852661 0,2.75267c0,0.899994 0,1.699982 0,2.600006c0,0.971985 0,1.842651 0,2.550659c0,0.981323 0,1.944 0,2.717316c0,1.037354 0,1.781342 0,2.889008c0,0.72168 0,1.643005 0,2.542999c0,0.899994 0,1.800018 0,2.700012c0,0.899994 0,1.699982 0,2.600006c0,0.899994 0,1.820831 0,2.783997c0,0.690643 0,1.763336 0,2.682648c0,0.833344 0,1.811829 0,2.528839c0,0.90451 0,1.804504 0,2.704498c0,0.899994 0,1.801331 0,2.766663c0,0.854187 0,1.833344 0,2.633331c0,0.800018 0,1.804504 0,2.436005c0,1.185333 0,1.989349 0,2.81134c0,1.031342 0.00061,1.727325 0,2.636658c-0.000671,1.001343 0.000824,1.838593 -0.057159,2.420502c-0.119644,1.200623 -0.373032,2.083588 -0.517502,2.659515c-0.267685,1.067108 -0.345245,2.009033 -0.509338,2.834656c-0.202103,1.016876 -0.574875,1.579529 -0.794495,2.601166c-0.165146,0.76825 -0.121506,1.778656 -0.121506,2.598846c0,0.901337 0,1.801331 0,2.701324l0,0.899994l0,0.899994l-0.001328,0.898682" id="svg_39" stroke-linecap="null" stroke-linejoin="null" stroke-dasharray="null" stroke-width="5" stroke="#000000" fill="none"/>
  <path d="m98,329c1.800003,0 2.699997,0.00058 3.520836,0c0.963165,-0.000671 1.684814,0.06073 2.603165,-0.286652c0.750694,-0.283966 1.263344,-0.625824 2.525497,-1.034668c0.536377,-0.173737 1.738327,-0.504669 2.371338,-0.67868c0.637657,-0.175293 1.273132,-0.328461 2.979164,-0.833344c0.473412,-0.140106 1.280434,-0.411438 1.979164,-0.666656c1.040901,-0.380188 1.85173,-0.674377 2.855499,-0.986664c0.576805,-0.179443 1.208656,-0.362427 1.894501,-0.554993c0.739441,-0.207611 1.535439,-0.423462 2.389503,-0.64502c1.879379,-0.487549 2.908455,-0.736023 3.981331,-0.996002c1.102119,-0.267059 2.219841,-0.532654 3.337502,-0.796478c1.102341,-0.260193 2.175049,-0.510834 3.202499,-0.751495c1.860077,-0.435669 2.666168,-0.626221 3.389328,-0.797363c0.647171,-0.153168 1.225067,-0.290497 1.741501,-0.409485c0.460922,-0.106201 0.873489,-0.20047 1.246506,-0.274506c0.647949,-0.128571 1.208572,-0.235535 2.125336,-0.277313c0.969696,-0.044189 1.814606,0.271332 1.85733,1.089325c0.046936,0.898773 0,1.657166 0,2.552673c0,0.863312 0.009842,1.894135 -0.166672,2.847321c-0.16243,0.877167 -0.35257,1.562897 -0.537827,2.313507c-0.292984,1.187103 -0.48938,1.988464 -0.706161,2.786499c-0.217865,0.802063 -0.316696,1.210571 -0.756012,2.399994c-0.297333,0.804993 -0.652405,1.581635 -1.007996,2.328003c-0.335464,0.704163 -0.95871,1.890594 -1.283661,2.609497c-0.400009,0.884949 -0.562897,1.689606 -1.251511,2.380493c-0.450684,0.452179 -1.151489,1.337585 -1.404831,2.018005c-0.280853,0.754333 -0.453278,1.568848 -0.68399,2.328003c-0.366333,1.205414 -0.801788,1.876526 -1.17601,2.735992c-0.343414,0.788696 -0.741333,1.570679 -0.94133,2.368011l-0.109329,0.981323" id="svg_40" stroke-linecap="null" stroke-linejoin="null" stroke-dasharray="null" stroke-width="5" stroke="#000000" fill="none"/>
  <path d="m107,339c1.800003,0 2.699997,0.001129 3.520836,0c0.967163,-0.001343 1.777962,-0.014069 2.8125,-0.333344c0.65625,-0.202515 1.391281,-0.550995 2.267998,-0.923981c0.493095,-0.209778 1.02272,-0.444153 2.232002,-0.909332c1.378151,-0.530121 2.119965,-0.779999 2.871994,-1.037354c0.751984,-0.257324 1.494919,-0.502075 2.217003,-0.729004c0.685989,-0.215576 1.908173,-0.578339 2.883003,-0.814972c0.761894,-0.184937 1.427155,-0.243652 2.527992,-0.752014c0.659485,-0.304535 1.319901,-0.782898 2.016006,-1.26001c0.685211,-0.469635 1.588943,-1.128967 2.367996,-1.557312c0.777496,-0.42749 2.671753,0.21698 2.661331,-0.682678c-0.002106,-0.181335 -1.090225,-0.115082 -2.014664,0.036011c-0.873581,0.142761 -1.579239,0.565491 -2.56366,1.063995c-0.581772,0.294617 -1.46701,0.899994 -1.883011,1.614655l-0.679001,0.338013l-0.890991,0.299988l-0.694672,0.294678" id="svg_41" stroke-linecap="null" stroke-linejoin="null" stroke-dasharray="null" stroke-width="5" stroke="#000000" fill="none"/>
  <path d="m98,353c1.800003,0 2.699997,0.00058 3.520836,0c0.967163,-0.000671 1.76635,-0.003754 2.8125,-0.166656c0.636681,-0.099152 1.653015,-0.330139 2.304161,-0.537842c1.112617,-0.354889 1.689293,-0.737823 2.334839,-0.995514c1.205353,-0.48114 2.099541,-0.602203 2.575661,-0.699982c0.996399,-0.204651 1.507309,-0.279938 2.952003,-0.600006c0.844009,-0.186981 1.568939,-0.395569 2.472168,-0.642822c0.883186,-0.241791 1.71891,-0.344421 2.627831,-0.357178c0.900154,-0.012634 1.717918,-0.589142 2.5,-0.87851c0.851738,-0.315125 1.700005,-0.12149 2.599998,-0.12149l0.900002,0l0.879166,-0.020844" id="svg_42" stroke-linecap="null" stroke-linejoin="null" stroke-dasharray="null" stroke-width="5" stroke="#000000" fill="none"/>
  
  <path d="m104,371c0.166664,1.833344 0.93911,2.21524 1,3.100342c0.049004,0.712311 -0.074974,1.672211 0.036003,2.613007c0.110245,0.934601 0.768982,1.51889 0.90683,2.349152c0.153656,0.925476 -0.347382,1.994171 0.227837,2.649506c0.59214,0.674591 1.777214,0.565704 2.524834,0.935333c0.797394,0.394257 1.789833,0.352661 2.515167,0.352661c0.989326,0 1.78933,0 2.78933,0c0.810669,0 1.68541,-0.011261 2.683998,0.001343c0.81617,0.010315 1.645447,0.025482 2.630669,0.282654c0.676071,0.176483 1.679077,0.595428 2.474663,0.679993c0.722092,0.076752 1.800018,0.040894 2.71067,0.036011c0.840538,-0.004517 1.716087,-0.105194 3,-0.333344c0.59259,-0.105286 1.255081,-0.233917 1.969498,-0.376495c0.748276,-0.149323 1.510452,-0.307465 2.266495,-0.475494c0.733612,-0.163055 1.456802,-0.225189 3.049179,-0.792999c0.888443,-0.316803 1.688828,-0.915405 2.414825,-1.305664c0.854797,-0.459473 1.759201,-0.867126 1.800003,-1.716003c0.034164,-0.710846 -0.442673,-1.764008 -0.705338,-2.358002l-0.294662,-0.641998l-0.432007,-0.947998" id="svg_44" stroke-linecap="null" stroke-linejoin="null" stroke-dasharray="null" stroke-width="5" stroke="#000000" fill="none"/>
  <path d="m84,375c-0.878502,1.221497 -1,2.100006 -1,3c0,0.757172 0,1.652679 0,2.515991c0,0.963165 0,1.894684 0,2.805328l0,0.853333l0,0.940002" id="svg_45" stroke-linecap="null" stroke-linejoin="null" stroke-dasharray="null" stroke-width="5" stroke="#000000" fill="none"/>
  <path d="m156,367c0.057159,1.700012 0.460403,2.52359 0.947327,3.295502c0.443115,0.702454 1.052673,1.225342 1.488678,2.093842l0.663834,0.489502l0.73349,0.454498l0.192001,0.815979" id="svg_46" stroke-linecap="null" stroke-linejoin="null" stroke-dasharray="null" stroke-width="5" stroke="#000000" fill="none"/>
  <path d="m119,360c1.699997,0.057159 2.480293,0.541809 3.199997,1.198669c0.584511,0.533478 1.400002,0.82666 2.200005,1.226654l0.799995,0.489349l0.899834,0.08548l0.81617,0.283844" id="svg_47" stroke-linecap="null" stroke-linejoin="null" stroke-dasharray="null" stroke-width="5" stroke="#000000" fill="none"/>
  <path d="m236,264c4.22934,0 5.178665,0 6.200165,0c0.820663,0 1.485168,0 2.490509,0c0.913498,0 1.642487,0.000183 2.975998,0c0.518997,-0.000092 1.653015,-0.002625 2.255997,-0.010681c0.619034,-0.00827 1.248779,-0.008331 2.511993,-0.074646c1.232986,-0.064728 1.823944,-0.121002 2.942001,-0.271851c0.531021,-0.071655 1.533401,-0.237793 2.449997,-0.444153c1.236115,-0.27829 1.990204,-0.493103 2.73584,-0.782013c0.824768,-0.31958 1.270294,-0.541412 2.270844,-1.083313c1.204254,-0.652222 1.852173,-1.053528 2.546661,-1.456024c0.723846,-0.419525 1.47113,-0.851898 2.242493,-1.280975c0.781982,-0.434967 2.374023,-1.270233 3.176666,-1.653015c0.790802,-0.377136 1.576202,-0.724976 2.347504,-1.050003c0.747162,-0.31485 1.472198,-0.602921 2.167511,-0.869995c0.658081,-0.252777 1.851929,-0.691483 2.378479,-0.880157c0.481506,-0.172531 1.332367,-0.480316 2.089996,-0.685837c0.691345,-0.187546 1.736938,-0.35939 2.832001,-0.421341c0.723297,-0.040909 1.416016,-0.035324 2.613342,-0.035995c0.914673,-0.000504 1.892792,0.312637 2.650665,-0.221329c0.702637,-0.495041 1.254517,-0.331375 1.112335,0.525833c-0.150726,0.908737 -0.838318,1.547485 -1.399994,2.042831c-0.760681,0.670853 -1.490356,1.129135 -2.07901,1.673996c-0.378601,0.350433 -0.81131,0.786652 -1.845337,1.978668c-0.649231,0.748444 -1.350739,1.618866 -2.123993,2.57251c-0.832153,1.026276 -1.707062,2.116821 -2.627991,3.247498c-0.948364,1.164398 -1.90506,2.357391 -3.914673,4.679993c-0.989075,1.143127 -1.987,2.240601 -2.972992,3.301514c-0.958191,1.031006 -1.89917,2.013733 -2.811005,2.9505c-0.870331,0.894104 -1.703003,1.733002 -3.216003,3.247986c-0.670532,0.671448 -1.287994,1.287994 -1.856995,1.856995c-0.527008,0.527008 -1.018005,1.018005 -1.479004,1.479004c-0.437012,0.437012 -0.855896,0.856079 -1.664001,1.664001c-0.399475,0.399384 -0.795197,0.795471 -1.186493,1.182007c-0.380737,0.376099 -0.749207,0.736542 -1.105499,1.074005c-0.334808,0.317108 -0.639984,0.617126 -1.208008,1.077332c-0.230591,0.186829 -0.440094,0.33078 -0.623993,0.442505c-0.155273,0.09433 -0.292358,0.162292 -0.40802,0.217499c-0.097076,0.046326 -0.243073,0.034851 -0.301331,0.173309c-0.293854,0.698273 1.002899,0.885986 1.854187,0.8125c0.986298,-0.085144 1.623047,-0.348541 2.1875,-0.541656c0.761871,-0.260681 2.457489,-0.773834 3.204834,-0.980011c0.824585,-0.227478 1.708496,-0.460236 2.629486,-0.697479c0.936005,-0.241119 1.867615,-0.475037 2.773499,-0.69751c0.858093,-0.210754 2.349854,-0.565338 2.947662,-0.697998c0.499664,-0.11087 0.911316,-0.227783 1.548676,-0.302002c1.0159,-0.118317 1.943878,-0.162659 2.625,-0.005341c1.004456,0.231995 1.108032,1.268677 1.020844,2.005341c-0.084747,0.716125 -0.523499,1.913147 -0.830353,2.630829c-0.343201,0.802673 -0.552734,1.223511 -1.127991,2.640015c-0.206665,0.508911 -0.624817,1.622345 -0.864014,2.23465c-0.258636,0.662079 -0.546936,1.379486 -0.878998,2.155518c-0.363495,0.849548 -1.251648,2.779083 -1.785004,3.868164c-0.570282,1.164459 -1.185272,2.374695 -1.823975,3.61499c-0.645294,1.253082 -1.295105,2.493835 -1.932007,3.704987c-0.611115,1.16214 -1.716705,3.254639 -2.187347,4.152344c-0.419952,0.800995 -0.794617,1.520691 -1.134003,2.171997c-0.311279,0.597382 -0.601746,1.155151 -0.881989,1.686005c-0.274414,0.519836 -0.845154,1.578461 -1.155334,2.142181c-0.324432,0.58963 -0.663239,1.197998 -1.007996,1.822479c-0.349945,0.63385 -0.700745,1.272217 -1.044006,1.912506c-0.339386,0.633057 -0.974976,1.866028 -1.262482,2.457489c-0.276398,0.568604 -0.53244,1.1203 -0.781525,1.650024c-0.239929,0.510254 -0.471466,1.002258 -0.709503,1.470001c-0.230164,0.452209 -0.711914,1.294342 -0.973145,1.680664c-0.256317,0.379059 -0.529755,0.738556 -0.804001,1.09198c-0.546173,0.703827 -0.870224,1.023895 -1.608002,2.184021c-0.517395,0.813568 -0.714005,1.272003 -1.166672,2.166656c-0.452667,0.894653 -0.628906,1.366913 -1.421829,2.557495c-0.509964,0.765717 -0.828583,1.108521 -1.460831,1.829163c-0.33255,0.379059 -1.452087,1.612091 -1.859833,2.077179c-0.425659,0.485504 -1.297729,1.501312 -1.736679,2.01532c-0.434387,0.508667 -0.850571,1.01239 -2.020828,2.354187c-0.333969,0.382904 -0.931412,1.062378 -1.520828,1.625c-0.57991,0.553528 -1.64325,1.37854 -2.064667,1.684326c-0.924042,0.670471 -1.425705,1.009155 -1.935333,1.35733c-0.513046,0.350494 -1.528183,1.032471 -2.479172,1.666656c-0.842392,0.561768 -1.579025,1.05423 -2.231995,1.476013c-0.57666,0.372467 -1.562149,1.013489 -2.247177,1.315674c-0.99501,0.438934 -1.809692,0.523651 -2.854156,0.541656c-0.708237,0.012207 -1.666672,0 -2.533676,0c-0.674667,0 -1.389328,0 -2.811493,0c-0.664337,0 -1.61084,0.002014 -2.220169,0c-1.209351,-0.003998 -1.865341,-0.063995 -2.61734,-0.216003l-0.895996,-0.29599" id="svg_48" stroke-linecap="null" stroke-linejoin="null" stroke-dasharray="null" stroke-width="5" stroke="#000000" fill="none"/>
  <path d="m251,272c-0.97467,1.814667 -1.280334,2.660858 -2,3.166656c-0.625427,0.439575 -0.88765,1.375122 -1,2.354187c-0.091309,0.795685 -0.240265,1.813538 -0.541672,2.458313c-0.300278,0.642365 -1.118332,1.619324 -1.458328,2.041687c-0.527557,0.655365 -1.124237,1.66394 -1.38533,2.236481c-0.436096,0.956299 -0.943619,2.078278 -1.157333,2.485168c-0.45343,0.863251 -0.956528,1.737122 -1.206665,2.170837c-0.481125,0.834229 -1.114136,1.919495 -1.445343,2.533173c-0.464645,0.860901 -0.771912,1.491547 -1.34816,2.638672c-0.225937,0.449768 -0.713623,1.408112 -0.977997,1.893982c-0.521423,0.958282 -0.726501,1.450684 -1.557678,2.514008c-0.634674,0.81192 -1.18869,1.137756 -1.921494,2.173492c-0.452087,0.638977 -0.809906,1.456421 -1.020828,1.875c-0.434753,0.862793 -1.136169,2.1315 -1.400177,2.515015c-0.504486,0.732849 -1.05014,1.349365 -1.511993,1.919983c-0.840073,1.037903 -1.136032,1.741058 -1.733673,2.523346c-0.441528,0.577942 -1.052658,1.189911 -1.703995,1.859985c-0.331299,0.34082 -1.296005,1.306671 -1.858673,1.869354c-0.728989,0.729004 -1.161667,1.161652 -1.97049,1.97049c-0.589508,0.589508 -1.087769,1.203033 -1.921509,1.914825c-0.610901,0.521545 -1.708679,0.898987 -2.501328,1.084015c-0.447922,0.104553 -1.418259,0.285065 -1.922668,0.365326c-1.003922,0.15976 -2.389297,0.326324 -3.183167,0.378845c-0.708374,0.046875 -1.667496,0.055817 -2.571167,0.057159l-0.878998,0l-0.807007,0" id="svg_49" stroke-linecap="null" stroke-linejoin="null" stroke-dasharray="null" stroke-width="5" stroke="#000000" fill="none"/>
  <path d="m236,304c0.878662,1.221497 1.193069,2.124054 1.704498,2.700012c0.650208,0.732269 1.02739,1.460999 1.462173,2.299988c0.366608,0.707428 1.154831,1.321503 1.669327,1.835999c0.568497,0.568512 1.363831,1.363831 1.953339,1.953339c0.553497,0.553497 1.168579,1.212372 1.90799,1.872009c0.781174,0.696869 1.354935,1.111176 2,1.599976c0.696075,0.527466 1.054626,0.79657 2.136002,1.572021c0.674622,0.483795 1.335526,0.873138 2.090668,1.505005c0.869644,0.727692 1.183701,1.508972 1.740677,2.204315c0.602554,0.752258 1.176453,1.243408 1.824661,1.689331c0.994278,0.68399 1.766495,0.966034 2.531509,1.268005c0.782318,0.308777 1.20575,0.41803 2.378662,1.042664c0.805786,0.429108 1.546906,0.945129 2.229004,1.451996c0.883301,0.656403 1.508423,1.219055 2.119476,1.656006c0.464447,0.332123 1.457031,0.895874 2.324341,1.359161c0.474609,0.25351 1.474274,0.773071 1.978668,1.041992c1.452759,0.774536 1.890961,1.016327 2.682007,1.495514c0.731293,0.442993 1.415375,0.898651 2.433655,1.619324c0.356323,0.252197 1.081268,0.788269 1.833344,1.3125c0.742737,0.5177 1.824036,1.205536 2.515991,1.551514c0.65036,0.325165 1.311218,0.579437 1.968018,0.85199c1.040649,0.431824 1.781494,0.77121 2.557648,1.158997c0.824158,0.411774 2.125641,1.12384 2.579346,1.379333c0.923981,0.520325 1.379242,0.789825 2.281677,1.281677c0.428589,0.233582 1.588837,0.821472 2.516815,1.134827c0.84549,0.285522 1.399353,0.93219 1.85733,1.571503c0.472748,0.659943 1.486877,1.190369 1.860504,1.369659c0.763947,0.366608 1.520142,0.674866 2.723999,1.053345c0.929291,0.292145 1.677124,0.618896 2.410675,1.018677c0.83194,0.4534 1.718353,0.859833 2.659485,1.043976c0.708649,0.138672 1.569153,0.20694 2.065857,0.273346c1.170532,0.156494 1.853821,0.271393 2.599976,0.403992c0.803589,0.142792 1.655426,0.307007 2.548523,0.490509c0.929626,0.19101 1.887115,0.397369 2.863495,0.625488c1.993713,0.46582 2.990295,0.73056 3.982666,0.993347c0.981628,0.259918 1.943756,0.52359 2.882996,0.777008c0.908752,0.245209 1.779968,0.48288 2.613007,0.686981c1.508423,0.369568 2.18335,0.498199 2.813324,0.601349c0.599518,0.098145 1.189331,0.166656 1.782013,0.232483l0.612671,0.060852l0.648651,0.060822l0.700653,0.065826" id="svg_50" stroke-linecap="null" stroke-linejoin="null" stroke-dasharray="null" stroke-width="5" stroke="#000000" fill="none"/>
  <path d="m385,225c1.648163,1.071503 2.0401,1.532547 2.430664,2.404007c0.390564,0.871445 0.553802,1.870361 0.835999,2.612c0.165039,0.433685 1.056641,1.991119 1.504669,2.61232c0.495056,0.686386 1.063416,1.400406 1.674011,2.145004c0.63327,0.772247 1.294647,1.547821 1.961975,2.324997c0.660706,0.76947 1.927643,2.233627 2.506683,2.91568c0.546204,0.643356 1.058624,1.256271 1.541992,1.841995c0.461884,0.559662 0.902069,1.100754 1.326019,1.625992c0.413361,0.5121 1.21817,1.517868 1.619476,2.020004c0.410706,0.51387 0.83963,1.051529 1.294525,1.626007c0.492126,0.62149 1.028778,1.303375 1.6185,2.057999c0.654358,0.837311 2.186188,2.813446 3.078308,3.971161c0.970612,1.259567 2.004242,2.605911 3.088501,4.021515c1.123413,1.466736 2.27124,2.968903 3.430511,4.489471c1.159393,1.520752 3.42218,4.497986 4.501495,5.923523c1.04068,1.374512 2.040771,2.699402 3,3.975006c0.920746,1.224426 1.800903,2.399323 2.640015,3.524994c0.800842,1.074341 2.281006,3.074249 2.960663,4.000824c0.645599,0.880127 1.258087,1.72113 1.84198,2.527496c0.561401,0.77533 1.101746,1.526367 1.626007,2.257507c0.513062,0.715546 1.516998,2.12323 2.018494,2.82251c0.502502,0.700714 1.009186,1.402832 1.531525,2.099976c0.526642,0.702911 1.069733,1.40509 1.639496,2.100006c0.578217,0.705231 1.821564,2.106628 2.492493,2.7995c0.68103,0.703308 1.389587,1.391693 2.112,2.068512c0.719604,0.674194 1.445374,1.326996 2.165985,1.96048c0.703461,0.618439 2.056824,1.772919 2.693176,2.306671c0.605042,0.507507 1.183105,0.98584 1.735504,1.435516c0.524017,0.426575 1.024078,0.826904 1.501495,1.201508c0.451996,0.354645 1.292999,0.99649 1.684662,1.284485c0.369781,0.271912 0.722107,0.523285 1.060516,0.75c0.318085,0.213104 0.622498,0.404968 0.916504,0.570007c0.275574,0.154694 0.797272,0.39624 1.044495,0.480499c0.233032,0.079437 0.459351,0.135895 0.674988,0.181488c0.204468,0.043243 0.400269,0.074554 0.585022,0.109497c0.175262,0.033142 0.497131,0.113129 0.64032,0.17334c0.139618,0.058685 0.270294,0.133118 0.395996,0.214508c0.127045,0.082275 0.250671,0.174652 0.377991,0.268494c0.131348,0.096832 0.412872,0.297272 0.568665,0.395508c0.16153,0.101868 0.331116,0.200409 0.504028,0.299988c0.174408,0.100433 0.351318,0.196594 0.521973,0.300018c0.638977,0.387207 1.242004,0.863983 2.052673,1.263977l0.895508,0.040497" id="svg_51" stroke-linecap="null" stroke-linejoin="null" stroke-dasharray="null" stroke-width="5" stroke="#000000" fill="none"/>
  <path d="m408,260c-1.410675,2.374664 -2.172424,3.161011 -2.657166,3.661652c-0.560211,0.578583 -1.346649,1.502075 -1.742828,2.021027c-0.4039,0.529022 -0.936737,1.370483 -1.800659,2.174988c-0.60141,0.560059 -1.149414,0.856384 -1.740692,1.281006c-1.156647,0.830658 -1.600525,1.200378 -2.082825,1.589996c-0.511139,0.412903 -1.584381,1.311829 -2.136658,1.789337c-0.561096,0.485138 -1.673859,1.48053 -2.217834,1.981659c-0.538666,0.496246 -1.067139,0.993011 -1.596008,1.479004c-0.523804,0.481323 -1.569794,1.417023 -2.109344,1.850677c-1.066803,0.857422 -1.632874,1.234222 -2.198639,1.599976c-0.56134,0.362885 -1.69577,1.030334 -2.256012,1.349335c-0.550781,0.313629 -2.130371,1.217468 -2.6185,1.521332c-0.475891,0.296265 -1.382477,0.898621 -1.821991,1.200012c-0.870941,0.597229 -1.295776,0.911591 -2.641998,1.799835c-0.458923,0.302795 -1.392975,0.890381 -1.858002,1.179321c-0.909943,0.565399 -1.354004,0.831482 -2.578339,1.599518c-0.743195,0.466217 -1.460297,0.926361 -2.205017,1.373993c-0.389221,0.233948 -1.700134,0.971832 -2.192169,1.231323c-1.039154,0.548065 -1.585999,0.817993 -2.141327,1.090668c-0.559357,0.274658 -2.236084,1.061493 -2.781982,1.30368c-1.04895,0.465393 -1.553436,0.676331 -2.503357,1.074982c-0.442383,0.185669 -1.621338,0.67395 -2.569641,1.098511c-0.592377,0.265228 -1.218842,0.563599 -2.382355,1.081512c-0.987213,0.439423 -1.538361,0.673523 -2.114655,0.917328c-0.592987,0.250885 -1.801208,0.748596 -2.402679,0.981323c-1.145966,0.443451 -2.190369,0.799469 -2.668823,0.95816c-0.875854,0.290466 -1.682159,0.493927 -2.647156,0.976501c-0.85321,0.426666 -1.548004,0.972015 -2.5,1.5l-0.781525,0.219025l-0.790497,0.092987" id="svg_52" stroke-linecap="null" stroke-linejoin="null" stroke-dasharray="null" stroke-width="5" stroke="#000000" fill="none"/>
  <path d="m390,293c1.757172,0 2.67276,0.11673 3.515991,-0.085327c0.898102,-0.21521 1.649841,-0.751678 2.405334,-0.921326c0.576721,-0.129486 1.368561,-0.315002 2.412018,-0.660004c1.352051,-0.447021 2.106018,-0.748413 2.911987,-1.045349c0.838043,-0.308746 1.694794,-0.626038 2.562012,-0.934509c0.860809,-0.306183 2.523956,-0.860382 3.306152,-1.089142c0.739288,-0.216217 1.443726,-0.39975 2.110504,-0.567017c0.629578,-0.157928 1.226135,-0.298218 1.786499,-0.440979c0.528931,-0.134766 1.934875,-0.554077 2.709015,-0.90451c0.685974,-0.310516 1.480225,-0.840393 2.466156,-1.242004c0.796448,-0.324402 1.508423,-1.351929 2.378326,-1.063171c0.726166,0.241028 0.464996,1.497223 0.415161,2.474182c-0.04071,0.798035 -0.268738,1.800537 -0.5,2.583313c-0.187103,0.633331 -0.482971,1.895142 -0.579315,2.424347c-0.105347,0.578766 -0.309296,1.855682 -0.420685,2.533997c-0.113922,0.693726 -0.228058,1.394562 -0.364502,2.089508c-0.265289,1.351227 -0.593872,2.593384 -0.767334,3.176483c-0.16803,0.564911 -0.52475,1.63858 -0.694641,2.15802c-0.494141,1.510864 -0.643005,2.010284 -0.895508,3.009003c-0.247986,0.980774 -0.346191,1.468536 -0.555847,2.419159c-0.30072,1.363586 -0.401611,1.796967 -0.590668,2.627991c-0.176147,0.774323 -0.472229,2.120819 -0.553497,2.974518c-0.055725,0.585449 -0.054901,1.273987 -0.057159,2.649475c-0.000946,0.58252 0,1.220001 0,2.600006c0,0.712494 0,1.420013 0,2.107513c0,0.652496 0,2.254333 0,3.269836c0,0.691498 0,1.619995 0,2.531982l0,0.64801l0,1.175995l-0.020844,0.916656" id="svg_53" stroke-linecap="null" stroke-linejoin="null" stroke-dasharray="null" stroke-width="5" stroke="#000000" fill="none"/>
  <path d="m394,315c6.592499,-1.978668 7.648743,-2.321838 8.377502,-2.752655c0.860992,-0.509003 1.429688,-1.087341 1.85849,-1.458008c0.923218,-0.798035 1.440857,-1.211578 2.368164,-1.810181c0.345551,-0.223053 1.128571,-0.684326 2.581665,-1.400665c0.550507,-0.271393 1.137756,-0.536896 1.747498,-0.814484c0.628601,-0.286163 1.274841,-0.571381 2.58667,-1.165344c1.31485,-0.595337 1.958557,-0.896423 2.588013,-1.195984c0.61322,-0.29184 1.205963,-0.574829 2.301331,-1.130676c0.501862,-0.254669 1.757324,-0.93866 2.600342,-1.448669l0.610657,-0.399994" id="svg_54" stroke-linecap="null" stroke-linejoin="null" stroke-dasharray="null" stroke-width="5" stroke="#000000" fill="none"/>
  <path d="m372,347c1.825348,-0.963989 2.843994,-0.921875 3.583344,-1.0625c0.658722,-0.125275 1.624634,-0.601532 2.511475,-1.004486c0.506592,-0.230164 1.046143,-0.486115 2.242004,-0.989349c0.63797,-0.268463 1.994263,-0.783691 2.706665,-1.022339c0.728912,-0.244171 1.483185,-0.472687 2.260498,-0.695984c0.798981,-0.229492 1.624939,-0.452148 2.476501,-0.678009c0.877777,-0.232819 2.719513,-0.713989 3.685852,-0.968994c1.004333,-0.265015 2.053955,-0.542694 3.158997,-0.825012c1.165588,-0.297821 2.40155,-0.604706 3.71701,-0.914978c1.39917,-0.330017 4.489777,-1.010986 6.192993,-1.359344c1.792725,-0.366669 3.660828,-0.728882 5.585999,-1.083008c1.960846,-0.360687 3.942749,-0.706177 5.928009,-1.028992c1.966797,-0.319794 5.782684,-0.877289 7.600647,-1.102325c1.755493,-0.217285 3.462463,-0.398376 5.130005,-0.546021c1.635834,-0.144836 3.252869,-0.258636 4.860016,-0.347992c1.606232,-0.089294 4.859894,-0.207733 6.523315,-0.249512c1.683258,-0.042267 3.376709,-0.071869 5.070007,-0.106476c1.68335,-0.034393 3.346832,-0.069763 4.980011,-0.124512c1.593536,-0.053406 4.620941,-0.211914 6.035309,-0.333008c1.348358,-0.115448 2.6297,-0.25885 3.846008,-0.418488c1.156372,-0.151764 2.251343,-0.319916 3.287994,-0.490509c0.981995,-0.161621 2.783875,-0.482208 3.609161,-0.626495c0.776062,-0.135681 1.50415,-0.261169 2.185516,-0.375c0.634979,-0.106079 1.225342,-0.200012 1.771484,-0.285004l0.503174,-0.075012" id="svg_55" stroke-linecap="null" stroke-linejoin="null" stroke-dasharray="null" stroke-width="5" stroke="#000000" fill="none"/>
  <path d="m486,262c1.84668,0 2.686676,0 3.68399,0c0.81601,0 1.632111,0.012848 2.634674,-0.001343c0.723175,-0.010223 1.538788,-0.064697 2.546661,-0.22049c0.831268,-0.128479 1.802002,-0.337708 2.34668,-0.460846c0.588074,-0.132965 1.220947,-0.280518 2.621338,-0.650665c0.774292,-0.204651 1.5849,-0.432831 2.42099,-0.676483c0.851959,-0.24826 1.705322,-0.506897 2.546997,-0.775513c0.822327,-0.262451 1.616211,-0.509888 3.032013,-1.048004c0.61972,-0.235535 1.667755,-0.698334 2.104004,-0.930664c0.762543,-0.406067 1.900879,-1.230164 2.376007,-1.633331c0.651794,-0.55307 1.555664,-1.776184 2.23999,-1.473328c0.742126,0.32843 0.440308,1.702606 0.445313,2.274658c0.010498,1.201324 0.001343,1.838684 0.001343,2.924683c0,0.412659 0.001343,1.857666 -0.001343,2.415314c-0.00592,1.221375 -0.016907,1.881073 -0.034668,2.570679c-0.018494,0.717712 -0.037476,1.462006 -0.130676,3.018677c-0.048462,0.80954 -0.11554,1.633484 -0.185974,2.467499c-0.070923,0.839325 -0.147888,1.678253 -0.221985,2.512482c-0.073242,0.824127 -0.152039,1.632568 -0.258667,3.186676c-0.050415,0.734985 -0.084473,1.442566 -0.114014,2.123993c-0.05603,1.292511 -0.071716,1.908356 -0.105347,2.505341c-0.096069,1.705109 -0.159668,2.250153 -0.299988,3.30899c-0.068359,0.515625 -0.225952,1.514435 -0.294678,2c-0.197327,1.393463 -0.271423,2.274841 -0.327332,3.115021c-0.053223,0.799805 -0.067078,1.566315 -0.246826,2.625641c-0.173889,1.02475 -0.397583,1.716278 -0.579834,2.475677c-0.313385,1.305908 -0.397156,1.797913 -0.609344,2.82135c-0.108704,0.524292 -0.332306,1.569794 -0.47467,2.071991c-0.396606,1.399048 -0.754547,2.179993 -1.093811,2.868652c-0.30365,0.616364 -0.784119,1.660156 -1,2.541687c-0.24939,1.01828 -0.559235,1.802734 -1.520844,2.020813c-0.888123,0.201416 -1.698425,-0.275818 -2.325348,-0.851166c-0.551727,-0.506348 -1.208008,-1.296509 -1.632996,-2.107147c-0.433167,-0.826233 -0.591278,-1.642334 -0.96698,-2.331512c-0.626556,-1.149292 -0.994659,-1.596039 -1.338013,-2.114319c-0.363312,-0.54837 -1.115051,-1.691833 -1.473328,-2.273346c-0.348297,-0.565308 -0.978943,-1.614929 -1.338013,-2.560333c-0.297333,-0.782867 -0.371521,-1.504608 -0.59198,-2.741333c-0.159729,-0.896088 -0.353943,-1.452881 -0.549347,-2.22934c-0.277405,-1.102325 -0.376404,-2.100922 -0.247986,-2.945313c0.146667,-0.964355 0.626038,-1.475128 1.285309,-2.368011c0.516235,-0.699158 0.823914,-1.228516 1.512024,-2.123993c0.529907,-0.689575 1.124695,-1.231323 1.936005,-1.817352c0.485413,-0.350616 1.272308,-0.880157 2.309998,-1.494995c0.481415,-0.285248 1.291199,-0.716095 1.945984,-1.075653c1.283569,-0.704803 1.793243,-0.996185 2.333496,-1.298828c0.557068,-0.312042 1.677551,-0.936218 2.220673,-1.231354c0.514282,-0.279449 2.099701,-1.102448 2.816315,-1.352661c0.914001,-0.319122 1.570251,-0.665802 2.582703,-0.94101c0.70105,-0.190582 1.837036,-0.124451 2.020142,0.67984c0.178223,0.782806 0.001343,2.032013 0.001343,2.824005c0,0.455994 0,1.458008 0,1.992004c0,1.104004 0.005066,2.216034 -0.002686,3.298645c-0.003784,0.531372 -0.029785,1.584625 -0.069336,2.109344c-0.079956,1.060272 -0.237793,2.146606 -0.5,3.258667c-0.134766,0.571625 -0.290833,1.14798 -0.685303,2.29068c-0.198914,0.576202 -0.406494,1.151978 -0.909363,2.258667c-0.495117,1.089661 -0.774597,1.609558 -1.354126,2.604156c-0.282227,0.484375 -0.861572,1.404358 -1.479187,2.229156c-0.581177,0.776093 -1.18808,1.462433 -1.479156,1.791687c-0.561249,0.634827 -1.368439,1.530487 -1.832855,2.138977c-0.645691,0.845978 -1.057678,1.346375 -1.519989,2.436005c-0.341003,0.803711 -0.600647,1.736481 -0.891327,2.347168c-0.347382,0.729828 -0.794556,1.550415 -1.050018,1.994171c-0.8508,1.477875 -1.190186,1.988281 -1.518494,2.512665c-0.644775,1.029877 -0.960632,1.511353 -1.231323,1.978668c-0.802887,1.386108 -0.717285,2.323425 0.159149,2.062012c0.949524,-0.283203 1.461853,-1.019073 1.997192,-1.451355c1.021606,-0.824921 1.450134,-1.122559 2.381989,-1.786499c0.495667,-0.353149 1.007141,-0.708954 1.519501,-1.0755c1.017578,-0.727966 1.974518,-1.436768 2.807983,-2.127991c0.385681,-0.319855 1.080383,-0.938354 1.686707,-1.524994c0.812561,-0.786194 1.272522,-1.288391 1.949829,-1.920013c0.608276,-0.567261 1.383606,-1.237427 2.256836,-1.595001c0.899353,-0.368317 1.716614,-0.398499 2.538635,-0.507996l1.058655,-0.272003l0.705017,-0.371979l0.61499,-0.444" id="svg_56" stroke-linecap="null" stroke-linejoin="null" stroke-dasharray="null" stroke-width="5" stroke="#000000" fill="none"/>
  <path d="m541,255c1.757141,0 2.663452,0.053085 3.40448,-0.057159c1.011475,-0.150482 1.826477,-0.565887 2.762207,-0.942841c0.530518,-0.213715 1.187805,-0.450363 2.039978,-0.779999c0.527405,-0.203995 1.135437,-0.441528 2.626648,-1.053329c0.903992,-0.370895 1.901917,-0.790695 2.981995,-1.248001c1.149292,-0.486603 2.351868,-1.000824 3.594055,-1.536011c1.269104,-0.546799 2.550964,-1.10022 5.090637,-2.215988c1.235962,-0.543015 2.441162,-1.079117 3.619507,-1.60051c1.151001,-0.509277 2.275269,-1.006042 3.376465,-1.48349c1.075195,-0.466156 2.123474,-0.92514 4.170715,-1.749344c0.986511,-0.397156 1.953796,-0.76358 2.891968,-1.114502c0.904541,-0.338348 1.775024,-0.655304 2.604004,-0.961487c0.785706,-0.290207 1.53009,-0.551147 2.837341,-1.090668c0.574036,-0.236908 1.087524,-0.474182 1.547974,-0.7005c0.416687,-0.204788 0.785339,-0.403671 1.116028,-0.583511l0.294678,-0.163834l0.262634,-0.14682" id="svg_61" stroke-linecap="null" stroke-linejoin="null" stroke-dasharray="null" stroke-width="5" stroke="#000000" fill="none"/>
  <path d="m563,198c0.435974,1.825333 0.859863,2.479584 1.389343,3.395996c0.367493,0.636093 0.529724,1.663834 0.596008,2.344009c0.077942,0.799805 0.160583,1.723953 0.347961,2.759995c0.209961,1.161026 0.374817,1.771912 0.528015,2.408005c0.157715,0.654922 0.328369,1.322937 0.490479,2.005493c0.494812,2.083389 0.630554,2.785751 0.762878,3.486496c0.132019,0.699295 0.25177,1.399612 0.364502,2.100006c0.11261,0.699615 0.218567,1.399673 0.520813,3.5c0.100708,0.69989 0.199951,1.399994 0.299988,2.100006c0.099976,0.699997 0.200012,1.399994 0.299988,2.099991c0.100037,0.699997 0.400391,2.799957 0.499878,3.499664c0.099182,0.697632 0.197083,1.391144 0.28949,2.07901c0.091309,0.679459 0.258484,2.006454 0.325317,2.650665c0.128296,1.236374 0.204468,2.39711 0.228149,2.947327c0.0448,1.039688 0.050659,1.529968 0.055847,2.449997c0.006897,1.23082 0.001343,1.972504 0.001343,2.694168c0,0.741669 0,1.979172 0,2.93251c0,0.509155 0,1.56749 0,2.106659c0,1.073334 0,2.597168 0,3.070663c0,0.908005 -0.000061,1.784012 0,2.652008c0.000122,1.339005 -0.003784,1.804062 0.010681,2.763992c0.007446,0.495056 0.0224,1.51683 0.156006,3.119995c0.046265,0.555603 0.114624,1.119019 0.258667,2.269348c0.073242,0.585022 0.16156,1.173248 0.290649,2.365326c0.129639,1.197388 0.173462,1.798126 0.226807,2.998657c0.026672,0.599792 0.041321,1.199951 0.052673,2.400024c0.005676,0.599945 0.004517,1.799988 0.004517,2.996002c0,0.590485 0,1.171997 0,2.29599c0,0.536499 0.004456,2.008026 -0.001343,2.855988c-0.00531,0.776031 -0.019226,1.529144 -0.083984,2.304016c-0.109985,1.315948 -0.271729,2.346527 -0.350647,2.919983c-0.084717,0.61554 -0.176453,1.275757 -0.268555,1.984497c-0.098694,0.759277 -0.298218,2.443207 -0.395325,3.371002c-0.101746,0.972198 -0.197632,1.974823 -0.28949,2.992523c-0.091858,1.017303 -0.176392,2.019836 -0.253479,2.992493c-0.073486,0.927368 -0.192566,2.587372 -0.235657,3.293823c-0.038025,0.624207 -0.066284,1.174591 -0.08551,1.658997c-0.016907,0.42627 -0.035339,1.437347 -0.036011,2.453339c-0.000488,0.722992 0,1.536011 0,2.545837c0,0.807007 0,1.697998 0,2.648987c0,0.490509 0,1.986359 0,2.982025c0,0.493805 0,1.468475 0,1.947327c0,1.390503 0,2.273163 0,3.131836c0,0.850647 0.000671,1.70932 0,2.59198c-0.000671,0.91333 0.003784,1.82724 -0.036011,2.700012c-0.036194,0.794037 -0.229736,2.00827 -0.505676,2.674988c-0.320923,0.775421 -0.786072,1.884857 -0.940979,2.367676c-0.346741,1.080688 -0.501648,1.672699 -0.656006,2.282654c-0.156738,0.619354 -0.535034,2.473633 -0.618469,3.064667c-0.080322,0.569092 -0.183838,1.649841 -0.257507,2.650024c-0.034607,0.46991 -0.130066,1.763702 -0.269348,2.521332c-0.186707,1.01532 -0.417847,1.595245 -0.594482,2.65033c-0.14624,0.873596 -0.121521,1.900146 -0.121521,2.720337c0,0.958496 0,1.854004 0,2.548645c0,1.027344 0,1.973999 0,2.827332c0,0.941345 0,1.709351 0,2.650696c0,1.007996 0.010925,1.764038 0,2.674652c-0.010681,0.889526 -0.743835,1.593933 -1.351807,1.381165c-1.023315,-0.358124 -1.29541,-1.183746 -1.981506,-2.214508c-0.429932,-0.645905 -0.684692,-0.990601 -1.229187,-1.75c-0.602722,-0.840668 -0.930176,-1.286652 -1.604187,-2.25c-0.722351,-1.03244 -1.085999,-1.576477 -1.458618,-2.127991l-0.374695,-0.559509l-0.374695,-0.564484l-0.741333,-1.132019" id="svg_62" stroke-linecap="null" stroke-linejoin="null" stroke-dasharray="null" stroke-width="5" stroke="#000000" fill="none"/>
  <path d="m538,294c1.22168,-0.87851 2.166687,-1 2.825317,-1c1.007996,0 1.88446,-0.031006 2.596008,-0.436005c0.931885,-0.530426 1.592224,-0.879333 2.436035,-1.164001c0.626831,-0.211456 1.664246,-0.497803 2.386292,-0.699982c1.059937,-0.296783 1.729309,-0.436707 2.70166,-0.898682c0.825195,-0.392059 1.706055,-0.765289 2.402039,-0.796844c1.015747,-0.046051 1.724731,-0.553711 2.652649,-0.83783c0.68335,-0.209259 0.988525,0.89563 0.998657,1.521332c0.016235,0.998566 0.001404,1.853668 0.001343,2.798676c-0.000122,1.034668 0.005493,1.766266 -0.020813,2.513336c-0.026367,0.747772 -0.179199,2.184143 -0.345337,2.86084c-0.173706,0.707611 -0.440613,1.468018 -0.967163,2.805817c-0.205017,0.520874 -0.431213,1.074646 -0.93866,2.256012c-0.266479,0.620392 -0.546509,1.249298 -0.837036,1.881012c-0.290771,0.632294 -0.880615,1.868378 -1.49231,3.02832c-0.298157,0.565338 -0.60675,1.118805 -0.919495,1.667999c-0.631104,1.108337 -0.965759,1.667297 -1.645874,2.833344c-0.355286,0.609131 -0.718201,1.235474 -1.085999,1.876495c-0.373535,0.65097 -0.749146,1.309967 -1.122009,1.975494c-0.745056,1.329926 -1.460083,2.647247 -1.80365,3.292664c-0.336365,0.631897 -0.660217,1.251221 -0.974976,1.854004c-0.305237,0.584534 -0.881165,1.694031 -1.160034,2.210663c-0.75531,1.399445 -1.001831,1.811401 -1.482666,2.613342c-0.497742,0.83017 -0.779236,1.268616 -1.703979,2.843994c-0.36731,0.625732 -0.751404,1.301666 -1.15802,2.006989c-0.417358,0.723999 -0.838867,1.453186 -1.265991,2.169006c-0.414978,0.695465 -0.798035,1.366882 -1.575989,2.490662c-0.324829,0.469238 -0.90979,1.203918 -1.4375,1.708344c-0.636719,0.608612 -1.465759,1.387939 -1.851807,1.86499c-0.560181,0.692169 -1.446228,1.357422 -2.126709,2.044006c-0.559021,0.564026 -1.09375,1.205505 -1.65863,1.741333c-0.605347,0.574249 -1.532349,1.074493 -2.197693,1.270172l-0.769348,0.183655l-0.809326,0.163666" id="svg_63" stroke-linecap="null" stroke-linejoin="null" stroke-dasharray="null" stroke-width="5" stroke="#000000" fill="none"/>
  <path stroke="#000000" d="m594,268c0,1.799988 0.036255,2.639862 -0.435974,3.410675c-0.492737,0.80426 -0.960876,1.452332 -1.378357,2.050995c-0.690369,0.98996 -1.227722,1.53537 -1.521667,1.870331c-0.703064,0.801147 -1.120117,1.283569 -1.578674,1.837341c-1.095154,1.322571 -1.714417,2.12262 -2.394653,2.989319c-0.725159,0.92395 -1.481689,1.893585 -2.273987,2.882996c-0.805054,1.00531 -1.615723,2.010376 -2.454041,2.973022c-1.603577,1.8414 -2.40863,2.644745 -3.185303,3.38266c-0.731079,0.694611 -1.452026,1.307983 -2.131531,1.873505l-0.64447,0.510498l-0.606506,0.458496l-0.565491,0.409485" id="svg_64" stroke-linecap="null" stroke-linejoin="null" stroke-dasharray="null" stroke-width="5" fill="none"/>
  <path d="m575,289c0.878479,1.221497 0.789368,2.166107 1.166687,3c0.295898,0.653961 1.537781,0.867676 1.822632,1.610657c0.311096,0.811493 0.828735,1.383636 1.009338,2.190674c0.196228,0.876984 0.137207,1.658966 0.648682,2.251343c0.566406,0.656006 1.009888,1.435455 1.752686,1.943329c0.646851,0.442261 1.019348,1.28067 1.242798,2.003174c0.314758,1.017853 0.180725,2.04007 0.442505,2.800812c0.26825,0.779572 1.11731,1.3974 1.714661,2c0.602722,0.608032 1.239868,1.344696 1.589355,2.02536c0.503113,0.979828 0.589661,1.788544 1.036011,2.574646c0.411743,0.725128 0.421204,1.648224 0.746155,2.414337c0.343384,0.809509 1.111145,1.440216 1.588501,1.934998c0.46936,0.486511 1.352295,1.53064 2.037354,1.962677c0.740417,0.466919 1.431274,1.048645 1.902649,1.582672c0.68634,0.777557 1.241211,1.464752 2.004517,1.700836c0.856323,0.264862 1.687805,0.4487 2.395447,1.104309c0.593628,0.549988 1.325195,0.956848 1.925354,1.474854c0.628723,0.542664 1.482971,0.910919 2.274658,1.377167c0.808716,0.476257 1.039063,1.210083 1.799988,1.805328c0.778809,0.609253 1.446838,0.80011 2.233337,1.576172c0.437561,0.431763 1.166687,1.166656 1.661377,1.661316c0.862488,0.862366 1.300232,1.391144 2.171997,2.005341c0.629944,0.443817 1.349304,0.799988 2.152649,1.35849l0.513977,0.412354l0.368042,0.29715l1.047974,0.841339" id="svg_65" stroke-linecap="null" stroke-linejoin="null" stroke-dasharray="null" stroke-width="5" stroke="#000000" fill="none"/>
  <path d="m578,204c1.799988,0 2.658081,-0.029465 3.486694,0.286667c0.785645,0.299744 1.684021,0.873581 2.203979,1.202667c0.920776,0.582718 1.266174,0.826141 2.052002,1.367996c0.926636,0.638916 1.445007,1.003601 2.567993,1.805176c0.591858,0.422455 1.190735,0.856384 1.788025,1.297501c0.592041,0.437256 1.17627,0.859406 2.234619,1.706665c0.932495,0.746536 1.329041,1.105499 2.041687,1.729156l0.592651,0.523666" id="svg_66" stroke-linecap="null" stroke-linejoin="null" stroke-dasharray="null" stroke-width="5" stroke="#000000" fill="none"/>
 </g>
</svg>